SplineFontDB: 3.2
FontName: Condescend2Italic
FullName: Condescend2 Italic
FamilyName: Condescend2
Weight: Regular
Copyright: Copyright (c) 2022, FontFish
UComments: "2022-12-30: Created with FontForge (http://fontforge.org)"
FontLog: "Began 2022-12-30+AAoACgAK-Completed as of 2023-01-01 :+AAoA-E, H, I, J, L, O+AAoA-a to v+AAoA-comma [,]"
Version: 001.000
ItalicAngle: -10
UnderlinePosition: -100
UnderlineWidth: 50
Ascent: 720
Descent: 280
InvalidEm: 0
LayerCount: 2
Layer: 0 0 "Back" 1
Layer: 1 0 "Fore" 0
XUID: [1021 63 -208442010 3809248]
FSType: 0
OS2Version: 0
OS2_WeightWidthSlopeOnly: 0
OS2_UseTypoMetrics: 1
CreationTime: 1672435746
ModificationTime: 1674663730
PfmFamily: 17
TTFWeight: 400
TTFWidth: 5
LineGap: 90
VLineGap: 0
OS2TypoAscent: 0
OS2TypoAOffset: 1
OS2TypoDescent: 0
OS2TypoDOffset: 1
OS2TypoLinegap: 90
OS2WinAscent: 0
OS2WinAOffset: 1
OS2WinDescent: 0
OS2WinDOffset: 1
HheadAscent: 0
HheadAOffset: 1
HheadDescent: 0
HheadDOffset: 1
OS2Vendor: 'PfEd'
MarkAttachClasses: 1
DEI: 91125
LangName: 1033
Encoding: UnicodeBmp
Compacted: 1
UnicodeInterp: none
NameList: AGL For New Fonts
DisplaySize: -36
AntiAlias: 1
FitToEm: 0
WinInfo: 0 20 8
BeginPrivate: 0
EndPrivate
Grid
-1000 765 m 0
 2000 765 l 1024
-1000 600 m 0
 2000 600 l 1024
  Named: "caps"
-1000 390 m 0
 2000 390 l 1024
  Named: "x"
EndSplineSet
TeXData: 1 0 0 262144 131072 87381 408945 1048576 87381 783286 444596 497025 792723 393216 433062 380633 303038 157286 324010 404750 52429 2506097 1059062 262144
AnchorClass2: "accent_below_cap"""  "accent_above_cap"""  "accent_below"""  "accent_above"""  "above""" 
BeginChars: 65550 243

StartChar: n
Encoding: 110 110 0
Width: 487
Flags: HW
AnchorPoint: "accent_above" 280 455 basechar 0
LayerCount: 2
Back
SplineSet
364 104 m 2
 358 79 361 65 372 65 c 3
 395 65 433 103 458 135 c 1
 482 114 l 1
 424 29 368 -10 330 -10 c 0
 295 -10 278 25 292 85 c 1026
409 285 m 2
 355 65 l 1
 445 130 l 1
 465 105 l 1
 370 15 342 -10 307 -10 c 0
 282 -10 277 22 285 57 c 2
 342 292 l 18
 347 314 339 337 325 337 c 1
 288 337 177 245 151 117 c 1
 157 219 l 1
 207 329 305 400 365 400 c 0
 405 400 426 355 409 285 c 2
60 0 m 1
 125 325 l 1
 115 325 l 1
 45 288 l 1
 32 318 l 1
 120 383 150 400 175 400 c 0
 193 400 198 380 190 350 c 2
 157 219 l 1
 171 215 l 1
 127 0 l 1
 60 0 l 1
EndSplineSet
Fore
SplineSet
409 285 m 2
 364 102 l 6
 359 80 360 67 370 67 c 7
 388 67 415 83 450 125 c 5
 473 103 l 5
 418 23 360 -10 325 -10 c 4
 290 -10 278 27 290 77 c 6
 342 292 l 18
 347 314 339 337 325 337 c 1
 288 337 177 245 151 117 c 5
 157 219 l 1
 207 329 305 400 365 400 c 0
 405 400 426 355 409 285 c 2
60 0 m 5
 120 300 l 2
 123 315 121 327 112 327 c 3
 97 327 72 313 42 288 c 1
 25 315 l 1
 95 383 142 400 170 400 c 0
 194 400 197 372 189 342 c 2
 157 219 l 1
 171 215 l 1
 127 0 l 5
 60 0 l 5
EndSplineSet
EndChar

StartChar: m
Encoding: 109 109 1
Width: 705
Flags: HW
AnchorPoint: "accent_above" 280 455 basechar 0
LayerCount: 2
Back
SplineSet
400 305 m 2
 382 235 l 1
 387 220 l 1
 342 0 l 1
 274 0 l 1
 334 292 l 1
 339 316 331 337 317 337 c 1
 282 337 177 245 152 122 c 1
 158 224 l 1
 208 329 298 400 357 400 c 0
 392 400 416 365 400 305 c 2
624 285 m 2
 572 65 l 1
 662 130 l 1
 682 105 l 1
 587 15 559 -10 524 -10 c 0
 499 -10 494 22 502 57 c 2
 557 292 l 18
 562 314 554 337 540 337 c 1
 503 337 392 245 366 117 c 1
 382 235 l 1
 437 340 521 400 580 400 c 0
 620 400 641 355 624 285 c 2
60 0 m 1
 125 325 l 1
 115 325 l 1
 45 288 l 1
 32 318 l 1
 120 383 150 400 175 400 c 0
 193 400 198 380 190 350 c 2
 158 224 l 1
 171 215 l 1
 127 0 l 1
 60 0 l 1
EndSplineSet
Fore
SplineSet
624 285 m 2
 579 102 l 2
 574 80 575 67 585 67 c 3
 603 67 630 83 665 125 c 1
 688 103 l 1
 633 23 575 -10 540 -10 c 0
 505 -10 493 27 505 77 c 2
 557 292 l 18
 562 314 554 337 540 337 c 1
 503 337 392 245 366 117 c 1
 382 235 l 1
 437 340 521 400 580 400 c 0
 620 400 641 355 624 285 c 2
60 0 m 1
 120 300 l 2
 123 315 121 327 112 327 c 3
 97 327 72 313 42 288 c 1
 25 315 l 1
 95 383 142 400 170 400 c 0
 194 400 197 372 189 342 c 2
 158 224 l 1
 171 215 l 1
 127 0 l 1
 60 0 l 1
400 305 m 2
 382 235 l 1
 387 220 l 1
 342 0 l 1
 274 0 l 1
 334 292 l 1
 339 316 331 337 317 337 c 1
 282 337 177 245 152 122 c 1
 158 224 l 1
 208 329 298 400 357 400 c 0
 392 400 416 365 400 305 c 2
EndSplineSet
EndChar

StartChar: o
Encoding: 111 111 2
Width: 380
Flags: HW
AnchorPoint: "accent_above" 225 455 basechar 0
LayerCount: 2
Back
SplineSet
565 160 m 0
 565 85 593 35 633 35 c 0
 688 35 735 135 735 230 c 0
 735 305 707 355 667 355 c 0
 612 355 565 255 565 160 c 0
485 138 m 0
 485 268 587 400 692 400 c 0
 764 400 815 342 815 252 c 0
 815 122 713 -10 608 -10 c 0
 536 -10 485 48 485 138 c 0
1178.77734375 160 m 0
 1175.984375 80 1196.23828125 30 1236.23828125 30 c 0
 1290.23828125 30 1337.90429688 135 1341.22265625 230 c 0
 1344.015625 310 1323.76171875 360 1283.76171875 360 c 0
 1229.76171875 360 1182.09570312 255 1178.77734375 160 c 0
1098.14941406 142 m 0
 1102.58398438 269 1198.15917969 400 1303.15917969 400 c 0
 1373.15917969 400 1424.99414062 338 1421.85058594 248 c 0
 1417.41601562 121 1321.84082031 -10 1216.84082031 -10 c 0
 1146.84082031 -10 1095.00585938 52 1098.14941406 142 c 0
1180 160 m 0
 1180 80 1202 30 1242 30 c 0
 1296 30 1340 135 1340 230 c 0
 1340 310 1318 360 1278 360 c 0
 1224 360 1180 255 1180 160 c 0
1100 142 m 0
 1100 269 1191 400 1296 400 c 0
 1366 400 1420 338 1420 248 c 0
 1420 121 1329 -10 1224 -10 c 0
 1154 -10 1100 52 1100 142 c 0
1548 160 m 0
 1548 75 1570 29 1610 29 c 0
 1665 29 1710 135 1710 230 c 0
 1710 315 1688 361 1648 361 c 0
 1593 361 1548 255 1548 160 c 0
1470 142 m 0
 1470 269 1559 400 1664 400 c 0
 1734 400 1788 338 1788 248 c 0
 1788 121 1699 -10 1594 -10 c 0
 1524 -10 1470 52 1470 142 c 0
1953 160 m 0
 1953 75 1977 28 2022 28 c 0
 2077 28 2125 135 2125 230 c 0
 2125 315 2101 362 2056 362 c 0
 2001 362 1953 255 1953 160 c 0
1882 142 m 0
 1882 267 1967 400 2072 400 c 0
 2142 400 2196 338 2196 248 c 0
 2196 123 2111 -10 2006 -10 c 0
 1936 -10 1882 52 1882 142 c 0
-318.993164062 168.08984375 m 0
 -321.611328125 93.134765625 -292.548828125 37.0869140625 -252.573242188 35.6904296875 c 0
 -197.607421875 33.771484375 -144.322265625 126.96875 -141.006835938 221.91015625 c 0
 -138.388671875 296.865234375 -167.451171875 352.913085938 -207.426757812 354.309570312 c 0
 -262.392578125 356.228515625 -315.677734375 263.03125 -318.993164062 168.08984375 c 0
-393.8203125 145.6875 m 0
 -389.458007812 270.611328125 -287.805664062 402.143554688 -182.870117188 398.479492188 c 0
 -112.913085938 396.036132812 -63.0380859375 334.2578125 -66.1796875 244.3125 c 0
 -70.5419921875 119.388671875 -172.194335938 -12.1435546875 -277.129882812 -8.4794921875 c 0
 -347.086914062 -6.0361328125 -396.961914062 55.7421875 -393.8203125 145.6875 c 0
-766 210 m 0
 -783 105 -758 28 -706 28 c 0
 -656 28 -613 85 -598 180 c 0
 -581 285 -606 362 -658 362 c 0
 -708 362 -751 305 -766 210 c 0
-835 192 m 0
 -817 305 -731 400 -646 400 c 0
 -562 400 -511 310 -529 198 c 0
 -547 85 -633 -10 -718 -10 c 0
 -802 -10 -853 80 -835 192 c 0
-1247 210 m 0
 -1247 105 -1198 28 -1128 28 c 0
 -1061 28 -1017 85 -1017 180 c 0
 -1017 285 -1066 362 -1136 362 c 0
 -1203 362 -1247 305 -1247 210 c 0
-1336 192 m 0
 -1336 305 -1241 400 -1128 400 c 0
 -1016 400 -928 310 -928 198 c 0
 -928 85 -1023 -10 -1136 -10 c 0
 -1248 -10 -1336 80 -1336 192 c 0
EndSplineSet
Fore
SplineSet
110 145 m 0
 110 75 128 30 168 30 c 0
 222 30 270 145 270 245 c 0
 270 315 252 360 212 360 c 0
 158 360 110 245 110 145 c 0
30 135 m 0
 30 265 122 400 227 400 c 0
 297 400 350 338 350 255 c 0
 350 125 258 -10 153 -10 c 0
 83 -10 30 52 30 135 c 0
EndSplineSet
EndChar

StartChar: i
Encoding: 105 105 3
Width: 270
Flags: HW
LayerCount: 2
Back
SplineSet
196.962890625 327.965820312 m 2
 207.53515625 372.623046875 199.453125 398.922851562 171.469726562 399.904296875 c 0
 126.498046875 401.482421875 79.4384765625 372.114257812 11.673828125 294.443359375 c 1
 35.95703125 273.578125 l 1
 69.1650390625 307.434570312 95.990234375 330.508789062 115.977539062 329.807617188 c 0
 125.971679688 329.456054688 125.48046875 315.46484375 121.95703125 300.579101562 c 2
 76.142578125 107.067382812 l 2
 58.5224609375 32.638671875 65.1142578125 -7.6171875 107.088867188 -9.08984375 c 0
 152.060546875 -10.66796875 208.956054688 42.3701171875 261.73046875 120.567382812 c 1
 237.447265625 141.431640625 l 1
 216.372070312 111.15234375 171.680664062 63.6904296875 149.694335938 64.4619140625 c 0
 141.69921875 64.7421875 138.227539062 79.873046875 144.100585938 104.682617188 c 2
 196.962890625 327.965820312 l 2
145 562 m 0
 145 590 170 616 198 616 c 0
 218 616 233 600 233 578 c 0
 233 550 208 524 180 524 c 0
 160 524 145 540 145 562 c 0
-155 562 m 0
 -155 590 -130 616 -102 616 c 0
 -82 616 -67 600 -67 578 c 0
 -67 550 -92 524 -120 524 c 0
 -140 524 -155 540 -155 562 c 0
-113 350 m 2
 -170 65 l 1
 -80 130 l 1
 -60 105 l 1
 -155 15 -183 -10 -218 -10 c 0
 -243 -10 -247 20 -240 55 c 2
 -185 330 l 1
 -268 275 l 1
 -283 305 l 1
 -183 385 -162 400 -135 400 c 0
 -117 400 -107 380 -113 350 c 2
1635 562 m 0
 1635 590 1660 616 1688 616 c 0
 1708 616 1723 600 1723 578 c 0
 1723 550 1698 524 1670 524 c 0
 1650 524 1635 540 1635 562 c 0
1677 350 m 2
 1620 65 l 1
 1710 130 l 1
 1730 105 l 1
 1635 15 1604 -10 1574 -10 c 0
 1547 -10 1543 20 1550 55 c 2
 1605 330 l 1
 1522 275 l 1
 1507 305 l 1
 1607 385 1628 400 1655 400 c 0
 1673 400 1683 380 1677 350 c 2
-515 562 m 0
 -515 590 -490 616 -462 616 c 0
 -442 616 -427 600 -427 578 c 0
 -427 550 -452 524 -480 524 c 0
 -500 524 -515 540 -515 562 c 0
-473 350 m 2
 -529 70 l 1
 -440 145 l 1
 -415 125 l 1
 -515 20 -543 -10 -578 -10 c 0
 -605 -10 -607 20 -600 55 c 2
 -546 325 l 1
 -628 260 l 1
 -648 287 l 1
 -543 382 -523 400 -495 400 c 0
 -475 400 -467 380 -473 350 c 2
600 562 m 0
 600 590 625 616 653 616 c 0
 673 616 688 600 688 578 c 0
 688 550 663 524 635 524 c 0
 615 524 600 540 600 562 c 0
653 330 m 2
 662 375 653 401 625 401 c 0
 580 401 534 370 469 290 c 1
 494 270 l 1
 526 305 552 329 572 329 c 3
 582 329 582 315 579 300 c 2
 540 105 l 2
 525 30 533 -10 575 -10 c 0
 620 -10 675 45 725 125 c 1
 700 145 l 1
 680 114 637 65 615 65 c 3
 607 65 603 80 608 105 c 2
 653 330 l 2
-918 388 m 1
 -850 388 l 1
 -931 64 l 1
 -899 74 -862 105 -835 140 c 1
 -810 118 l 1
 -880 23 -930 -5 -975 -5 c 1
 -1005 -5 l 1
 -1005 40 l 1
 -918 388 l 1
591 570 m 0
 595 595 618 616 642 616 c 0
 666 616 681 595 677 570 c 0
 673 545 650 524 626 524 c 0
 602 524 587 545 591 570 c 0
1360 390 m 1
 1296 70 l 1
 1385 145 l 1
 1410 125 l 1
 1310 20 1282 -10 1247 -10 c 0
 1220 -10 1218 20 1225 55 c 2
 1292 390 l 1
 1360 390 l 1
-1095 390 m 1
 -1160 65 l 1
 -1070 140 l 1
 -1045 120 l 1
 -1135 25 -1168 -10 -1208 -10 c 0
 -1235 -10 -1237 20 -1229 60 c 2
 -1163 390 l 1
 -1095 390 l 1
842 388 m 1
 910 388 l 1
 829 64 l 1
 861 74 898 105 925 140 c 1
 950 118 l 1
 880 23 830 -10 795 -10 c 0
 763 -10 751 24 765 80 c 2
 842 388 l 1
1072 390 m 1
 1140 390 l 1
 1078 80 l 1
 1088 70 l 1
 1168 140 l 1
 1193 115 l 1
 1098 20 1073 -10 1038 -10 c 3
 1008 -10 999 25 1010 80 c 10
 1072 390 l 1
-1580 390 m 1
 -1510 390 l 1
 -1585 90 l 1
 -1575 80 l 1
 -1495 150 l 1
 -1470 125 l 1
 -1565 30 -1590 0 -1625 0 c 3
 -1655 0 -1666 35 -1655 90 c 10
 -1580 390 l 1
-1380 390 m 1
 -1310 390 l 1
 -1372 80 l 1
 -1362 70 l 1
 -1282 140 l 1
 -1257 115 l 1
 -1352 20 -1377 -10 -1412 -10 c 3
 -1442 -10 -1453 25 -1442 80 c 10
 -1380 390 l 1
-2790 390 m 1
 -2720 390 l 1
 -2813 80 l 1
 -2803 70 l 1
 -2723 140 l 1
 -2698 115 l 1
 -2793 20 -2818 -10 -2853 -10 c 3
 -2883 -10 -2894 25 -2883 80 c 10
 -2790 390 l 1
-1880 390 m 1
 -1810 390 l 1
 -1875 80 l 1
 -1865 70 l 1
 -1785 140 l 1
 -1760 115 l 1
 -1855 20 -1880 -10 -1915 -10 c 3
 -1945 -10 -1957 25 -1945 80 c 10
 -1880 390 l 1
-2580 390 m 1
 -2510 390 l 1
 -2585 115 l 2
 -2591 93 -2595 65 -2580 65 c 3
 -2555 65 -2520 105 -2495 150 c 9
 -2470 135 l 1
 -2510 55 -2570 -10 -2625 -10 c 3
 -2660 -10 -2678 30 -2660 95 c 10
 -2580 390 l 1
-2360 390 m 1
 -2290 390 l 1
 -2355 80 l 1
 -2345 70 l 1
 -2265 140 l 1
 -2240 115 l 1
 -2335 20 -2360 -10 -2395 -10 c 3
 -2425 -10 -2437 25 -2425 80 c 10
 -2360 390 l 1
-2110 390 m 1
 -2040 390 l 1
 -2090 65 l 1
 -2010 135 l 1
 -1988 113 l 1
 -2073 18 -2100 -10 -2130 -10 c 0
 -2160 -10 -2166 20 -2160 60 c 2
 -2110 390 l 1
468 570 m 0
 468 595 489 616 514 616 c 0
 539 616 560 595 560 570 c 0
 560 545 539 524 514 524 c 0
 489 524 468 545 468 570 c 0
EndSplineSet
Fore
SplineSet
155 562 m 0
 155 590 180 616 208 616 c 0
 228 616 243 600 243 578 c 0
 243 550 218 524 190 524 c 0
 170 524 155 540 155 562 c 0
198 332 m 2
 144 104 l 2
 138 79 141 65 152 65 c 3
 175 65 213 103 238 135 c 1
 262 114 l 1
 204 29 148 -10 110 -10 c 0
 75 -10 58 25 72 85 c 2
 120 288 l 2
 126 313 126 331 115 331 c 3
 98 331 75 317 35 280 c 1
 15 305 l 1
 83 377 131 400 168 400 c 0
 195 400 208 374 198 332 c 2
EndSplineSet
EndChar

StartChar: l
Encoding: 108 108 4
Width: 230
Flags: HW
LayerCount: 2
Back
SplineSet
38 0 m 1
 130 564 l 1
 85 595 l 1
 85 605 l 1
 200 640 l 1
 210 640 l 1
 144 262 l 1
 145 260 l 1
 103 0 l 1
 38 0 l 1
EndSplineSet
Fore
SplineSet
210 640 m 1
 120 105 l 2
 115 73 120 62 130 62 c 3
 150 62 180 90 207 130 c 1
 230 105 l 1
 184 32 124 -10 84 -10 c 0
 49 -10 43 27 50 72 c 2
 130 560 l 1
 85 590 l 1
 85 600 l 1
 200 640 l 1
 210 640 l 1
EndSplineSet
EndChar

StartChar: j
Encoding: 106 106 5
Width: 230
Flags: HW
LayerCount: 2
Back
SplineSet
108 289 m 2
 112 314 113 329 102 329 c 3
 85 329 62 315 22 278 c 1
 2 303 l 1
 70 375 118 400 155 400 c 0
 182 400 192 378 185 336 c 1026
145 562 m 0
 145 590 170 616 198 616 c 0
 218 616 233 600 233 578 c 0
 233 550 208 524 180 524 c 0
 160 524 145 540 145 562 c 0
100 -140 m 1
 65 -195 17 -230 -53 -260 c 1
 -65 -233 l 1
 0 -198 30 -145 40 -90 c 2
 115 330 l 1
 32 275 l 1
 17 305 l 1
 117 385 138 400 165 400 c 0
 183 400 192 380 187 350 c 2
 100 -140 l 1
EndSplineSet
Fore
SplineSet
145 562 m 0
 145 590 170 616 198 616 c 0
 218 616 233 600 233 578 c 0
 233 550 208 524 180 524 c 0
 160 524 145 540 145 562 c 0
107 285 m 2
 112 314 113 329 102 329 c 3
 85 329 62 315 22 278 c 1
 2 303 l 1
 67 373 118 400 155 400 c 0
 183 400 192 378 184 333 c 2
 108 -95 l 2
 96 -165 32 -225 -53 -260 c 1
 -65 -233 l 1
 0 -198 30 -145 40 -90 c 2
 107 285 l 2
EndSplineSet
EndChar

StartChar: h
Encoding: 104 104 6
Width: 462
Flags: HW
LayerCount: 2
Back
SplineSet
383 281 m 2
 339 102 l 2
 334 80 335 67 345 67 c 3
 363 67 390 83 425 125 c 1
 448 103 l 1
 393 23 335 -10 300 -10 c 0
 265 -10 253 27 265 77 c 2
 317 292 l 18
 322 314 314 337 300 337 c 1
 255 337 144 239 122 109 c 1
 139 239 l 1
 197 339 280 400 340 400 c 0
 380 400 400 351 383 281 c 2
38 0 m 1
 130 564 l 1
 85 595 l 1
 85 605 l 1
 200 640 l 1
 210 640 l 1
 144 262 l 1
 145 260 l 1
 103 0 l 1
 38 0 l 1
EndSplineSet
Fore
SplineSet
383 281 m 2
 339 102 l 2
 334 80 335 67 345 67 c 3
 363 67 390 83 425 125 c 1
 448 103 l 1
 393 23 335 -10 300 -10 c 0
 265 -10 253 27 265 77 c 2
 317 292 l 18
 322 314 314 337 300 337 c 1
 254 337 143 236 121 108 c 1
 139 239 l 1
 197 339 280 400 340 400 c 0
 380 400 400 351 383 281 c 2
38 0 m 1
 129 560 l 1
 85 590 l 1
 85 600 l 1
 200 640 l 1
 210 640 l 1
 139 239 l 1
 142 232 l 1
 103 0 l 1
 38 0 l 1
EndSplineSet
EndChar

StartChar: r
Encoding: 114 114 7
Width: 325
Flags: HW
LayerCount: 2
Back
SplineSet
298 308 m 3
 284 308 275 315 265 315 c 1
 235 315 188 255 168 155 c 1
 165 252 l 1
 205 347 255 400 305 400 c 1
 325 400 345 385 345 362 c 1
 345 335 320 308 298 308 c 3
72 0 m 1
 103 165 l 2
 117 240 104 334 89 334 c 3
 74 334 44 310 27 290 c 1
 10 315 l 1
 68 380 106 400 130 400 c 0
 154 400 172 352 165 252 c 9
 165 252 l 1
 180 217 l 1
 138 0 l 1
 72 0 l 1
-368 0 m 1
 -335 175 l 2
 -321 250 -335 335 -350 335 c 3
 -367 335 -396 310 -413 290 c 1
 -430 315 l 1
 -372 380 -334 400 -310 400 c 0
 -290 400 -275 365 -275 295 c 9
 -275 252 l 1
 -260 217 l 1
 -302 0 l 1
 -368 0 l 1
-142 308 m 3
 -156 308 -165 315 -175 315 c 1
 -205 315 -252 255 -272 155 c 1
 -275 252 l 1
 -235 347 -185 400 -135 400 c 1
 -115 400 -95 385 -95 362 c 1
 -95 335 -120 308 -142 308 c 3
-369 0 m 1
 -332 190 l 1
 -350 335 l 1
 -410 295 l 1
 -425 323 l 1
 -345 390 -330 400 -306 400 c 0
 -289 400 -284 385 -282 355 c 2
 -275 252 l 1
 -260 217 l 1
 -302 0 l 1
 -369 0 l 1
EndSplineSet
Fore
SplineSet
298 308 m 3
 284 308 275 315 265 315 c 1
 235 315 188 255 168 155 c 1
 167 255 l 1
 206 348 255 400 305 400 c 1
 325 400 345 385 345 362 c 1
 345 335 320 308 298 308 c 3
74 0 m 1
 100 149 l 2
 115 234 102 334 87 334 c 0
 72 334 42 310 25 290 c 1
 8 315 l 1
 66 380 106 400 130 400 c 0
 154 400 177 360 167 255 c 1
 180 217 l 1
 138 0 l 1
 74 0 l 1
EndSplineSet
EndChar

StartChar: k
Encoding: 107 107 8
Width: 415
Flags: HW
LayerCount: 2
Back
SplineSet
920 -52 m 1
 855 -37 798 -5 765 45 c 2
 685 166 l 1
 685 176 l 1
 795 206 845 254 845 304 c 0
 845 321 832 337 815 337 c 1
 773 337 673 242 655 131 c 1
 674 260 l 1
 734 353 800 400 850 400 c 0
 887 400 920 365 920 320 c 0
 920 262 855 207 770 172 c 1
 830 85 l 2
 857 45 895 5 940 -25 c 1
 920 -52 l 1
567 0 m 1
 660 564 l 1
 615 595 l 1
 615 605 l 1
 732 640 l 1
 742 640 l 1
 674 260 l 1
 675 255 l 1
 634 0 l 1
 567 0 l 1
315 304 m 0
 315 321 302 337 285 337 c 1
 243 337 143 242 125 131 c 1
 144 260 l 1
 204 353 270 400 320 400 c 0
 357 400 390 365 390 320 c 0
 390 262 325 207 240 172 c 1
 314 53 l 1
 381 102 l 1
 402 77 l 1
 332 7 315 -9 290 -9 c 1
 268 -9 255 5 238 35 c 2
 160 168 l 1
 160 178 l 1
 265 206 315 254 315 304 c 0
37 0 m 1
 130 564 l 1
 85 595 l 1
 85 605 l 1
 202 640 l 1
 212 640 l 1
 144 260 l 1
 145 255 l 1
 104 0 l 1
 37 0 l 1
EndSplineSet
Fore
SplineSet
315 305 m 0
 315 323 302 340 285 340 c 1
 235 340 142 240 128 155 c 1
 143 264 l 1
 201 359 270 400 320 400 c 0
 357 400 387 364 387 322 c 0
 387 264 325 207 240 172 c 1
 288 90 l 2
 300 70 309 58 320 58 c 3
 334 58 356 75 377 105 c 1
 402 85 l 1
 360 18 317 -9 292 -9 c 1
 267 -9 250 13 227 55 c 2
 165 170 l 1
 165 180 l 1
 270 208 315 255 315 305 c 0
38 0 m 1
 130 564 l 1
 85 595 l 1
 85 605 l 1
 200 640 l 1
 210 640 l 1
 144 262 l 1
 145 260 l 1
 103 0 l 1
 38 0 l 1
EndSplineSet
EndChar

StartChar: u
Encoding: 117 117 9
Width: 473
Flags: HW
AnchorPoint: "accent_above" 285 455 basechar 0
LayerCount: 2
Back
SplineSet
75 95 m 2
 120 290 l 2
 125 310 123 324 115 324 c 3
 100 324 65 305 35 275 c 1
 15 300 l 1
 85 375 135 400 170 400 c 0
 200 400 206 369 196 324 c 2
 145 100 l 18
 139 75 143 57 157 57 c 1
 202 57 313 180 340 315 c 1
 324 180 l 1
 269 70 175 -10 115 -10 c 0
 75 -10 60 30 75 95 c 2
423 390 m 1
 364 95 l 2
 360 75 364 67 370 67 c 3
 388 67 420 90 450 120 c 1
 470 92 l 1
 405 22 355 -10 320 -10 c 0
 290 -10 279 25 305 115 c 2
 324 180 l 1
 314 185 l 1
 355 390 l 1
 423 390 l 1
-206 102 m 2
 -211 80 -210 67 -200 67 c 3
 -182 67 -155 83 -120 125 c 1
 -97 103 l 1
 -152 23 -210 -10 -245 -10 c 0
 -280 -10 -292 27 -280 77 c 1026
-508 0 m 1
 -448 300 l 2
 -445 315 -447 327 -456 327 c 3
 -471 327 -496 313 -526 288 c 1
 -543 315 l 1
 -473 383 -426 400 -398 400 c 0
 -374 400 -371 372 -379 342 c 2
 -411 219 l 1
 -397 215 l 1
 -441 0 l 1
 -508 0 l 1
-495 95 m 2
 -442 325 l 1
 -532 260 l 1
 -552 285 l 1
 -457 375 -429 400 -394 400 c 0
 -369 400 -364 368 -372 333 c 2
 -425 100 l 18
 -431 75 -427 57 -413 57 c 1
 -368 57 -257 180 -230 315 c 1
 -246 180 l 1
 -301 70 -395 -10 -455 -10 c 0
 -495 -10 -509.979492188 29.9951171875 -495 95 c 2
-147 390 m 1
 -212 65 l 1
 -123 114 l 1
 -107 86 l 1
 -202 11 -233 -10 -260 -10 c 0
 -290 -10 -289 27 -265 112 c 2
 -246 180 l 1
 -256 185 l 1
 -215 390 l 1
 -147 390 l 1
EndSplineSet
Fore
SplineSet
75 95 m 2
 120 290 l 2
 125 310 123 324 115 324 c 3
 100 324 65 305 35 275 c 1
 15 300 l 1
 85 375 135 400 170 400 c 0
 200 400 206 369 196 324 c 2
 145 100 l 18
 139 75 143 57 157 57 c 1
 202 57 313 180 340 315 c 1
 324 180 l 1
 269 70 175 -10 115 -10 c 0
 75 -10 60 30 75 95 c 2
423 390 m 1
 365 100 l 2
 361 78 365 65 374 65 c 3
 394 65 425 87 452 119 c 1
 473 92 l 1
 415 22 365 -10 330 -10 c 0
 300 -10 279 25 305 115 c 2
 324 180 l 1
 314 185 l 1
 355 390 l 1
 423 390 l 1
EndSplineSet
EndChar

StartChar: b
Encoding: 98 98 10
Width: 400
Flags: HW
LayerCount: 2
Back
SplineSet
44 75 m 2
 124 565 l 1
 75 595 l 1
 75 605 l 1
 195 640 l 1
 205 640 l 1
 140 260 l 1
 192 350 260 400 310 400 c 0
 356 400 383 355 383 305 c 0
 383 165 261 -10 141 -10 c 0
 86 -10 37 30 44 75 c 2
117 90 m 2
 113 62 136 32 163 32 c 0
 238 32 305 175 305 285 c 0
 305 313 293 337 273 337 c 0
 223 337 136 224 122 125 c 2
 117 90 l 2
EndSplineSet
Fore
SplineSet
44 75 m 2
 124 565 l 1
 75 595 l 1
 75 605 l 1
 195 640 l 1
 205 640 l 1
 140 262 l 5
 192 351 260 400 310 400 c 0
 356 400 383 355 383 305 c 0
 383 165 261 -10 141 -10 c 0
 86 -10 37 30 44 75 c 2
115 90 m 2
 111 62 136 32 163 32 c 0
 238 32 305 175 305 285 c 0
 305 315 293 337 273 337 c 0
 223 337 134 224 120 125 c 2
 115 90 l 2
EndSplineSet
EndChar

StartChar: period
Encoding: 46 46 12
Width: 230
Flags: HW
LayerCount: 2
Back
SplineSet
65 45 m 0
 70 77 100 103 130 103 c 0
 160 103 180 77 175 45 c 0
 170 13 140 -13 110 -13 c 0
 80 -13 60 13 65 45 c 0
EndSplineSet
Fore
SplineSet
59 39 m 0
 59 74 91 105 125 105 c 0
 153 105 171 83 171 55 c 0
 171 20 139 -11 105 -11 c 0
 77 -11 59 11 59 39 c 0
EndSplineSet
EndChar

StartChar: d
Encoding: 100 100 13
Width: 420
Flags: HW
LayerCount: 2
Back
SplineSet
398 640 m 1
 299 60 l 1
 390 115 l 1
 407 88 l 1
 317 11 287 -10 257 -10 c 0
 227 -10 217 21 247 131 c 1
 202 47 133 -10 78 -10 c 0
 36 -10 12 25 12 80 c 0
 12 217 128 385 250 385 c 3
 262 385 276 383 285 381 c 1
 314 560 l 1
 260 590 l 1
 260 600 l 1
 388 640 l 1
 398 640 l 1
278 330 m 1
 270 339 256 345 238 345 c 3
 168 345 85 215 85 110 c 3
 85 75 97 55 117 55 c 3
 162 55 251 142 276 316 c 2
 278 330 l 1
308 122 m 2
 301 87 304 65 318 65 c 3
 338 65 381 114 398 140 c 1
 423 120 l 1
 373 40 322 -10 280 -10 c 0
 245 -10 218 22 253 142 c 1025
EndSplineSet
Fore
SplineSet
395 640 m 1
 310 125 l 2
 303 85 307 60 322 60 c 1
 342 60 378 93 400 123 c 1
 420 100 l 1
 368 22 317 -10 282 -10 c 0
 250 -10 225 25 250 135 c 1
 205 48 134 -10 78 -10 c 0
 36 -10 12 25 12 80 c 0
 12 217 128 385 250 385 c 3
 262 385 276 383 285 381 c 1
 312 560 l 1
 258 590 l 1
 258 600 l 1
 385 640 l 1
 395 640 l 1
278 330 m 1
 270 339 256 345 238 345 c 3
 168 345 85 215 85 110 c 3
 85 75 97 55 117 55 c 3
 162 55 251 142 276 316 c 2
 278 330 l 1
EndSplineSet
EndChar

StartChar: a
Encoding: 97 97 14
Width: 415
Flags: HW
AnchorPoint: "accent_above" 253 455 basechar 0
LayerCount: 2
Back
SplineSet
357 405 m 1
 298 125 l 1
 297 65 l 1
 382 138 l 1
 407 118 l 1
 322 20 295 -10 260 -10 c 0
 230 -10 212 30 242 140 c 1
 185 40 115 -10 70 -10 c 0
 33 -10 8 22 8 65 c 0
 8 197 189 379 303 385 c 1
 317 405 l 1
 357 405 l 1
268 305 m 1
 264 308 255 310 248 310 c 3
 173 310 84 192 84 102 c 3
 84 78 93 60 110 60 c 3
 155 60 245 160 268 305 c 1
EndSplineSet
Fore
SplineSet
357 405 m 1
 298 122 l 2
 291 87 294 65 308 65 c 3
 328 65 368 109 385 135 c 1
 410 115 l 1
 362 39 312 -10 270 -10 c 0
 235 -10 208 22 243 142 c 1
 189 47 122 -10 67 -10 c 0
 35 -10 8 22 8 65 c 0
 8 220 183 375 303 385 c 1
 317 405 l 1
 357 405 l 1
268 305 m 1
 264 308 255 310 248 310 c 3
 173 310 80 216 80 108 c 3
 80 80 95 62 112 62 c 3
 160 62 244 163 268 305 c 1
EndSplineSet
EndChar

StartChar: q
Encoding: 113 113 15
Width: 402
Flags: HW
LayerCount: 2
Back
SplineSet
280 340 m 1
 272 350 261 355 246 355 c 0
 171 355 86 215 86 100 c 0
 86 72 100 52 122 52 c 0
 168 52 246 135 271 285 c 2
 280 340 l 1
360 405 m 1
 253 -240 l 1
 185 -240 l 1
 245 114 l 1
 197 34 137 -9 82 -9 c 0
 40 -9 12 28 12 80 c 0
 12 220 147 401 267 401 c 0
 282 401 301 395 312 388 c 1
 340 405 l 1
 360 405 l 1
122 -215 m 1
 337 -215 l 1
 332 -250 l 1
 117 -250 l 1
 122 -215 l 1
EndSplineSet
Fore
SplineSet
280 340 m 1
 272 350 261 355 246 355 c 0
 171 355 86 215 86 100 c 0
 86 72 100 52 122 52 c 0
 168 52 246 135 271 285 c 2
 280 340 l 1
360 405 m 1
 253 -240 l 1
 185 -240 l 1
 245 114 l 1
 197 34 137 -9 82 -9 c 0
 40 -9 12 28 12 80 c 0
 12 220 147 401 267 401 c 0
 282 401 301 395 312 388 c 1
 340 405 l 1
 360 405 l 1
122 -215 m 1
 337 -215 l 1
 332 -250 l 1
 117 -250 l 1
 122 -215 l 1
EndSplineSet
EndChar

StartChar: p
Encoding: 112 112 16
Width: 405
Flags: HW
LayerCount: 2
Back
SplineSet
132 58 m 17
 145 44 169 35 189 35 c 0
 259 35 307 175 307 275 c 0
 307 310 289 335 257 335 c 0
 207 335 115 300 25 255 c 1
 10 285 l 1
 115 343 230 390 300 390 c 0
 352 390 385 353 385 295 c 0
 385 155 290 -5 175 -5 c 0
 163 -5 138 -1 125 5 c 9
 132 58 l 17
-45 -215 m 1
 170 -215 l 1
 165 -250 l 1
 -50 -250 l 1
 -45 -215 l 1
134 55 m 1
 85 -240 l 1
 15 -240 l 1
 135 430 l 1
 200 445 l 1
 134 55 l 1
EndSplineSet
Fore
SplineSet
132 58 m 17
 145 44 169 35 189 35 c 0
 259 35 307 175 307 275 c 0
 307 310 289 335 257 335 c 0
 207 335 115 300 25 255 c 1
 10 285 l 1
 115 343 230 390 300 390 c 0
 352 390 385 353 385 295 c 0
 385 155 290 -5 175 -5 c 0
 163 -5 138 -1 125 5 c 9
 132 58 l 17
-45 -215 m 1
 170 -215 l 1
 165 -250 l 1
 -50 -250 l 1
 -45 -215 l 1
134 55 m 1
 82 -240 l 1
 15 -240 l 1
 135 430 l 1
 200 445 l 1
 134 55 l 1
EndSplineSet
EndChar

StartChar: f
Encoding: 102 102 17
Width: 265
Flags: HW
LayerCount: 2
Back
SplineSet
40 340 m 1
 40 370 l 1
 120 392 l 1
 145 390 l 1
 292 390 l 1
 280 340 l 1
 40 340 l 1
115 -85 m 2
 99 -190 20 -260 -45 -260 c 1
 -75 -260 -95 -245 -95 -225 c 1
 -95 -201 -74 -180 -50 -180 c 1
 -25 -180 -21 -198 1 -198 c 1
 21 -198 36 -170 47 -95 c 2
 129 455 l 2
 147 575 250 655 325 655 c 1
 350 655 370 640 370 620 c 1
 370 595 347 570 323 570 c 1
 296 570 289 592 265 592 c 1
 235 592 213 540 201 465 c 2
 115 -85 l 2
-335 -60 m 2
 -352 -180 -447 -260 -522 -260 c 1
 -547 -260 -567 -245 -567 -225 c 1
 -567 -200 -544 -175 -520 -175 c 1
 -493 -175 -486 -197 -462 -197 c 1
 -432 -197 -417 -150 -405 -75 c 1026
480 340 m 1
 480 370 l 1
 555 392 l 1
 580 390 l 1
 732 390 l 1
 720 340 l 1
 480 340 l 1
458 -260 m 1
 564 455 l 2
 581 575 685 655 760 655 c 1
 785 655 805 640 805 620 c 1
 805 595 782 570 758 570 c 1
 731 570 724 592 700 592 c 1
 670 592 648 540 636 465 c 2
 528 -235 l 1
 458 -260 l 1
-410 340 m 1
 -410 370 l 1
 -330 395 l 1
 -310 390 l 1
 -155 390 l 1
 -165 340 l 1
 -410 340 l 1
-393 0 m 1
 -326 455 l 2
 -308 575 -210 655 -135 655 c 1
 -110 655 -90 640 -90 620 c 1
 -90 595 -113 570 -137 570 c 1
 -164 570 -171 592 -195 592 c 1
 -225 592 -243 540 -254 465 c 2
 -325 0 l 1
 -393 0 l 1
-800 340 m 1
 -800 370 l 1
 -720 395 l 1
 -700 390 l 1
 -545 390 l 1
 -555 340 l 1
 -800 340 l 1
-783 0 m 1
 -715 462 l 2
 -698 577 -596 655 -530 655 c 1
 -505 655 -485 640 -485 620 c 1
 -485 595 -507 570 -532 570 c 1
 -559 570 -565 593 -590 593 c 1
 -620 593 -633 535 -644 465 c 2
 -715 0 l 1
 -783 0 l 1
-1193 0 m 1
 -1110 565 l 1
 -1159 595 l 1
 -1159 605 l 1
 -1037 640 l 1
 -1027 640 l 1
 -1125 0 l 1
 -1193 0 l 1
-1620 340 m 1
 -1620 370 l 1
 -1540 400 l 1
 -1510 390 l 1
 -1350 390 l 1
 -1360 340 l 1
 -1620 340 l 1
-1605 35 m 1
 -1385 35 l 1
 -1385 0 l 1
 -1605 0 l 1
 -1605 35 l 1
-1365 570 m 1
 -1390 570 -1401 594 -1426 594 c 1
 -1451 594 -1466 574 -1466 484 c 1
 -1466 0 l 1
 -1540 0 l 1
 -1540 460 l 1
 -1540 560 -1450 655 -1380 655 c 1
 -1340 655 -1320 635 -1320 615 c 1
 -1320 590 -1340 570 -1365 570 c 1
-1219 340 m 1
 -1215 370 l 1
 -1135 400 l 1
 -1108 390 l 1
 -958 390 l 1
 -975 340 l 1
 -1219 340 l 1
-1250 35 m 1
 -1044 35 l 1
 -1049 0 l 1
 -1256 0 l 1
 -1250 35 l 1
-945 570 m 1
 -969 570 -975 594 -999 594 c 1
 -1023 594 -1040 574 -1053 484 c 1
 -1125 0 l 1
 -1195 0 l 1
 -1126 460 l 1
 -1111 560 -1013 655 -947 655 c 1
 -909 655 -893 635 -896 615 c 1
 -900 590 -921 570 -945 570 c 1
EndSplineSet
Fore
SplineSet
45 340 m 1
 45 370 l 1
 125 392 l 1
 150 390 l 1
 297 390 l 1
 285 340 l 1
 45 340 l 1
120 -85 m 2
 104 -190 25 -260 -40 -260 c 1
 -70 -260 -90 -245 -90 -225 c 1
 -90 -201 -69 -180 -45 -180 c 1
 -20 -180 -16 -198 6 -198 c 1
 26 -198 41 -170 52 -95 c 2
 134 455 l 2
 152 577 250 655 325 655 c 1
 350 655 370 640 370 620 c 1
 370 595 347 570 323 570 c 1
 296 570 289 592 265 592 c 1
 236 592 218 540 206 465 c 2
 120 -85 l 2
EndSplineSet
EndChar

StartChar: O
Encoding: 79 79 18
Width: 655
Flags: HW
AnchorPoint: "accent_above_cap" 390 650 basechar 0
LayerCount: 2
Back
SplineSet
148 315 m 0
 121 155 188 29 310 29 c 0
 428 29 526 130 552 285 c 0
 579 445 512 572 390 572 c 0
 272 572 174 470 148 315 c 0
53 297 m 0
 82 469 242 612 404 612 c 0
 568 612 676 482 647 307 c 0
 618 135 458 -12 296 -12 c 0
 132 -12 24 122 53 297 c 0
-598 315 m 0
 -598 155 -505 29 -375 29 c 0
 -250 29 -162 130 -162 285 c 0
 -162 445 -255 572 -385 572 c 0
 -510 572 -598 470 -598 315 c 0
-695 297 m 0
 -695 469 -550 612 -378 612 c 0
 -203 612 -65 482 -65 307 c 0
 -65 135 -210 -12 -382 -12 c 0
 -557 -12 -695 122 -695 297 c 0
EndSplineSet
Fore
SplineSet
127 255 m 0
 127 120 193 33 298 33 c 0
 433 33 543 175 543 345 c 0
 543 480 477 568 372 568 c 0
 237 568 127 425 127 255 c 0
35 247 m 0
 35 447 212 612 387 612 c 0
 537 612 635 507 635 357 c 0
 635 157 458 -12 283 -12 c 0
 133 -12 35 97 35 247 c 0
EndSplineSet
EndChar

StartChar: t
Encoding: 116 116 19
Width: 295
Flags: HW
LayerCount: 2
Back
SplineSet
45 380 m 1
 115 390 l 1
 300 390 l 1
 295 345 l 1
 45 345 l 1
 45 380 l 1
217 500 m 1
 140 115 l 2
 133 80 137 64 152 64 c 3
 176 64 212 79 257 113 c 1
 275 88 l 1
 210 23 142 -10 107 -10 c 0
 69 -10 54 25 68 95 c 2
 120 355 l 1
 167 500 l 1
 217 500 l 1
-203 500 m 1
 -280 115 l 2
 -287 80 -287 62 -273 62 c 3
 -253 62 -223 75 -173 115 c 1
 -155 90 l 1
 -230 18 -285 -10 -320 -10 c 0
 -355 -10 -365 30 -355 80 c 2
 -300 355 l 1
 -253 500 l 1
 -203 500 l 1
-375 380 m 1
 -305 390 l 1
 -125 390 l 1
 -130 345 l 1
 -375 345 l 1
 -375 380 l 1
-203 500 m 1
 -291 60 l 1
 -180 115 l 1
 -165 87 l 1
 -275 12 -305 -10 -335 -10 c 0
 -363 -10 -367 20 -358 65 c 2
 -300 355 l 1
 -253 500 l 1
 -203 500 l 1
EndSplineSet
Fore
SplineSet
45 378 m 1
 120 390 l 1
 300 390 l 1
 295 343 l 1
 45 343 l 1
 45 378 l 1
217 500 m 1
 140 115 l 2
 133 80 138 62 155 62 c 3
 179 62 217 79 257 113 c 1
 275 88 l 1
 215 23 147 -10 110 -10 c 0
 70 -10 54 25 68 95 c 2
 120 355 l 1
 167 500 l 1
 217 500 l 1
EndSplineSet
EndChar

StartChar: H
Encoding: 72 72 20
Width: 740
Flags: HW
LayerCount: 2
Back
SplineSet
165 340 m 1
 570 340 l 1
 570 295 l 1
 165 295 l 1
 165 340 l 1
475 600 m 1
 710 600 l 1
 710 560 l 1
 475 560 l 1
 475 600 l 1
475 40 m 1
 710 40 l 1
 710 0 l 1
 475 0 l 1
 475 40 l 1
635 590 m 1
 635 10 l 1
 550 10 l 1
 550 590 l 1
 635 590 l 1
25 600 m 1
 260 600 l 1
 260 560 l 1
 25 560 l 1
 25 600 l 1
25 40 m 1
 260 40 l 1
 260 0 l 1
 25 0 l 1
 25 40 l 1
185 590 m 1
 185 10 l 1
 100 10 l 1
 100 590 l 1
 185 590 l 1
EndSplineSet
Fore
SplineSet
175 340 m 1
 590 340 l 1
 590 295 l 1
 175 295 l 1
 175 340 l 1
535 600 m 1
 780 600 l 1
 775 560 l 1
 530 560 l 1
 535 600 l 1
430 40 m 1
 675 40 l 1
 670 0 l 1
 425 0 l 1
 430 40 l 1
700 590 m 1
 590 10 l 1
 505 10 l 1
 615 590 l 1
 700 590 l 1
95 600 m 1
 340 600 l 1
 335 560 l 1
 90 560 l 1
 95 600 l 1
-10 40 m 1
 235 40 l 1
 230 0 l 1
 -15 0 l 1
 -10 40 l 1
260 590 m 1
 150 10 l 1
 65 10 l 1
 175 590 l 1
 260 590 l 1
EndSplineSet
EndChar

StartChar: I
Encoding: 73 73 21
Width: 300
Flags: HW
AnchorPoint: "accent_above_cap" 225 650 basechar 0
LayerCount: 2
Back
SplineSet
20 600 m 1
 265 600 l 1
 265 560 l 1
 20 560 l 1
 20 600 l 1
20 40 m 1
 265 40 l 1
 265 0 l 1
 20 0 l 1
 20 40 l 1
185 590 m 1
 185 10 l 1
 100 10 l 1
 100 590 l 1
 185 590 l 1
20 600 m 1
 265 600 l 1
 265 560 l 1
 20 560 l 1
 20 600 l 1
20 40 m 1
 265 40 l 1
 265 0 l 1
 20 0 l 1
 20 40 l 1
185 590 m 1
 185 10 l 1
 100 10 l 1
 100 590 l 1
 185 590 l 1
EndSplineSet
Fore
SplineSet
95 600 m 1
 340 600 l 1
 335 560 l 1
 90 560 l 1
 95 600 l 1
-10 40 m 1
 235 40 l 1
 230 0 l 1
 -15 0 l 1
 -10 40 l 1
260 590 m 1
 150 10 l 1
 65 10 l 1
 175 590 l 1
 260 590 l 1
EndSplineSet
EndChar

StartChar: L
Encoding: 76 76 22
Width: 470
Flags: HW
LayerCount: 2
Back
SplineSet
95 600 m 1
 340 600 l 1
 335 560 l 1
 90 560 l 1
 95 600 l 1
-10 40 m 1
 90 40 l 1
 130 45 l 1
 295 45 l 1
 350 45 372 60 432 190 c 1
 467 190 l 1
 400 0 l 1
 -15 0 l 1
 -10 40 l 1
260 590 m 1
 150 10 l 1
 65 10 l 1
 175 590 l 1
 260 590 l 1
EndSplineSet
Fore
SplineSet
95 600 m 1
 340 600 l 1
 335 560 l 1
 90 560 l 1
 95 600 l 1
-10 40 m 1
 90 40 l 1
 130 45 l 1
 285 45 l 1
 340 45 367 60 432 175 c 1
 467 175 l 1
 390 0 l 1
 -15 0 l 1
 -10 40 l 1
260 590 m 1
 150 10 l 1
 65 10 l 1
 175 590 l 1
 260 590 l 1
EndSplineSet
EndChar

StartChar: E
Encoding: 69 69 23
Width: 490
Flags: HW
AnchorPoint: "accent_above_cap" 295 652 basechar 0
LayerCount: 2
Back
SplineSet
-11 0 m 1
 -4 40 l 1
 85 40 l 1
 152 75 l 1
 149 55 156 45 175 45 c 1
 307 45 l 1
 354 45 372 59 423 164 c 1
 456 164 l 1
 398 0 l 1
 -11 0 l 1
89 600 m 1
 493 600 l 1
 472 455 l 1
 439 455 l 1
 445 545 436 556 394 556 c 1
 213 556 l 9
 171 560 l 17
 82 560 l 1
 89 600 l 1
179 295 m 1
 186 338 l 1
 306 338 l 1
 334 338 343 346 350 388 c 1
 353 405 l 1
 385 405 l 1
 354 215 l 1
 321 215 l 1
 326 245 l 1
 333 287 327 295 299 295 c 1
 179 295 l 1
236 580 m 1
 143 20 l 1
 63 20 l 1
 156 580 l 1
 236 580 l 1
EndSplineSet
Fore
SplineSet
180 295 m 1
 185 338 l 1
 305 338 l 1
 333 338 343 346 350 388 c 2
 353 405 l 1
 385 405 l 1
 353 215 l 1
 320 215 l 1
 325 245 l 2
 332 287 325 295 297 295 c 1
 180 295 l 1
95 600 m 1
 495 600 l 1
 480 456 l 1
 445 456 l 1
 447 541 435 556 400 556 c 1
 210 556 l 1
 180 560 l 1
 90 560 l 1
 95 600 l 1
-10 40 m 1
 90 40 l 1
 130 45 l 1
 330 45 l 1
 380 45 397 60 447 165 c 1
 482 165 l 1
 425 0 l 1
 -15 0 l 1
 -10 40 l 1
260 590 m 1
 150 10 l 1
 65 10 l 1
 175 590 l 1
 260 590 l 1
EndSplineSet
EndChar

StartChar: g
Encoding: 103 103 24
Width: 405
Flags: HW
LayerCount: 2
Back
SplineSet
138 110 m 1
 165 105 l 1
 157 96 147 80 147 68 c 3
 147 46 171 33 235 1 c 0
 325 -44 352 -67 352 -112 c 3
 352 -194 245 -260 115 -260 c 3
 23 -260 -60 -215 -60 -155 c 3
 -60 -100 -3 -63 122 -15 c 1
 152 -35 l 1
 67 -70 15 -105 15 -145 c 3
 15 -190 65 -222 135 -222 c 3
 215 -222 280 -182 280 -135 c 3
 280 -100 240 -83 180 -53 c 0
 120 -23 80 -5 80 30 c 3
 80 52 108 85 138 110 c 1
275 375 m 1
 400 375 l 1
 400 329 l 1
 295 329 l 1
 275 375 l 1
115 230 m 0
 115 172 137 136 172 136 c 0
 222 136 265 198 265 270 c 0
 265 328 243 364 208 364 c 0
 158 364 115 302 115 230 c 0
40 226 m 0
 40 311 120 400 215 400 c 0
 287 400 340 346 340 274 c 0
 340 189 260 100 165 100 c 0
 93 100 40 154 40 226 c 0
EndSplineSet
Fore
SplineSet
138 110 m 1
 165 105 l 1
 157 96 147 80 147 68 c 3
 147 46 171 33 235 1 c 0
 325 -44 352 -67 352 -112 c 3
 352 -194 245 -260 115 -260 c 3
 23 -260 -60 -215 -60 -155 c 3
 -60 -100 -3 -63 122 -15 c 1
 152 -35 l 1
 67 -70 15 -105 15 -145 c 3
 15 -190 65 -222 135 -222 c 3
 215 -222 280 -182 280 -135 c 3
 280 -100 240 -83 180 -53 c 0
 120 -23 80 -5 80 30 c 3
 80 52 108 85 138 110 c 1
275 375 m 1
 400 375 l 1
 400 329 l 1
 295 329 l 1
 275 375 l 1
119 228 m 0
 119 173 137 136 173 136 c 0
 220 136 261 197 261 272 c 0
 261 327 243 364 207 364 c 0
 160 364 119 303 119 228 c 0
45 226 m 0
 45 311 123 400 215 400 c 0
 285 400 335 346 335 274 c 0
 335 189 257 100 165 100 c 0
 95 100 45 154 45 226 c 0
EndSplineSet
EndChar

StartChar: e
Encoding: 101 101 25
Width: 325
Flags: HW
AnchorPoint: "accent_above" 220 455 basechar 0
LayerCount: 2
Back
SplineSet
222 400 m 3
 267 400 307 370 307 325 c 3
 307 255 230 205 85 180 c 1
 90 212 l 1
 195 232 240 270 240 320 c 0
 240 340 223 358 203 358 c 3
 143 358 85 250 85 140 c 3
 85 85 115 55 150 55 c 3
 188 55 220 75 245 110 c 9
 268 90 l 1
 233 30 177 -10 120 -10 c 0
 60 -10 15 35 15 120 c 0
 15 260 122 400 222 400 c 3
-100 400 m 3
 -55 400 -15 370 -15 325 c 3
 -15 250 -90 205 -235 180 c 1
 -230 212 l 1
 -125 232 -80 270 -80 320 c 0
 -80 340 -95 360 -115 360 c 3
 -175 360 -235 245 -235 140 c 3
 -235 85 -205 55 -170 55 c 3
 -132 55 -100 75 -75 110 c 9
 -52 90 l 1
 -87 30 -143 -10 -200 -10 c 0
 -260 -10 -305 35 -305 120 c 0
 -305 255 -200 400 -100 400 c 3
-437 400 m 3
 -395 400 -365 377 -365 350 c 3
 -365 328 -383 310 -405 310 c 3
 -420 310 -429 321 -436 332 c 0
 -443 342 -451 350 -465 350 c 3
 -520 350 -581 235 -581 135 c 3
 -581 90 -555 54 -523 54 c 3
 -485 54 -457 71 -427 106 c 9
 -405 85 l 17
 -445 25 -495 -10 -555 -10 c 0
 -610 -10 -655 35 -655 120 c 0
 -655 255 -547 400 -437 400 c 3
EndSplineSet
Fore
SplineSet
232 400 m 3
 277 400 317 370 317 325 c 3
 317 255 240 205 95 180 c 1
 100 212 l 1
 205 232 250 270 250 320 c 0
 250 340 233 358 213 358 c 3
 153 358 95 250 95 140 c 3
 95 85 125 55 160 55 c 3
 198 55 230 75 255 110 c 9
 278 90 l 1
 243 30 187 -10 130 -10 c 0
 70 -10 25 35 25 120 c 0
 25 260 132 400 232 400 c 3
EndSplineSet
EndChar

StartChar: s
Encoding: 115 115 26
Width: 290
Flags: HW
LayerCount: 2
Back
SplineSet
705 280 m 3
 705 340 775 400 850 400 c 3
 900 400 930 383 930 355 c 3
 930 335 912 315 892 315 c 3
 862 315 857 352 815 352 c 3
 795 352 775 335 775 315 c 3
 775 260 885 187 885 117 c 3
 885 55 814 -10 730 -10 c 3
 672 -10 645 12 645 42 c 3
 645 62 665 80 685 80 c 3
 720 80 723 38 765 38 c 3
 789 38 810 58 810 80 c 3
 810 140 705 210 705 280 c 3
75 275 m 3
 75 339 150 400 215 400 c 3
 260 400 288 380 288 355 c 3
 288 335 270 315 250 315 c 3
 220 315 217 350 182 350 c 3
 160 350 141 330 141 308 c 3
 141 258 238 195 238 125 c 3
 238 55 163 -10 83 -10 c 3
 41 -10 10 12 10 42 c 3
 10 62 30 80 50 80 c 3
 80 80 85 42 120 42 c 3
 145 42 170 63 170 88 c 3
 170 140 75 203 75 275 c 3
730 -200 m 3
 730 -140 805 -80 875 -80 c 3
 925 -80 955 -99 955 -127 c 3
 955 -147 937 -165 915 -165 c 3
 885 -165 880 -128 840 -128 c 3
 820 -128 800 -145 800 -165 c 3
 800 -220 910 -293 910 -363 c 3
 910 -425 835 -490 755 -490 c 3
 700 -490 670 -470 670 -440 c 3
 670 -420 691 -400 715 -400 c 3
 750 -400 752 -443 790 -443 c 3
 815 -443 835 -422 835 -400 c 3
 835 -340 730 -270 730 -200 c 3
428 285 m 3
 428 340 494 400 559 400 c 3
 601 400 632 380 632 355 c 3
 632 335 615 315 595 315 c 3
 567 315 564 352 530 352 c 3
 510 352 495 336 495 318 c 3
 495 263 590 185 590 115 c 3
 590 55 523 -10 443 -10 c 3
 401 -10 370 12 370 42 c 3
 370 62 390 80 410 80 c 3
 440 80 445 42 480 42 c 3
 505 42 520 58 520 80 c 3
 520 137 428 215 428 285 c 3
732 -680 m 3
 732 -624 809 -560 876 -560 c 3
 920 -560 954 -579 954 -604 c 3
 954 -624 937 -640 915 -640 c 3
 887 -640 881 -604 843 -604 c 3
 819 -604 799 -623 799 -645 c 3
 799 -706 909 -773 909 -844 c 3
 909 -905 832 -970 754 -970 c 3
 704 -970 671 -950 671 -920 c 3
 671 -900 693 -881 715 -881 c 3
 748 -881 750 -927 788 -927 c 3
 816 -927 838 -904 838 -879 c 3
 838 -818 732 -751 732 -680 c 3
430 -200 m 3
 430 -145 499 -81 559 -81 c 3
 599 -81 630 -100 630 -125 c 3
 630 -145 615 -162 595 -162 c 3
 568 -162 565 -125 530 -125 c 3
 510 -125 493 -140 493 -160 c 3
 493 -220 588 -290 588 -360 c 3
 588 -420 518 -488 443 -488 c 3
 401 -488 372 -467 372 -440 c 3
 372 -420 392 -402 412 -402 c 3
 442 -402 445 -440 480 -440 c 3
 505 -440 520 -422 520 -400 c 3
 520 -340 430 -270 430 -200 c 3
-265 280 m 3
 -265 342 -197 400 -127 400 c 3
 -82 400 -55 380 -55 355 c 3
 -55 335 -73 315 -93 315 c 3
 -123 315 -120 350 -155 350 c 3
 -179 350 -200 335 -200 312 c 3
 -200 255 -102 190 -102 120 c 3
 -102 55 -172 -10 -252 -10 c 3
 -294 -10 -325 12 -325 42 c 3
 -325 62 -305 80 -285 80 c 3
 -255 80 -253 42 -218 42 c 3
 -193 42 -170 60 -170 85 c 3
 -170 142 -265 208 -265 280 c 3
-580 280 m 3
 -580 335 -511 399 -451 399 c 3
 -411 399 -380 380 -380 355 c 3
 -380 335 -395 320 -415 320 c 3
 -440 320 -445 355 -480 355 c 3
 -502 355 -520 337 -520 315 c 3
 -520 255 -422 185 -422 115 c 3
 -422 55 -490 -8 -560 -8 c 3
 -605 -8 -635 12 -635 42 c 3
 -635 62 -615 80 -595 80 c 3
 -565 80 -565 35 -530 35 c 3
 -505 35 -485 55 -485 80 c 3
 -485 140 -580 210 -580 280 c 3
-917 299 m 1
 -908 353 -852 401 -798 399 c 1
 -770 398 -738 386 -721 368 c 1
 -732 280 l 1
 -759 282 l 17
 -761 314 l 2
 -763 341 -777 362 -809 363 c 1
 -837 364 -858 342 -862 316 c 1
 -865 296 -859 278 -809 234 c 0
 -752 183 -742 152 -750 104 c 1
 -760 44 -818 -12 -882 -9 c 1
 -906 -8 -945 4 -962 21 c 1
 -953 120 l 1
 -927 119 l 25
 -923 82 l 2
 -920 52 -902 29 -872 28 c 1
 -840 27 -815 54 -809 89 c 1
 -805 111 -813 130 -863 174 c 0
 -916 221 -925 254 -917 299 c 1
EndSplineSet
Fore
SplineSet
62 283 m 3
 62 343 132 400 205 400 c 3
 255 400 285 383 285 355 c 3
 285 335 267 315 247 315 c 3
 217 315 212 352 170 352 c 3
 150 352 130 335 130 315 c 3
 130 260 237 183 237 115 c 3
 237 53 167 -10 85 -10 c 3
 27 -10 0 12 0 42 c 3
 0 62 20 80 40 80 c 3
 75 80 78 38 120 38 c 3
 144 38 165 58 165 80 c 3
 165 140 62 213 62 283 c 3
EndSplineSet
EndChar

StartChar: c
Encoding: 99 99 27
Width: 315
Flags: HW
AnchorPoint: "accent_below" 135 25 basechar 0
LayerCount: 2
Back
SplineSet
238 400 m 3
 280 400 310 376 310 350 c 3
 310 328 292 310 270 310 c 3
 255 310 246 321 239 332 c 0
 232 342 224 351 210 351 c 3
 155 351 94 235 94 135 c 3
 94 90 120 54 152 54 c 3
 190 54 218 71 248 106 c 9
 270 85 l 17
 230 25 180 -10 120 -10 c 0
 65 -10 20 35 20 120 c 0
 20 255 128 400 238 400 c 3
-102 400 m 3
 -60 400 -30 377 -30 350 c 3
 -30 328 -48 310 -70 310 c 3
 -85 310 -93 321 -100 332 c 0
 -107 343 -115 350 -130 350 c 3
 -188 350 -246 235 -246 135 c 3
 -246 90 -220 54 -188 54 c 3
 -150 54 -122 71 -92 106 c 9
 -70 85 l 17
 -110 25 -160 -10 -220 -10 c 0
 -275 -10 -320 35 -320 120 c 0
 -320 255 -212 400 -102 400 c 3
-440 400 m 3
 -395 400 -367 378 -367 353 c 3
 -367 329 -386 310 -410 310 c 3
 -433 310 -431 350 -468 350 c 3
 -528 350 -591 235 -591 135 c 3
 -591 90 -567 54 -530 54 c 3
 -495 54 -467 71 -437 106 c 9
 -415 85 l 17
 -455 25 -505 -10 -565 -10 c 0
 -620 -10 -665 35 -665 120 c 0
 -665 255 -550 400 -440 400 c 3
-800 400 m 3
 -755 400 -722 380 -722 355 c 3
 -722 331 -741 312 -765 312 c 3
 -788 312 -786 355 -822 355 c 3
 -892 355 -951 235 -951 135 c 3
 -951 90 -927 54 -890 54 c 3
 -855 54 -827 71 -797 106 c 9
 -775 85 l 17
 -815 25 -865 -10 -925 -10 c 0
 -980 -10 -1025 40 -1025 125 c 0
 -1025 250 -910 400 -800 400 c 3
-1150 400 m 3
 -1105 400 -1072 380 -1072 350 c 3
 -1072 326 -1091 307 -1115 307 c 3
 -1138 307 -1136 350 -1172 350 c 3
 -1242 350 -1301 245 -1301 145 c 3
 -1301 90 -1273 54 -1233 54 c 3
 -1201 54 -1172 71 -1142 106 c 9
 -1120 85 l 17
 -1160 25 -1210 -10 -1270 -10 c 0
 -1325 -10 -1375 40 -1375 125 c 0
 -1375 250 -1260 400 -1150 400 c 3
EndSplineSet
Fore
SplineSet
243 400 m 3
 285 400 315 376 315 350 c 3
 315 328 297 310 275 310 c 3
 260 310 251 321 244 332 c 0
 237 342 229 352 215 352 c 3
 161 352 99 235 99 135 c 3
 99 90 125 54 157 54 c 3
 195 54 223 71 253 106 c 9
 275 85 l 17
 235 25 185 -10 125 -10 c 0
 70 -10 25 35 25 120 c 0
 25 255 133 400 243 400 c 3
EndSplineSet
EndChar

StartChar: v
Encoding: 118 118 28
Width: 385
Flags: HW
LayerCount: 2
Back
SplineSet
175 50 m 17
 260 135 301 188 301 268 c 3
 301 318 278 335 278 365 c 3
 278 385 297 410 325 410 c 3
 355 410 375 370 375 320 c 3
 375 195 305 125 165 -10 c 1
 175 50 l 17
140 -10 m 1
 85 329 l 1
 15 275 l 1
 -3 305 l 1
 77 385 93 400 120 400 c 0
 140 400 150 383 155 353 c 2
 200 60 l 1
 165 -10 l 1
 140 -10 l 1
EndSplineSet
Fore
SplineSet
175 50 m 17
 260 135 301 188 301 268 c 3
 301 318 278 335 278 365 c 3
 278 385 297 410 325 410 c 3
 355 410 375 370 375 320 c 3
 375 195 305 125 165 -10 c 1
 175 50 l 17
140 -10 m 1
 96 285 l 2
 92.2652847877 310.039567901 88 324 78 324 c 3
 64 324 37 308 15 284 c 1
 -5 310 l 1
 45 370 94 400 122 400 c 0
 141 400 155 380 160 345 c 2
 200 55 l 1
 165 -10 l 1
 140 -10 l 1
EndSplineSet
EndChar

StartChar: J
Encoding: 74 74 29
Width: 300
Flags: HW
LayerCount: 2
Back
SplineSet
95 600 m 1
 340 600 l 1
 335 560 l 1
 90 560 l 1
 95 600 l 1
128 -90 m 1
 93 -160 37 -217 -53 -257 c 1
 -65 -227 l 1
 5 -188 36 -135 50 -65 c 2
 185 590 l 1
 270 590 l 1
 128 -90 l 1
95 600 m 1
 340 600 l 1
 335 560 l 1
 90 560 l 1
 95 600 l 1
260 590 m 1
 150 10 l 1
 65 10 l 1
 175 590 l 1
 260 590 l 1
63 -65 m 1
 138 -95 l 1
 102 -170 31 -227 -44 -257 c 1
 -53 -227 l 1
 14 -192 51 -135 63 -65 c 1
98 600 m 1
 323 600 l 1
 317 560 l 1
 91 560 l 1
 98 600 l 1
251 590 m 1
 138 -95 l 1
 63 -65 l 1
 171 590 l 1
 251 590 l 1
EndSplineSet
Fore
SplineSet
95 600 m 1
 340 600 l 1
 335 560 l 1
 90 560 l 1
 95 600 l 1
124 -110 m 1
 89 -175 32 -222 -53 -257 c 1
 -65 -227 l 1
 5 -188 36 -135 50 -65 c 2
 185 590 l 1
 270 590 l 1
 124 -110 l 1
EndSplineSet
EndChar

StartChar: F
Encoding: 70 70 30
Width: 435
Flags: HW
LayerCount: 2
Back
SplineSet
25 600 m 1
 467 600 l 1
 465 450 l 1
 430 450 l 1
 423 542 410 556 365 556 c 1
 165 556 l 9
 120 560 l 17
 25 560 l 1
 25 600 l 1
175 275 m 1
 175 318 l 1
 313 318 l 1
 345 318 355 326 355 368 c 1
 355 390 l 1
 390 390 l 1
 390 190 l 1
 355 190 l 1
 355 225 l 1
 355 267 345 275 313 275 c 1
 175 275 l 1
25 40 m 1
 280 40 l 1
 280 0 l 1
 25 0 l 1
 25 40 l 1
185 580 m 1
 185 20 l 1
 100 20 l 1
 100 580 l 1
 185 580 l 1
EndSplineSet
Fore
SplineSet
-5 40 m 1
 255 40 l 1
 250 0 l 1
 -10 0 l 1
 -5 40 l 1
180 295 m 1
 185 338 l 1
 305 338 l 1
 333 338 343 346 350 388 c 2
 353 405 l 1
 385 405 l 1
 353 215 l 1
 320 215 l 1
 325 245 l 2
 332 287 325 295 297 295 c 1
 180 295 l 1
95 600 m 1
 495 600 l 1
 475 456 l 1
 440 456 l 1
 445 546 436 556 402 556 c 1
 210 556 l 1
 180 560 l 1
 90 560 l 1
 95 600 l 1
260 590 m 1
 150 10 l 1
 65 10 l 1
 175 590 l 1
 260 590 l 1
EndSplineSet
EndChar

StartChar: w
Encoding: 119 119 31
Width: 585
Flags: HW
LayerCount: 2
Back
SplineSet
282 390 m 25
 341 -10 l 25
 348 244 l 25
 282 390 l 25
136 -10 m 1
 90 285 l 2
 86 310 82 324 72 324 c 3
 58 324 31 308 9 284 c 1
 -11 310 l 1
 39 370 88 400 116 400 c 0
 135 400 149 380 154 345 c 2
 196 61 l 1
 161 -10 l 1
 136 -10 l 1
376 50 m 17
 461 135 498 187 498 265 c 3
 498 313 478 329 478 357 c 3
 478 377 498 402 526 402 c 3
 556 402 573 365 573 315 c 3
 573 193 506 125 366 -10 c 1
 376 50 l 17
355 390 m 1
 401 60 l 1
 366 -10 l 1
 341 -10 l 1
 320 165 l 1
 285 112 231 55 161 -10 c 1
 172 50 l 1
 279 155 309 220 295 305 c 2
 282 390 l 1
 355 390 l 1
-484 -10 m 1
 -530 285 l 2
 -534 310 -538 324 -548 324 c 3
 -562 324 -589 308 -611 284 c 1
 -631 310 l 1
 -581 370 -532 400 -504 400 c 0
 -485 400 -471 380 -466 345 c 2
 -424 61 l 1
 -459 -10 l 1
 -484 -10 l 1
-239 50 m 17
 -154 135 -117 187 -117 265 c 3
 -117 313 -137 329 -137 357 c 3
 -137 377 -117 402 -89 402 c 3
 -59 402 -42 365 -42 315 c 3
 -42 193 -109 125 -249 -10 c 1
 -239 50 l 17
-265 390 m 1
 -214 60 l 1
 -249 -10 l 1
 -274 -10 l 1
 -300 165 l 1
 -335 112 -389 55 -459 -10 c 1
 -448 50 l 1
 -341 155 -311 220 -325 305 c 2
 -339 390 l 1
 -265 390 l 1
EndSplineSet
Fore
SplineSet
136 -10 m 1
 95 285 l 2
 92 310 87 324 77 324 c 3
 63 324 36 308 14 284 c 1
 -6 310 l 1
 44 370 93 400 121 400 c 0
 141 400 155 382 160 342 c 2
 196 61 l 1
 161 -10 l 1
 136 -10 l 1
376 50 m 17
 461 135 498 187 498 265 c 3
 498 313 478 329 478 357 c 3
 478 377 498 402 526 402 c 3
 556 402 573 365 573 315 c 3
 573 193 506 125 366 -10 c 1
 376 50 l 17
355 390 m 1
 400 60 l 1
 366 -10 l 1
 341 -10 l 1
 318 162 l 1
 283 110 231 55 161 -10 c 1
 172 50 l 1
 278 155 308 216 296 298 c 2
 282 390 l 1
 355 390 l 1
EndSplineSet
EndChar

StartChar: x
Encoding: 120 120 32
Width: 445
Flags: HW
LayerCount: 2
Back
SplineSet
410 309 m 3
 394 309 388 323 373 323 c 1
 358 323 325 289 300 259 c 2
 243 190 l 1
 230 230 l 1
 295 310 l 2
 352 380 380 400 415 400 c 1
 437 400 452 384 452 362 c 1
 452 335 430 309 410 309 c 3
31 85 m 3
 49 85 54 68 68 68 c 1
 83 68 105 85 140 127 c 2
 204 204 l 1
 215 160 l 1
 160 92 l 2
 95 12 67 -10 27 -10 c 1
 3 -10 -15 8 -15 30 c 1
 -15 60 11 85 31 85 c 3
260 30 m 2
 132 332 l 1
 68 270 l 1
 50 300 l 1
 120 385 133 400 160 400 c 0
 180 400 189 385 200 360 c 2
 330 55 l 1
 400 127 l 1
 422 100 l 1
 352 10 331 -10 304 -10 c 0
 282 -10 271 5 260 30 c 2
EndSplineSet
Fore
SplineSet
410 309 m 3
 394 309 388 323 373 323 c 1
 358 323 325 289 300 259 c 2
 243 190 l 1
 230 230 l 1
 295 310 l 2
 352 380 380 400 415 400 c 1
 437 400 452 384 452 362 c 1
 452 335 430 309 410 309 c 3
31 85 m 3
 49 85 54 68 68 68 c 1
 83 68 105 85 140 127 c 2
 204 204 l 1
 215 160 l 1
 160 92 l 2
 95 12 67 -10 27 -10 c 1
 3 -10 -15 8 -15 30 c 1
 -15 60 11 85 31 85 c 3
255 42 m 2
 148 295 l 2
 140 315 132 330 122 330 c 3
 107 330 85 310 65 280 c 1
 40 303 l 1
 85 373 129 400 153 400 c 0
 175 400 191 381 204 351 c 2
 315 89 l 2
 323 71 330 62 338 62 c 3
 353 62 379 85 399 123 c 1
 425 100 l 1
 395 35 342 -10 310 -10 c 0
 285 -10 270 7 255 42 c 2
EndSplineSet
EndChar

StartChar: y
Encoding: 121 121 33
Width: 387
Flags: HW
AnchorPoint: "accent_above" 225 455 basechar 0
LayerCount: 2
Back
SplineSet
705 -10 m 1
 633 297 l 2
 628 317 622 324 615 324 c 3
 605 324 580 311 555 283 c 1
 535 310 l 1
 583 369 631 400 658 400 c 0
 678 400 689 385 697 350 c 2
 765 51 l 1
 705 -10 l 1
535 -215 m 1
 750 -215 l 1
 745 -250 l 1
 530 -250 l 1
 535 -215 l 1
744 50 m 1
 814 145 842 225 842 295 c 3
 842 335 820 347 820 375 c 3
 820 395 842 420 870 420 c 3
 900 420 915 390 915 345 c 3
 915 250 848 138 793 53 c 0
 775.064453125 25.28125 760 2 747 -30 c 2
 663 -235 l 1
 595 -225 l 1
 710 60 l 1
 744 50 l 1
165 -10 m 1
 92 297 l 2
 87 317 82 324 75 324 c 3
 65 324 40 310 15 280 c 1
 -5 307 l 1
 45 367 93 400 118 400 c 0
 138 400 149 385 157 350 c 2
 225 52 l 1
 165 -10 l 1
-5 -215 m 1
 210 -215 l 1
 205 -250 l 1
 -10 -250 l 1
 -5 -215 l 1
202 50 m 1
 277 138 307 225 307 295 c 3
 307 335 285 347 285 375 c 3
 285 395 307 420 335 420 c 3
 365 420 380 390 380 345 c 3
 380 247 313 138 255 53 c 0
 236 26 220 2 207 -30 c 2
 123 -235 l 1
 55 -225 l 1
 170 60 l 1
 202 50 l 1
-392 -10 m 1
 -436 285 l 2
 -439.734375 310.040039062 -444 324 -454 324 c 3
 -468 324 -495 308 -517 284 c 1
 -537 310 l 1
 -487 370 -438 400 -410 400 c 0
 -391 400 -377 380 -372 345 c 2
 -332 55 l 1
 -367 -10 l 1
 -392 -10 l 1
-365 -10 m 1
 -446 329 l 1
 -515 275 l 1
 -533 305 l 1
 -453 385 -437 400 -410 400 c 0
 -392 400 -382 387 -375 357 c 2
 -305 60 l 1
 -365 -10 l 1
-535 -215 m 1
 -320 -215 l 1
 -325 -250 l 1
 -540 -250 l 1
 -535 -215 l 1
-328 50 m 1
 -253 138 -223 225 -223 295 c 3
 -223 335 -245 347 -245 375 c 3
 -245 395 -223 420 -195 420 c 3
 -165 420 -150 390 -150 345 c 3
 -150 247 -217 138 -275 53 c 0
 -294 26 -310 2 -323 -30 c 2
 -407 -235 l 1
 -475 -225 l 1
 -360 60 l 1
 -328 50 l 1
EndSplineSet
Fore
SplineSet
165 -10 m 1
 93 297 l 2
 88 317 82 324 75 324 c 3
 65 324 40 311 15 283 c 1
 -5 310 l 1
 43 369 91 400 118 400 c 0
 138 400 149 385 157 350 c 2
 225 51 l 1
 165 -10 l 1
-5 -215 m 1
 210 -215 l 1
 205 -250 l 1
 -10 -250 l 1
 -5 -215 l 1
202 50 m 1
 274 140 305 225 305 295 c 3
 305 335 283 347 283 375 c 3
 283 395 305 420 333 420 c 3
 363 420 378 390 378 345 c 3
 378 248 310 138 253 53 c 0
 235 26 220 2 207 -30 c 2
 122 -235 l 1
 55 -227 l 1
 170 58 l 1
 202 50 l 1
EndSplineSet
EndChar

StartChar: V
Encoding: 86 86 34
Width: 490
Flags: HW
LayerCount: 2
Back
SplineSet
1110 600 m 1
 1290 600 l 1
 1285 560 l 1
 1105 560 l 1
 1110 600 l 1
705 600 m 1
 940 600 l 1
 935 560 l 1
 700 560 l 1
 705 600 l 1
845 -18 m 1
 770 585 l 1
 858 585 l 1
 915 85 l 1
 845 -18 l 1
1184 590 m 1
 1242 590 l 1
 877 -18 l 1
 845 -18 l 1
 877 70 l 1
 1184 590 l 1
410 600 m 1
 590 600 l 1
 585 560 l 1
 405 560 l 1
 410 600 l 1
5 600 m 1
 240 600 l 1
 235 560 l 1
 0 560 l 1
 5 600 l 1
160 -18 m 1
 70 585 l 1
 160 585 l 1
 230 75 l 1
 160 -18 l 1
485 590 m 1
 545 590 l 1
 192 -18 l 1
 160 -18 l 1
 192 70 l 1
 485 590 l 1
-480 -18 m 1
 -575 590 l 1
 -482 585 l 1
 -410 75 l 1
 -480 -18 l 1
-615 600 m 1
 -408 600 l 1
 -416 560 l 1
 -623 560 l 1
 -615 600 l 1
-147 590 m 1
 -91 590 l 1
 -447 -18 l 1
 -480 -18 l 1
 -444 70 l 1
 -147 590 l 1
-220 600 m 1
 -46 600 l 1
 -54 560 l 1
 -228 560 l 1
 -220 600 l 1
EndSplineSet
Fore
SplineSet
410 600 m 1
 590 600 l 1
 585 560 l 1
 405 560 l 1
 410 600 l 1
5 600 m 1
 240 600 l 1
 235 560 l 1
 0 560 l 1
 5 600 l 1
155 -18 m 1
 70 585 l 1
 158 585 l 1
 225 80 l 1
 155 -18 l 1
485 590 m 1
 542 590 l 1
 187 -18 l 1
 155 -18 l 1
 187 70 l 1
 485 590 l 1
EndSplineSet
EndChar

StartChar: z
Encoding: 122 122 35
Width: 395
Flags: HW
LayerCount: 2
Back
SplineSet
125 398 m 0
 150 398 205 385 320 360 c 1
 265 306 l 1
 110 335 l 1
 77 290 l 1
 50 308 l 1
 90 378 105 398 125 398 c 0
270 45 m 3
 295 45 313 60 313 80 c 0
 313 102 300 111 300 128 c 3
 300 148 321 165 343 165 c 3
 363 165 378 147 378 122 c 0
 378 57 305 -10 225 -10 c 0
 175 -10 125 25 65 45 c 1
 120 100 l 1
 170 75 235 45 270 45 c 3
380 376 m 1
 20 -15 l 1
 -9 14 l 1
 350 405 l 1
 380 376 l 1
EndSplineSet
Fore
SplineSet
135 398 m 0
 160 398 210 385 320 357 c 1
 265 305 l 1
 190 325 140 337 120 337 c 3
 105 337 87 325 67 300 c 1
 40 320 l 1
 82 380 110 398 135 398 c 0
270 45 m 3
 295 45 313 60 313 80 c 0
 313 102 300 111 300 128 c 3
 300 148 320 165 342 165 c 3
 362 165 377 147 377 122 c 0
 377 58 308 -8 230 -8 c 0
 180 -8 128 25 68 45 c 1
 115 100 l 1
 165 75 235 45 270 45 c 3
380 376 m 1
 20 -15 l 1
 -9 14 l 1
 350 405 l 1
 380 376 l 1
EndSplineSet
EndChar

StartChar: zero
Encoding: 48 48 36
Width: 470
Flags: HW
LayerCount: 2
Back
SplineSet
1195 165 m 0
 1195 285 1305 400 1425 400 c 0
 1530 400 1595 330 1595 225 c 0
 1595 105 1485 -10 1365 -10 c 0
 1260 -10 1195 60 1195 165 c 0
1270 170 m 0
 1270 90 1310 35 1375 35 c 0
 1448 35 1520 115 1520 220 c 0
 1520 300 1480 355 1415 355 c 0
 1342 355 1270 275 1270 170 c 0
965 235 m 0
 965 295 922 337 860 337 c 0
 755 337 685 240 685 155 c 0
 685 95 728 53 790 53 c 0
 895 53 965 150 965 235 c 0
625 165 m 0
 625 285 735 400 855 400 c 0
 960 400 1025 330 1025 225 c 0
 1025 105 915 -10 795 -10 c 0
 690 -10 625 60 625 165 c 0
385 200 m 0
 385 270 325 320 235 320 c 0
 150 320 85 260 85 190 c 0
 85 120 145 70 235 70 c 0
 320 70 385 130 385 200 c 0
35 165 m 0
 35 285 145 400 265 400 c 0
 370 400 435 330 435 225 c 0
 435 105 325 -10 205 -10 c 0
 100 -10 35 60 35 165 c 0
1270 -279 m 0
 1270 -185 1338 -93 1413 -93 c 0
 1478 -93 1519 -148 1519 -231 c 0
 1519 -325 1451 -416 1376 -416 c 0
 1311 -416 1270 -362 1270 -279 c 0
959 -191 m 0
 949 -137 900 -105 841 -115 c 0
 738 -133 676 -235 691 -319 c 0
 701 -373 750 -405 809 -395 c 0
 912 -377 974 -275 959 -191 c 0
968 -745 m 0
 968 -690 925 -650 865 -650 c 0
 760 -650 682 -740 682 -825 c 0
 682 -880 725 -920 785 -920 c 0
 890 -920 968 -830 968 -745 c 0
625 -815 m 0
 625 -695 735 -580 855 -580 c 0
 960 -580 1025 -650 1025 -755 c 0
 1025 -875 915 -990 795 -990 c 0
 690 -990 625 -920 625 -815 c 0
970 -1281 m 0
 970 -1226 925 -1186 865 -1186 c 0
 760 -1186 680 -1271 680 -1351 c 0
 680 -1406 725 -1446 785 -1446 c 0
 890 -1446 970 -1361 970 -1281 c 0
-184 184 m 0
 -173 248 -225 297 -309 312 c 0
 -398 328 -474 275 -486 206 c 0
 -497 142 -445 93 -361 78 c 0
 -272 62 -196 115 -184 184 c 0
-535 165 m 0
 -535 285 -425 400 -305 400 c 0
 -200 400 -135 330 -135 225 c 0
 -135 105 -245 -10 -365 -10 c 0
 -470 -10 -535 60 -535 165 c 0
-686 190 m 0
 -674 260 -728 315 -824 315 c 0
 -901 315 -973 265 -984 200 c 0
 -996 130 -942 75 -846 75 c 0
 -769 75 -697 125 -686 190 c 0
-1032 195 m 0
 -1013 310 -910 400 -800 400 c 0
 -690 400 -619 310 -638 195 c 0
 -657 80 -760 -10 -870 -10 c 0
 -980 -10 -1051 80 -1032 195 c 0
EndSplineSet
Fore
SplineSet
375 233 m 0
 375 295 329 337 267 337 c 0
 167 337 95 242 95 157 c 0
 95 95 141 53 203 53 c 0
 303 53 375 148 375 233 c 0
35 165 m 0
 35 285 145 400 265 400 c 0
 370 400 435 330 435 225 c 0
 435 105 325 -10 205 -10 c 0
 100 -10 35 60 35 165 c 0
EndSplineSet
EndChar

StartChar: one
Encoding: 49 49 37
Width: 314
Flags: HW
LayerCount: 2
Back
SplineSet
14 38 m 1
 259 38 l 1
 253 0 l 1
 8 0 l 1
 14 38 l 1
62 340 m 1
 228 404 l 1
 238 404 l 1
 172 20 l 1
 99 20 l 1
 150 315 l 1
 57 310 l 1
 62 340 l 1
EndSplineSet
Fore
SplineSet
72 390 m 1
 302 390 l 1
 297 352 l 1
 67 352 l 1
 72 390 l 1
17 38 m 1
 247 38 l 1
 242 0 l 1
 12 0 l 1
 17 38 l 1
222 365 m 1
 162 20 l 1
 92 20 l 1
 152 365 l 1
 222 365 l 1
EndSplineSet
EndChar

StartChar: hyphen
Encoding: 45 45 38
Width: 250
Flags: HW
LayerCount: 2
Back
SplineSet
30 240 m 1
 220 240 l 1
 220 180 l 1
 30 180 l 1
 30 240 l 1
EndSplineSet
Fore
SplineSet
30 220 m 1
 220 265 l 1
 220 205 l 1
 30 160 l 1
 30 220 l 1
EndSplineSet
EndChar

StartChar: A
Encoding: 65 65 39
Width: 505
Flags: HW
AnchorPoint: "accent_above_cap" 350 650 basechar 0
LayerCount: 2
Back
SplineSet
130 259 m 1
 341 259 l 1
 342 215 l 1
 111 215 l 1
 130 259 l 1
90 0 m 1
 -90 0 l 1
 -85 40 l 1
 95 40 l 1
 90 0 l 1
490 0 m 1
 255 0 l 1
 260 40 l 1
 495 40 l 1
 490 0 l 1
357 617 m 1
 420 15 l 1
 335 15 l 1
 290 510 l 1
 357 617 l 1
15 10 m 1
 -40 10 l 1
 322 617 l 1
 357 617 l 1
 325 535 l 1
 15 10 l 1
-520 270 m 1
 -309 270 l 1
 -308 225 l 1
 -539 225 l 1
 -520 270 l 1
-565 0 m 1
 -739 0 l 1
 -731 40 l 1
 -557 40 l 1
 -565 0 l 1
-156 0 m 1
 -368 0 l 1
 -360 40 l 1
 -148 40 l 1
 -156 0 l 1
-297 625 m 1
 -201 10 l 1
 -292 15 l 1
 -367 542 l 1
 -307 625 l 1
 -297 625 l 1
-638 10 m 1
 -695 10 l 1
 -372 587 l 1
 -307 625 l 1
 -362 522 l 1
 -638 10 l 1
EndSplineSet
Fore
SplineSet
130 254 m 1
 351 254 l 1
 352 210 l 1
 111 210 l 1
 130 254 l 1
90 0 m 1
 -90 0 l 1
 -85 40 l 1
 95 40 l 1
 90 0 l 1
500 0 m 1
 265 0 l 1
 270 40 l 1
 505 40 l 1
 500 0 l 1
367 617 m 1
 430 15 l 1
 345 15 l 1
 300 510 l 1
 367 617 l 1
15 10 m 1
 -40 10 l 1
 332 617 l 1
 367 617 l 1
 340 542 l 1
 15 10 l 1
EndSplineSet
EndChar

StartChar: T
Encoding: 84 84 40
Width: 465
Flags: HW
LayerCount: 2
Back
SplineSet
77 555 m 1
 45 555 29 540 17 455 c 1
 -20 455 l 1
 -10 625 l 1
 25 625 l 1
 25 605 35 600 55 600 c 1
 425 600 l 1
 450 600 465 605 465 625 c 1
 500 625 l 1
 505 455 l 1
 468 455 l 1
 461 545 445 555 410 555 c 1
 77 555 l 1
115 40 m 1
 370 40 l 1
 370 0 l 1
 115 0 l 1
 115 40 l 1
285 580 m 1
 285 20 l 1
 200 20 l 1
 200 580 l 1
 285 580 l 1
EndSplineSet
Fore
SplineSet
122 555 m 1
 90 555 72 540 52 455 c 1
 15 455 l 1
 45 630 l 1
 82 630 l 1
 82 608 92 600 112 600 c 1
 463 600 l 1
 488 600 500 608 503 630 c 1
 540 630 l 1
 525 455 l 1
 488 455 l 1
 488 542 480 555 440 555 c 1
 122 555 l 1
65 40 m 1
 310 40 l 1
 305 0 l 1
 60 0 l 1
 65 40 l 1
330 588 m 1
 225 12 l 1
 140 12 l 1
 245 588 l 1
 330 588 l 1
EndSplineSet
EndChar

StartChar: U
Encoding: 85 85 41
Width: 650
Flags: HW
AnchorPoint: "accent_above_cap" 420 650 basechar 0
LayerCount: 2
Back
SplineSet
255 590 m 1
 180 195 l 2
 160 90 205 40 295 40 c 3
 405 40 473.471679688 102.287109375 495 217 c 2
 565 590 l 1
 615 590 l 1
 542 208 l 2
 514 63 415 -12 265 -12 c 3
 140 -12 70 63 92 178 c 2
 170 590 l 1
 255 590 l 1
485 600 m 1
 695 600 l 1
 690 560 l 1
 480 560 l 1
 485 600 l 1
90 600 m 1
 335 600 l 1
 330 560 l 1
 85 560 l 1
 90 600 l 1
-340 600 m 1
 -130 600 l 1
 -135 560 l 1
 -345 560 l 1
 -340 600 l 1
-210 590 m 1
 -325 -12 l 1
 -365 30 l 1
 -260 590 l 1
 -210 590 l 1
-735 600 m 1
 -490 600 l 1
 -495 560 l 1
 -740 560 l 1
 -735 600 l 1
-570 590 m 1
 -680 10 l 1
 -765 10 l 1
 -655 590 l 1
 -570 590 l 1
-756 600 m 1
 -526 600 l 1
 -533 560 l 1
 -763 560 l 1
 -756 600 l 1
-601 590 m 1
 -668 200 l 2
 -685 100 -627 42 -539 42 c 3
 -436 42 -359 99 -342 200 c 2
 -275 590 l 1
 -229 590 l 1
 -295 205 l 2
 -317 80 -431 -12 -568 -12 c 3
 -690 -12 -774 70 -755 180 c 2
 -684 590 l 1
 -601 590 l 1
-344 600 m 1
 -153 600 l 1
 -160 560 l 1
 -351 560 l 1
 -344 600 l 1
EndSplineSet
Fore
SplineSet
250 590 m 1
 176 200 l 2
 156 95 211 40 301 40 c 3
 411 40 479 107 501 222 c 2
 570 590 l 1
 620 590 l 1
 547 208 l 2
 520 68 421 -12 271 -12 c 3
 141 -12 67 73 89 188 c 2
 165 590 l 1
 250 590 l 1
490 600 m 1
 700 600 l 1
 695 560 l 1
 485 560 l 1
 490 600 l 1
85 600 m 1
 330 600 l 1
 325 560 l 1
 80 560 l 1
 85 600 l 1
EndSplineSet
EndChar

StartChar: B
Encoding: 66 66 42
Width: 510
Flags: HW
LayerCount: 2
Back
SplineSet
305 600 m 1
 415 600 485 555 485 485 c 3
 485 413 425 358 360 338 c 1
 426 323 478 275 478 200 c 3
 478 100 380 0 245 0 c 1
 -15 0 l 1
 -10 40 l 1
 100 40 l 1
 165 89 l 1
 160 61 176 42 208 42 c 1
 240 42 l 1
 320 42 385 105 385 190 c 3
 385 255 345 306 265 306 c 1
 195 306 l 1
 205 348 l 1
 275 348 l 1
 350 348 398 405 398 470 c 3
 398 520 365 558 295 558 c 1
 240 558 l 1
 190 560 l 1
 90 560 l 1
 95 600 l 1
 305 600 l 1
260 590 m 1
 150 10 l 1
 65 10 l 1
 175 590 l 1
 260 590 l 1
-317 605 m 3
 -199 605 -131 550 -146 465 c 0
 -156 405 -198 360 -255 340 c 1
 -184 325 -134 265 -149 180 c 0
 -165 85 -256 0 -388 0 c 1
 -633 0 l 1
 -626 40 l 1
 -533 40 l 1
 -460 90 l 1
 -466 58 -451 42 -420 42 c 1
 -390 42 l 1
 -312 42 -259 85 -244 170 c 0
 -231 245 -273 306 -351 306 c 1
 -433 306 l 1
 -426 348 l 1
 -357 348 l 1
 -283 348 -244 395 -234 455 c 0
 -223 519 -257 561 -335 561 c 1
 -399 561 l 1
 -463 557 l 1
 -537 555 l 1
 -530 595 l 1
 -471 599 -371 605 -317 605 c 3
-376 580 m 1
 -472 20 l 1
 -556 20 l 1
 -459 580 l 1
 -376 580 l 1
EndSplineSet
Fore
SplineSet
305 600 m 1
 415 600 485 555 485 480 c 3
 485 413 424 355 355 335 c 1
 425 320 478 275 478 200 c 3
 478 100 380 0 245 0 c 1
 -10 0 l 1
 -5 40 l 1
 100 40 l 1
 165 89 l 1
 160 61 176 42 208 42 c 1
 240 42 l 1
 320 42 385 105 385 190 c 3
 385 255 345 306 265 306 c 1
 195 306 l 1
 205 348 l 1
 275 348 l 1
 350 348 398 405 398 470 c 3
 398 520 367 558 297 558 c 1
 240 558 l 1
 190 560 l 1
 90 560 l 1
 95 600 l 1
 305 600 l 1
260 590 m 1
 150 10 l 1
 65 10 l 1
 175 590 l 1
 260 590 l 1
EndSplineSet
EndChar

StartChar: N
Encoding: 78 78 43
Width: 680
Flags: HW
AnchorPoint: "accent_above_cap" 395 650 basechar 0
LayerCount: 2
Back
SplineSet
78 600 m 1
 235 600 l 1
 570 10 l 25
 570 0 l 1
 482 0 l 1
 200 495 l 1
 165 530 l 1
 154 548 132 561 104 561 c 1
 75 561 l 1
 78 600 l 1
510 600 m 1
 720 600 l 1
 715 560 l 1
 505 560 l 1
 510 600 l 1
640 590 m 1
 530 20 l 1
 480 10 l 1
 590 590 l 1
 640 590 l 1
-10 40 m 1
 200 40 l 1
 195 0 l 1
 -15 0 l 1
 -10 40 l 1
225 590 m 1
 115 10 l 1
 65 10 l 1
 175 585 l 1
 225 590 l 1
-692 600 m 1
 -535 600 l 1
 -200 10 l 25
 -200 0 l 1
 -290 0 l 1
 -570 495 l 1
 -605 530 l 1
 -616 548 -638 561 -666 561 c 1
 -695 561 l 1
 -692 600 l 1
-260 600 m 1
 -50 600 l 1
 -55 560 l 1
 -265 560 l 1
 -260 600 l 1
-130 590 m 1
 -240 10 l 1
 -290 10 l 1
 -180 590 l 1
 -130 590 l 1
-780 40 m 1
 -570 40 l 1
 -575 0 l 1
 -785 0 l 1
 -780 40 l 1
-545 590 m 1
 -655 10 l 1
 -705 10 l 1
 -595 590 l 1
 -545 590 l 1
-1535 40 m 1
 -1340 40 l 1
 -1347 0 l 1
 -1542 0 l 1
 -1535 40 l 1
-1337 530 m 1
 -1422 20 l 1
 -1466 20 l 1
 -1378 550 l 1
 -1337 530 l 1
-1459 600 m 1
 -1301 600 l 1
 -990 110 l 25
 -1001 -12 l 1
 -1025 -12 l 1
 -1343 495 l 1
 -1381 530 l 1
 -1392 548 -1410 561 -1436 561 c 1
 -1466 561 l 1
 -1459 600 l 1
-1035 50 m 1
 -947 580 l 1
 -903 580 l 1
 -1001 -12 l 25
 -1035 50 l 1
-1017 600 m 1
 -827 600 l 1
 -834 560 l 1
 -1024 560 l 1
 -1017 600 l 1
-2232 40 m 1
 -2025 40 l 1
 -2025 0 l 1
 -2232 0 l 1
 -2232 40 l 1
-2108 530 m 1
 -2108 20 l 1
 -2155 20 l 1
 -2155 550 l 1
 -2108 530 l 1
-2250 600 m 1
 -2082 600 l 1
 -1665 110 l 25
 -1655 -12 l 1
 -1680 -12 l 1
 -2108 495 l 1
 -2155 530 l 1
 -2170 548 -2190 561 -2218 561 c 1
 -2250 561 l 1
 -2250 600 l 1
-1702 50 m 1
 -1702 580 l 1
 -1655 580 l 1
 -1655 -12 l 25
 -1702 50 l 1
-1780 600 m 1
 -1578 600 l 1
 -1578 560 l 1
 -1780 560 l 1
 -1780 600 l 1
EndSplineSet
Fore
SplineSet
78 600 m 1
 235 600 l 1
 525 105 l 1
 525 -12 l 1
 500 -12 l 1
 200 495 l 1
 165 530 l 1
 154 548 132 561 104 561 c 1
 75 561 l 1
 78 600 l 1
510 600 m 1
 720 600 l 1
 715 560 l 1
 505 560 l 1
 510 600 l 1
640 590 m 1
 525 -12 l 1
 485 30 l 1
 590 590 l 1
 640 590 l 1
-10 40 m 1
 200 40 l 1
 195 0 l 1
 -15 0 l 1
 -10 40 l 1
225 590 m 1
 115 10 l 1
 65 10 l 1
 175 585 l 1
 225 590 l 1
EndSplineSet
EndChar

StartChar: R
Encoding: 82 82 44
Width: 525
Flags: HW
LayerCount: 2
Back
SplineSet
525 275 m 1
 605 292 l 1
 625 242 670 145 690 115 c 0
 750 25 805 -35 895 -65 c 1
 880 -100 l 1
 740 -80 665 -8 615 82 c 0
 579.979492188 145.036132812 545 220 525 275 c 1
255 275 m 9
 335 292 l 17
 355 242 400 145 420 115 c 0
 460 55 490 40 520 40 c 1
 525 40 l 1
 520 0 l 1
 485 0 l 17
 415 0 370 40 350 70 c 0
 310 130 275 220 255 275 c 9
-10 40 m 1
 235 40 l 1
 230 0 l 1
 -15 0 l 1
 -10 40 l 1
215 270 m 1
 195 270 l 1
 205 313 l 1
 220 313 l 1
 328 313 390 375 390 460 c 3
 390 510 360 558 280 558 c 1
 240 558 l 1
 190 560 l 1
 90 560 l 1
 95 600 l 1
 290 600 l 1
 410 600 475 545 475 465 c 3
 475 350 362 270 215 270 c 1
260 590 m 1
 150 10 l 1
 65 10 l 1
 175 590 l 1
 260 590 l 1
-350 275 m 9
 -270 295 l 17
 -250 245 -200 147 -170 97 c 0
 -144.029296875 53.7158203125 -105 40 -85 40 c 1
 -75 40 l 1
 -80 0 l 1
 -125 0 l 17
 -175 0 -235 25 -265 85 c 0
 -290 135 -325 210 -350 275 c 9
-600 40 m 1
 -355 40 l 1
 -360 0 l 1
 -605 0 l 1
 -600 40 l 1
-375 270 m 1
 -395 270 l 1
 -385 313 l 1
 -370 313 l 1
 -265 313 -200 375 -200 460 c 3
 -200 510 -230 558 -310 558 c 1
 -350 558 l 1
 -400 560 l 1
 -500 560 l 1
 -495 600 l 1
 -300 600 l 1
 -180 600 -115 545 -115 465 c 3
 -115 350 -225 270 -375 270 c 1
-330 590 m 1
 -440 10 l 1
 -525 10 l 1
 -415 590 l 1
 -330 590 l 1
-928 564 m 1
 -996 564 l 1
 -1061 557 l 1
 -1135 555 l 1
 -1128 595 l 1
 -1083 598 -980 605 -911 605 c 1
 -789 605 -721 545 -737 450 c 0
 -751 370 -813 318 -886 293 c 1
 -868 243 -844 192 -815 140 c 0
 -770 61 -740 35 -706 35 c 9
 -691 35 l 1
 -698 -5 l 1
 -713 -7 -732 -8 -747 -8 c 0
 -825 -8 -855 27 -881 70 c 0
 -907 112 -943 205 -958 245 c 0
 -965 265 -973 275 -993 275 c 1
 -1037 275 l 1
 -1030 315 l 1
 -976 315 l 1
 -907 315 -841 360 -827 440 c 0
 -815 510 -845 564 -928 564 c 1
-1224 40 m 1
 -994 40 l 1
 -1001 0 l 1
 -1231 0 l 1
 -1224 40 l 1
-972 590 m 1
 -1073 10 l 1
 -1156 10 l 1
 -1056 590 l 1
 -972 590 l 1
EndSplineSet
Fore
SplineSet
255 275 m 9
 335 292 l 17
 355 242 400 145 420 115 c 0
 460 55 490 40 520 40 c 1
 525 40 l 1
 520 0 l 1
 485 0 l 17
 415 0 370 40 350 70 c 0
 310 130 275 220 255 275 c 9
260 590 m 1
 150 10 l 1
 65 10 l 1
 175 590 l 1
 260 590 l 1
215 270 m 1
 195 270 l 1
 205 313 l 1
 220 313 l 1
 328 313 390 375 390 460 c 3
 390 510 360 558 280 558 c 1
 240 558 l 1
 190 560 l 1
 90 560 l 1
 95 600 l 1
 290 600 l 1
 410 600 475 545 475 465 c 3
 475 350 362 270 215 270 c 1
-10 40 m 1
 235 40 l 1
 230 0 l 1
 -15 0 l 1
 -10 40 l 1
EndSplineSet
EndChar

StartChar: P
Encoding: 80 80 45
Width: 485
Flags: HW
LayerCount: 2
Back
SplineSet
570 40 m 1
 815 40 l 1
 810 0 l 1
 565 0 l 1
 570 40 l 1
795 270 m 1
 775 270 l 1
 785 313 l 1
 800 313 l 1
 910 313 970 375 970 460 c 3
 970 510 940 558 860 558 c 1
 820 558 l 1
 770 560 l 1
 670 560 l 1
 675 600 l 1
 870 600 l 1
 990 600 1055 545 1055 465 c 3
 1055 350 945 270 795 270 c 1
840 590 m 1
 730 10 l 1
 645 10 l 1
 755 590 l 1
 840 590 l 1
279 270 m 17
 357 270 416 325 432 415 c 0
 447 500 403 562 310 562 c 1
 232 562 l 1
 167 556 l 1
 93 554 l 1
 100 594 l 1
 145 597 258 605 327 605 c 1
 459 605 540 530 522 425 c 0
 501 305 398 227 290 227 c 3
 270 227 243 230 229 235 c 1
 240 270 l 25
 279 270 l 17
4 40 m 1
 249 40 l 1
 242 0 l 1
 -3 0 l 1
 4 40 l 1
256 590 m 1
 156 10 l 1
 73 10 l 1
 173 590 l 1
 256 590 l 1
EndSplineSet
Fore
SplineSet
-10 40 m 1
 235 40 l 1
 230 0 l 1
 -15 0 l 1
 -10 40 l 1
260 240 m 1
 245 240 l 1
 245 283 l 1
 260 283 l 1
 370 283 428 350 428 442 c 3
 428 504 385 558 305 558 c 1
 240 558 l 1
 190 560 l 1
 90 560 l 1
 95 600 l 1
 315 600 l 1
 435 600 515 540 515 450 c 3
 515 325 410 240 260 240 c 1
260 590 m 1
 150 10 l 1
 65 10 l 1
 175 590 l 1
 260 590 l 1
EndSplineSet
EndChar

StartChar: Q
Encoding: 81 81 46
Width: 655
Flags: HW
LayerCount: 2
Back
SplineSet
252 -9 m 1
 252 5 l 1
 390 5 l 1
 540 -115 705 -175 850 -175 c 1
 910 -175 980 -155 1015 -130 c 1
 1032 -155 l 1
 977 -200 896 -232 806 -232 c 1
 666 -232 528 -180 378 -80 c 0
 331 -49 294 -16 252 -9 c 1
137 255 m 0
 137 120 203 33 308 33 c 0
 443 33 553 175 553 345 c 0
 553 480 487 568 382 568 c 0
 247 568 137 425 137 255 c 0
45 247 m 0
 45 447 222 612 397 612 c 0
 547 612 645 507 645 357 c 0
 645 157 468 -12 293 -12 c 0
 143 -12 45 97 45 247 c 0
-805 -8 m 1
 -805 2 l 1
 -668 2 l 1
 -503 -128 -335 -167 -190 -167 c 1
 -130 -167 -70 -152 -35 -130 c 1
 -18 -155 l 1
 -73 -200 -159 -230 -234 -230 c 1
 -384 -230 -533 -185 -675 -85 c 0
 -721 -52 -763 -15 -805 -8 c 1
-1268 -8 m 1
 -1266 4 l 1
 -1128 4 l 1
 -1035 -85 -945 -157 -851 -157 c 1
 -809 -157 -768 -150 -734 -130 c 9
 -725 -160 l 1
 -777 -200 -848 -220 -914 -220 c 1
 -1017 -220 -1086 -155 -1167 -75 c 0
 -1209 -33 -1227 -15 -1268 -8 c 1
-1368 315 m 0
 -1395 155 -1328 29 -1206 29 c 0
 -1088 29 -989 130 -963 285 c 0
 -936 445 -1003 572 -1125 572 c 0
 -1243 572 -1342 470 -1368 315 c 0
-1462 297 m 0
 -1433 469 -1274 612 -1112 612 c 0
 -948 612 -839 482 -868 307 c 0
 -897 135 -1057 -12 -1219 -12 c 0
 -1383 -12 -1491 122 -1462 297 c 0
EndSplineSet
Fore
SplineSet
242 -9 m 1
 242 5 l 1
 380 5 l 1
 530 -115 695 -175 840 -175 c 1
 900 -175 970 -155 1005 -130 c 1
 1022 -155 l 1
 967 -200 886 -232 796 -232 c 1
 656 -232 518 -180 368 -80 c 0
 321 -49 284 -16 242 -9 c 1
127 255 m 0
 127 120 193 33 298 33 c 0
 433 33 543 175 543 345 c 0
 543 480 477 568 372 568 c 0
 237 568 127 425 127 255 c 0
35 247 m 0
 35 447 212 612 387 612 c 0
 537 612 635 507 635 357 c 0
 635 157 458 -12 283 -12 c 0
 133 -12 35 97 35 247 c 0
EndSplineSet
EndChar

StartChar: K
Encoding: 75 75 47
Width: 545
Flags: HW
LayerCount: 2
Back
SplineSet
415 600 m 1
 615 600 l 1
 610 560 l 1
 410 560 l 1
 415 600 l 1
335 40 m 1
 560 40 l 1
 555 0 l 1
 330 0 l 1
 335 40 l 1
235 315 m 1
 300 370 l 1
 510 15 l 1
 405 20 l 1
 235 315 l 1
495 580 m 1
 567 580 l 1
 190 260 l 1
 205 330 l 1
 495 580 l 1
95 600 m 1
 330 600 l 1
 325 560 l 1
 90 560 l 1
 95 600 l 1
-10 40 m 1
 232 40 l 1
 227 0 l 1
 -15 0 l 1
 -10 40 l 1
260 590 m 1
 150 10 l 1
 65 10 l 1
 175 590 l 1
 260 590 l 1
-356 40 m 1
 -131 40 l 1
 -137 0 l 1
 -363 0 l 1
 -356 40 l 1
-465 315 m 1
 -391 375 l 1
 -176 30 l 1
 -279 5 l 1
 -465 315 l 1
-192 590 m 1
 -135 580 l 1
 -489 260 l 1
 -477 330 l 1
 -192 590 l 1
-274 600 m 1
 -78 600 l 1
 -85 560 l 1
 -281 560 l 1
 -274 600 l 1
-588 600 m 1
 -362 600 l 1
 -369 560 l 1
 -594 560 l 1
 -588 600 l 1
-684 40 m 1
 -454 40 l 1
 -461 0 l 1
 -691 0 l 1
 -684 40 l 1
-432 590 m 1
 -533 10 l 1
 -616 10 l 1
 -516 590 l 1
 -432 590 l 1
EndSplineSet
Fore
SplineSet
415 600 m 1
 615 600 l 1
 610 560 l 1
 410 560 l 1
 415 600 l 1
335 40 m 1
 560 40 l 1
 555 0 l 1
 330 0 l 1
 335 40 l 1
235 315 m 1
 300 370 l 1
 510 15 l 1
 405 20 l 1
 235 315 l 1
495 580 m 1
 567 580 l 1
 190 260 l 1
 205 330 l 1
 495 580 l 1
95 600 m 1
 330 600 l 1
 325 560 l 1
 90 560 l 1
 95 600 l 1
-10 40 m 1
 232 40 l 1
 227 0 l 1
 -15 0 l 1
 -10 40 l 1
260 590 m 1
 150 10 l 1
 65 10 l 1
 175 590 l 1
 260 590 l 1
EndSplineSet
EndChar

StartChar: Y
Encoding: 89 89 48
Width: 495
Flags: HW
AnchorPoint: "accent_above_cap" 330 650 basechar 0
LayerCount: 2
Back
SplineSet
225 280 m 1
 70 590 l 1
 165 590 l 1
 290 335 l 1
 290 280 l 1
 225 280 l 1
500 585 m 1
 560 585 l 1
 300 290 l 1
 275 290 l 1
 275 325 l 1
 500 585 l 1
35 600 m 1
 250 600 l 1
 245 560 l 1
 30 560 l 1
 35 600 l 1
415 600 m 1
 600 600 l 1
 595 560 l 1
 410 560 l 1
 415 600 l 1
90 40 m 1
 335 40 l 1
 330 0 l 1
 85 0 l 1
 90 40 l 1
310 326 m 1
 250 10 l 1
 165 10 l 1
 225 326 l 1
 310 326 l 1
-591 40 m 1
 -346 40 l 1
 -351 0 l 1
 -596 0 l 1
 -591 40 l 1
-321 590 m 1
 -431 10 l 1
 -516 10 l 1
 -406 590 l 1
 -321 590 l 1
-269 600 m 1
 -87 600 l 1
 -94 560 l 1
 -276 560 l 1
 -269 600 l 1
-653 600 m 1
 -437 600 l 1
 -444 560 l 1
 -660 560 l 1
 -653 600 l 1
-468 280 m 1
 -626 590 l 1
 -523 590 l 1
 -399 342 l 1
 -468 280 l 1
-381 310 m 1
 -432 10 l 1
 -513 10 l 1
 -463 310 l 1
 -381 310 l 1
-585 40 m 1
 -350 40 l 1
 -357 0 l 1
 -592 0 l 1
 -585 40 l 1
-183 590 m 1
 -122 590 l 1
 -383 300 l 1
 -468 280 l 1
 -399 342 l 1
 -183 590 l 1
EndSplineSet
Fore
SplineSet
220 280 m 1
 65 590 l 1
 160 590 l 1
 285 335 l 1
 285 280 l 1
 220 280 l 1
492 585 m 1
 555 585 l 1
 295 288 l 1
 270 288 l 1
 270 325 l 1
 492 585 l 1
27 600 m 1
 247 600 l 1
 242 560 l 1
 22 560 l 1
 27 600 l 1
407 600 m 1
 597 600 l 1
 592 560 l 1
 402 560 l 1
 407 600 l 1
85 40 m 1
 330 40 l 1
 325 0 l 1
 80 0 l 1
 85 40 l 1
305 328 m 1
 245 10 l 1
 160 10 l 1
 220 328 l 1
 305 328 l 1
EndSplineSet
EndChar

StartChar: W
Encoding: 87 87 49
Width: 800
Flags: HW
LayerCount: 2
Back
SplineSet
730 600 m 1
 910 600 l 1
 905 560 l 1
 725 560 l 1
 730 600 l 1
350 600 m 1
 580 600 l 1
 575 560 l 1
 345 560 l 1
 350 600 l 1
500 -18 m 1
 410 585 l 1
 498 585 l 1
 570 75 l 1
 500 -18 l 1
805 590 m 1
 864 590 l 1
 532 -18 l 1
 500 -18 l 1
 530 75 l 1
 805 590 l 1
5 600 m 1
 240 600 l 1
 235 560 l 1
 0 560 l 1
 5 600 l 1
150 -18 m 1
 68 585 l 1
 158 585 l 1
 220 80 l 1
 150 -18 l 1
445 530 m 1
 475 480 l 1
 182 -18 l 1
 150 -18 l 1
 182 70 l 1
 445 530 l 1
-301 600 m 1
 -121 600 l 1
 -126 560 l 1
 -306 560 l 1
 -301 600 l 1
-706 600 m 1
 -471 600 l 1
 -476 560 l 1
 -711 560 l 1
 -706 600 l 1
-551 -18 m 1
 -641 585 l 1
 -551 585 l 1
 -481 75 l 1
 -551 -18 l 1
-226 590 m 1
 -166 590 l 1
 -519 -18 l 1
 -551 -18 l 1
 -519 70 l 1
 -226 590 l 1
-651 600 m 1
 -471 600 l 1
 -476 560 l 1
 -656 560 l 1
 -651 600 l 1
-1056 600 m 1
 -821 600 l 1
 -826 560 l 1
 -1061 560 l 1
 -1056 600 l 1
-901 -18 m 1
 -991 585 l 1
 -901 585 l 1
 -831 75 l 1
 -901 -18 l 1
-576 590 m 1
 -516 590 l 1
 -869 -18 l 1
 -901 -18 l 1
 -869 70 l 1
 -576 590 l 1
EndSplineSet
Fore
SplineSet
720 600 m 1
 900 600 l 1
 895 560 l 1
 715 560 l 1
 720 600 l 1
340 600 m 1
 570 600 l 1
 565 560 l 1
 335 560 l 1
 340 600 l 1
490 -18 m 1
 400 585 l 1
 488 585 l 1
 560 75 l 1
 490 -18 l 1
795 590 m 1
 854 590 l 1
 522 -18 l 1
 490 -18 l 1
 520 75 l 1
 795 590 l 1
5 600 m 1
 240 600 l 1
 235 560 l 1
 0 560 l 1
 5 600 l 1
150 -18 m 1
 68 585 l 1
 158 585 l 1
 220 80 l 1
 150 -18 l 1
445 525 m 1
 475 480 l 1
 182 -18 l 1
 150 -18 l 1
 182 70 l 1
 445 525 l 1
EndSplineSet
EndChar

StartChar: C
Encoding: 67 67 50
Width: 570
Flags: HW
AnchorPoint: "accent_below_cap" 310 25 basechar 0
LayerCount: 2
Back
SplineSet
412 568 m 0
 262 568 138 425 138 255 c 0
 138 120 218 33 328 33 c 0
 413 33 471 70 505 130 c 10
 525 165 l 25
 560 165 l 25
 510 28 l 17
 450 0 378 -12 313 -12 c 0
 153 -12 45 97 45 247 c 0
 45 447 237 612 427 612 c 0
 502 612 565 595 610 570 c 9
 588 430 l 25
 555 430 l 17
 560 520 522 568 412 568 c 0
-350 -12 m 3
 -529 -12 -640 122 -610 302 c 0
 -581 474 -412 612 -229 612 c 3
 -159 612 -93 595 -50 570 c 1
 -64 430 l 25
 -97 430 l 1
 -98 480 -108 505 -123 525 c 0
 -142 550 -182 570 -243 570 c 3
 -379 570 -486 470 -513 310 c 0
 -538 160 -464 31 -332 31 c 3
 -247 31 -190 70 -156 125 c 10
 -131 165 l 1
 -96 165 l 25
 -154 27 l 17
 -207 0 -289 -12 -350 -12 c 3
EndSplineSet
Fore
SplineSet
405 568 m 0
 253 568 128 425 128 255 c 0
 128 120 208 33 318 33 c 0
 405 33 457 67 485 127 c 10
 505 170 l 25
 540 170 l 25
 500 28 l 17
 440 0 368 -12 303 -12 c 0
 143 -12 35 97 35 247 c 0
 35 447 227 612 417 612 c 0
 492 612 555 595 600 570 c 9
 573 430 l 25
 540 430 l 1
 548 520 517 568 405 568 c 0
EndSplineSet
EndChar

StartChar: D
Encoding: 68 68 51
Width: 650
Flags: HW
LayerCount: 2
Back
SplineSet
249 43 m 0
 395 43 502 140 528 295 c 0
 555 460 472 565 317 565 c 1
 270 565 199 561 156 557 c 1
 85 554 l 1
 92 594 l 1
 159 600 265 607 335 607 c 3
 542 607 652 487 624 317 c 0
 595 145 456 0 238 0 c 0
 -7 0 l 1
 -0 40 l 1
 89 40 l 1
 159 93 l 1
 154 62 168 43 202 43 c 1
 249 43 l 0
240 580 m 1
 147 20 l 1
 67 20 l 1
 160 580 l 1
 240 580 l 1
EndSplineSet
Fore
SplineSet
260 0 m 1
 -15 0 l 1
 -10 40 l 1
 95 40 l 9
 167 99 l 17
 160 62 185 43 215 43 c 9
 265 43 l 1
 410 43 535 180 535 350 c 0
 535 480 452 558 322 558 c 1
 225 558 l 1
 200 560 l 1
 90 560 l 1
 95 600 l 1
 337 600 l 1
 502 600 630 510 630 360 c 0
 630 160 455 0 260 0 c 1
260 590 m 1
 150 10 l 1
 65 10 l 1
 175 590 l 1
 260 590 l 1
EndSplineSet
EndChar

StartChar: comma
Encoding: 44 44 52
Width: 220
Flags: HW
LayerCount: 2
Back
SplineSet
87 -30 m 3
 87 -70 53 -107 11 -122 c 1
 23 -155 l 1
 93 -133 163 -68 163 10 c 3
 163 59 138 95 103 95 c 0
 78 95 53 70 53 48 c 0
 53 11 87 14 87 -30 c 3
345 -35 m 3
 345 -70 302 -110 260 -125 c 1
 268 -160 l 1
 340 -137 420 -70 420 10 c 3
 420 60 395 98 355 98 c 0
 328 98 305 75 305 50 c 0
 305 10 345 15 345 -35 c 3
144.586914062 10 m 0
 124.586914062 19 112.586914062 30 112.586914062 50 c 0
 112.586914062 75 136.586914062 98 164.586914062 98 c 0
 204.586914062 98 244.586914062 60 244.586914062 0 c 3
 244.586914062 -70 189.586914062 -131 117.586914062 -154 c 1
 104.586914062 -122 l 1
 146.586914062 -107 176.586914062 -70 176.586914062 -35 c 3
 176.586914062 -15 166.586914062 0 144.586914062 10 c 0
EndSplineSet
Fore
SplineSet
85 -30 m 3
 85 15 50 10 50 50 c 0
 50 75 76 98 102 98 c 0
 139 98 165 62 165 12 c 3
 165 -70 89 -137 15 -160 c 1
 5 -125 l 1
 47 -110 85 -70 85 -30 c 3
EndSplineSet
EndChar

StartChar: exclam
Encoding: 33 33 53
Width: 260
Flags: HW
LayerCount: 2
Back
SplineSet
48 42 m 0
 53 70 79 93 105 93 c 0
 131 93 149 70 144 42 c 0
 139 14 114 -9 88 -9 c 0
 62 -9 43 14 48 42 c 0
202 620 m 17
 226 620 237 607 233 585 c 1
 226 545 176 340 134 170 c 9
 102 170 l 1
 116 340 132 545 139 585 c 1
 143 607 159 620 183 620 c 9
 202 620 l 17
EndSplineSet
Fore
SplineSet
64 34 m 0
 64 64 92 93 120 93 c 0
 144 93 161 75 161 50 c 0
 161 20 133 -9 105 -9 c 0
 81 -9 64 9 64 34 c 0
212 620 m 17
 232 620 243 610 243 595 c 3
 243 565 200 425 145 170 c 9
 110 170 l 1
 130 390 147 548 155 588 c 0
 159 608 170 620 195 620 c 9
 212 620 l 17
EndSplineSet
EndChar

StartChar: G
Encoding: 71 71 54
Width: 620
Flags: HW
LayerCount: 2
Back
SplineSet
555 270 m 1
 516 35 l 1
 443 60 l 1
 477 270 l 1
 555 270 l 1
397 280 m 1
 618 280 l 1
 612 240 l 1
 391 240 l 1
 397 280 l 1
294 -12 m 0
 124 -12 12 122 41 297 c 0
 70 474 239 612 422 612 c 0
 497 612 558 595 601 570 c 1
 582 432 l 1
 549 432 l 1
 552 477 542 505 527 525 c 0
 508 550 475 570 409 570 c 0
 277 570 162 465 135 305 c 0
 109 150 183 32 310 32 c 0
 362 32 407 45 443 65 c 1
 516 35 l 1
 455 5 362 -12 294 -12 c 0
EndSplineSet
Fore
SplineSet
390 260 m 1
 610 260 l 1
 605 220 l 1
 385 220 l 1
 390 260 l 1
552 250 m 1
 517 37 l 1
 440 37 l 1
 475 250 l 1
 552 250 l 1
450 98 m 1
 517 37 l 1
 452 2 380 -12 310 -12 c 0
 150 -12 35 90 35 245 c 0
 35 445 222 612 415 612 c 0
 487 612 548 595 593 568 c 1
 578 435 l 25
 545 435 l 1
 547 525 514 569 402 569 c 0
 250 569 128 422 128 252 c 0
 128 117 198 33 318 33 c 0
 378 33 443 55 450 98 c 1
EndSplineSet
EndChar

StartChar: M
Encoding: 77 77 55
Width: 780
Flags: HW
LayerCount: 2
Back
SplineSet
505 40 m 1
 750 40 l 1
 745 0 l 1
 500 0 l 1
 505 40 l 1
765 590 m 1
 665 15 l 1
 580 10 l 1
 680 585 l 1
 765 590 l 1
225 550 m 1
 95 10 l 1
 45 10 l 1
 175 550 l 1
 225 550 l 1
-30 40 m 1
 180 40 l 1
 175 0 l 1
 -35 0 l 1
 -30 40 l 1
680 600 m 1
 830 600 l 1
 825 560 l 1
 714 560 l 1
 340 0 l 1
 305 0 l 1
 340 85 l 1
 680 600 l 1
305 0 m 1
 205 500 l 2
 198 535 170 560 135 560 c 2
 95 560 l 1
 100 600 l 1
 265 600 l 1
 370 80 l 1
 305 0 l 1
-380 40 m 1
 -135 40 l 1
 -140 0 l 1
 -385 0 l 1
 -380 40 l 1
-110 590 m 1
 -220 10 l 1
 -305 10 l 1
 -195 590 l 1
 -110 590 l 1
-625 550 m 1
 -755 10 l 1
 -805 10 l 1
 -675 550 l 1
 -625 550 l 1
-880 40 m 1
 -670 40 l 1
 -675 0 l 1
 -885 0 l 1
 -880 40 l 1
-210 600 m 1
 -50 600 l 1
 -55 560 l 1
 -180 560 l 1
 -510 0 l 1
 -545 0 l 1
 -505 80 l 1
 -210 600 l 1
-545 0 m 1
 -645 500 l 2
 -652 535 -680 560 -715 560 c 2
 -755 560 l 1
 -750 600 l 1
 -585 600 l 1
 -480 80 l 1
 -545 0 l 1
-1212 40 m 1
 -972 40 l 1
 -979 0 l 1
 -1219 0 l 1
 -1212 40 l 1
-980 590 m 1
 -1054 20 l 1
 -1137 20 l 1
 -1061 600 l 1
 -980 590 l 1
-1712 40 m 1
 -1511 40 l 1
 -1518 0 l 1
 -1719 0 l 1
 -1712 40 l 1
-1476 535 m 1
 -1595 20 l 1
 -1642 20 l 1
 -1523 535 l 1
 -1476 535 l 1
-1392 -8 m 1
 -1501 495 l 1
 -1523 535 l 1
 -1530 550 -1546 560 -1575 560 c 1
 -1607 560 l 1
 -1600 600 l 1
 -1429 600 l 1
 -1319 75 l 1
 -1392 -8 l 1
-1061 600 m 1
 -895 600 l 1
 -902 560 l 1
 -1029 560 l 1
 -1357 -8 l 1
 -1392 -8 l 1
 -1352 80 l 1
 -1061 600 l 1
EndSplineSet
Fore
SplineSet
505 40 m 1
 750 40 l 1
 745 0 l 1
 500 0 l 1
 505 40 l 1
765 590 m 1
 665 15 l 1
 580 10 l 1
 680 585 l 1
 765 590 l 1
225 548 m 1
 90 10 l 1
 40 12 l 1
 175 550 l 1
 225 548 l 1
-35 40 m 1
 175 40 l 1
 170 0 l 1
 -40 0 l 1
 -35 40 l 1
680 600 m 1
 830 600 l 1
 825 560 l 1
 714 560 l 1
 340 0 l 1
 305 0 l 1
 340 85 l 1
 680 600 l 1
305 0 m 1
 205 500 l 2
 198 535 170 560 135 560 c 2
 95 560 l 1
 100 600 l 1
 267 600 l 1
 371 80 l 1
 305 0 l 1
EndSplineSet
EndChar

StartChar: S
Encoding: 83 83 56
Width: 400
Flags: HW
LayerCount: 2
Back
SplineSet
80 455 m 1
 80 535 165 614 275 614 c 1
 325 614 370 601 405 578 c 1
 395 462 l 1
 357 462 l 17
 357 485 l 2
 357 540 325 575 265 575 c 1
 205 575 158 528 158 483 c 1
 158 433 184 409 250 350 c 0
 327 282 363 240 363 170 c 1
 363 75 265 -14 145 -14 c 1
 90 -14 37 0 2 25 c 1
 12 153 l 1
 50 153 l 25
 49 130 l 18
 46 55 91 26 155 26 c 1
 225 26 280 80 280 145 c 1
 280 195 255 218 180 285 c 0
 104 353 80 390 80 455 c 1
-376 460 m 1
 -362 540 -274 614 -178 614 c 1
 -130 614 -79 600 -49 577 c 1
 -64 462 l 1
 -101 462 l 17
 -102 495 l 2
 -103 540 -134 576 -189 576 c 1
 -242 576 -288 538 -296 493 c 1
 -304 448 -291 420 -207 355 c 0
 -108 278 -85 235 -97 165 c 1
 -113 70 -212 -14 -317 -14 c 1
 -370 -14 -422 -2 -458 25 c 1
 -448 153 l 1
 -411 153 l 25
 -407 110 l 2
 -402 60 -367 25 -306 25 c 1
 -248 25 -193 70 -182 135 c 1
 -174 185 -199 215 -284 283 c 0
 -373 353 -387 395 -376 460 c 1
-840 460 m 1
 -840 540 -760 614 -660 614 c 1
 -610 614 -555 600 -520 577 c 1
 -515 462 l 1
 -553 462 l 17
 -560 495 l 2
 -569 540 -608 576 -665 576 c 1
 -720 576 -762 538 -762 493 c 1
 -762 448 -744 420 -645 355 c 0
 -528 278 -497 235 -497 165 c 1
 -497 70 -586 -14 -695 -14 c 1
 -750 -14 -806 -2 -848 25 c 1
 -860 153 l 1
 -822 153 l 25
 -810 110 l 2
 -796 60 -754 25 -690 25 c 1
 -630 25 -580 70 -580 135 c 1
 -580 185 -611 215 -712 283 c 0
 -817 353 -840 395 -840 460 c 1
EndSplineSet
Fore
SplineSet
70 453 m 0
 70 535 155 614 265 614 c 0
 315 614 357 601 392 578 c 1
 383 465 l 1
 345 465 l 1
 345 480 l 2
 345 540 310 574 250 574 c 0
 190 574 148 527 148 482 c 0
 148 436 172 410 240 350 c 0
 317 282 352 238 352 170 c 0
 352 70 257 -14 135 -14 c 0
 80 -14 30 0 -5 25 c 1
 5 153 l 1
 43 153 l 1
 38 63 80 27 150 27 c 0
 221 27 270 77 270 142 c 0
 270 190 244.947265625 218.94140625 170 286 c 0
 94 354 70 390 70 453 c 0
EndSplineSet
EndChar

StartChar: slash
Encoding: 47 47 57
Width: 340
Flags: HW
LayerCount: 2
Fore
SplineSet
10 -40 m 1
 275 640 l 1
 330 640 l 1
 65 -40 l 1
 10 -40 l 1
EndSplineSet
EndChar

StartChar: quotesingle
Encoding: 39 39 58
Width: 240
Flags: HW
LayerCount: 2
Back
SplineSet
206 620 m 17
 230 620 238 610 235 595 c 1
 229 560 211 500 176 385 c 9
 147 385 l 1
 151 500 152 560 158 595 c 1
 161 610 172 620 196 620 c 9
 206 620 l 17
EndSplineSet
Fore
SplineSet
190 620 m 9
 203 620 l 17
 218 620 229 613 229 601 c 3
 229 583 211 520 171 385 c 9
 142 385 l 17
 148 535 150 573 155 598 c 0
 158 613 172 620 190 620 c 9
EndSplineSet
EndChar

StartChar: X
Encoding: 88 88 59
Width: 580
Flags: HW
LayerCount: 2
Back
SplineSet
445 600 m 1
 635 600 l 1
 630 560 l 1
 440 560 l 1
 445 600 l 1
315 40 m 1
 555 40 l 1
 550 0 l 1
 310 0 l 1
 315 40 l 1
70 600 m 1
 300 600 l 1
 295 560 l 1
 65 560 l 1
 70 600 l 1
-25 40 m 1
 165 40 l 1
 160 0 l 1
 -30 0 l 1
 -25 40 l 1
265 300 m 1
 305 275 l 1
 71 10 l 1
 10 15 l 1
 265 300 l 1
400 10 m 1
 120 590 l 1
 215 590 l 1
 495 10 l 1
 400 10 l 1
530 590 m 1
 591 585 l 1
 335 300 l 1
 295 325 l 1
 530 590 l 1
-423 300 m 1
 -384 275 l 1
 -616 10 l 1
 -679 10 l 1
 -423 300 l 1
-243 600 m 1
 -51 600 l 1
 -58 560 l 1
 -250 560 l 1
 -243 600 l 1
-613 600 m 1
 -387 600 l 1
 -394 560 l 1
 -619 560 l 1
 -613 600 l 1
-295 10 m 1
 -576 590 l 1
 -470 590 l 1
 -188 10 l 1
 -295 10 l 1
-376 40 m 1
 -136 40 l 1
 -143 0 l 1
 -383 0 l 1
 -376 40 l 1
-717 40 m 1
 -520 40 l 1
 -527 0 l 1
 -724 0 l 1
 -717 40 l 1
-158 590 m 1
 -96 590 l 1
 -353 300 l 1
 -392 325 l 1
 -158 590 l 1
EndSplineSet
Fore
SplineSet
445 600 m 1
 635 600 l 1
 630 560 l 1
 440 560 l 1
 445 600 l 1
320 40 m 1
 560 40 l 1
 555 0 l 1
 315 0 l 1
 320 40 l 1
75 600 m 1
 305 600 l 1
 300 560 l 1
 70 560 l 1
 75 600 l 1
-30 40 m 1
 160 40 l 1
 155 0 l 1
 -35 0 l 1
 -30 40 l 1
270 310 m 1
 305 280 l 1
 66 10 l 1
 5 15 l 1
 270 310 l 1
405 10 m 1
 125 590 l 1
 220 590 l 1
 500 10 l 1
 405 10 l 1
527 590 m 1
 587 585 l 1
 325 295 l 1
 292 325 l 1
 527 590 l 1
EndSplineSet
EndChar

StartChar: Z
Encoding: 90 90 60
Width: 525
Flags: HW
LayerCount: 2
Back
SplineSet
430 556 m 17
 200 556 l 1
 165 556 150 535 125 460 c 1
 90 460 l 1
 115 600 l 1
 550 600 l 1
 550 570 l 9
 100 45 l 17
 337 45 l 1
 387 45 407 63 445 165 c 1
 480 165 l 1
 442 0 l 1
 -20 0 l 1
 -20 30 l 9
 430 556 l 17
-140 556 m 17
 -385 556 l 1
 -420 556 -438 535 -465 460 c 1
 -500 460 l 1
 -470 600 l 1
 -20 600 l 1
 -20 570 l 9
 -480 45 l 17
 -230 45 l 1
 -180 45 -160 63 -120 165 c 1
 -85 165 l 1
 -125 0 l 1
 -600 0 l 1
 -600 30 l 9
 -140 556 l 17
-762 556 m 17
 -1021 556 l 1
 -1055 556 -1073 535 -1100 460 c 1
 -1135 460 l 1
 -1100 600 l 1
 -644 600 l 1
 -649 570 l 9
 -1115 45 l 17
 -853 45 l 1
 -808 45 -793 65 -742 165 c 1
 -706 165 l 1
 -763 0 l 1
 -1235 0 l 1
 -1230 30 l 9
 -762 556 l 17
EndSplineSet
Fore
SplineSet
430 556 m 17
 205 556 l 1
 170 556 155 535 130 460 c 1
 95 460 l 1
 120 600 l 1
 550 600 l 1
 550 570 l 9
 100 45 l 17
 332 45 l 1
 382 45 402 63 440 165 c 1
 475 165 l 1
 437 0 l 1
 -20 0 l 1
 -20 30 l 9
 430 556 l 17
EndSplineSet
EndChar

StartChar: backslash
Encoding: 92 92 61
Width: 340
Flags: HW
LayerCount: 2
Back
SplineSet
310 -40 m 1
 260 -40 l 1
 10 640 l 1
 60 640 l 1
 310 -40 l 1
EndSplineSet
Fore
SplineSet
275 -40 m 1
 10 640 l 1
 65 640 l 1
 330 -40 l 1
 275 -40 l 1
EndSplineSet
EndChar

StartChar: quoteright
Encoding: 8217 8217 62
Width: 190
Flags: HW
LayerCount: 2
Back
SplineSet
489 500 m 3
 489 460 455 423 413 408 c 1
 425 375 l 1
 495 397 565 462 565 540 c 3
 565 589 540 625 505 625 c 0
 480 625 455 600 455 578 c 0
 455 541 489 544 489 500 c 3
109 500 m 0
 110 460 77 423 36 408 c 1
 49 375 l 1
 118 397 187 462 184 540 c 0
 182 589 156 625 121 625 c 0
 96 625 71 600 72 578 c 0
 73 541 107 544 109 500 c 0
EndSplineSet
Fore
SplineSet
149 500 m 3
 149 544 113 540 113 578 c 0
 113 600 136 625 161 625 c 0
 198 625 224 588 224 538 c 3
 224 463 160 397 90 375 c 1
 77 408 l 1
 117 423 149 458 149 500 c 3
EndSplineSet
EndChar

StartChar: endash
Encoding: 8211 8211 63
Width: 500
Flags: HW
LayerCount: 2
Fore
SplineSet
30 240 m 1
 470 240 l 1
 470 190 l 1
 30 190 l 1
 30 240 l 1
EndSplineSet
EndChar

StartChar: emdash
Encoding: 8212 8212 64
Width: 1000
Flags: HW
LayerCount: 2
Fore
SplineSet
30 240 m 1
 970 240 l 1
 970 190 l 1
 30 190 l 1
 30 240 l 1
EndSplineSet
EndChar

StartChar: quoteleft
Encoding: 8216 8216 65
Width: 190
Flags: HW
LayerCount: 2
Back
SplineSet
149 500 m 3
 149 458 117 423 77 408 c 1
 90 375 l 1
 160 397 224 463 224 538 c 3
 224 588 198 625 161 625 c 0
 136 625 113 600 113 578 c 0
 113 540 149 544 149 500 c 3
133 468 m 0
 153 459 165 445 165 430 c 0
 165 405 141 380 113 380 c 0
 76 380 35 418 35 478 c 3
 35 548 85 605 155 630 c 1
 170 600 l 1
 130 585 103 550 103 513 c 3
 103 493 112 477 133 468 c 0
EndSplineSet
Fore
SplineSet
133 505 m 3
 133 461 169 465 169 427 c 0
 169 405 146 380 121 380 c 0
 84 380 58 417 58 467 c 3
 58 542 122 608 192 630 c 1
 205 597 l 1
 165 582 133 547 133 505 c 3
EndSplineSet
EndChar

StartChar: quotedblleft
Encoding: 8220 8220 67
Width: 350
Flags: HW
LayerCount: 2
Back
SplineSet
309 500 m 3
 309 458 277 423 237 408 c 1
 250 375 l 1
 320 397 384 463 384 538 c 3
 384 588 358 625 321 625 c 0
 296 625 273 600 273 578 c 0
 273 540 309 544 309 500 c 3
149 500 m 3
 149 458 117 423 77 408 c 1
 90 375 l 1
 160 397 224 463 224 538 c 3
 224 588 198 625 161 625 c 0
 136 625 113 600 113 578 c 0
 113 540 149 544 149 500 c 3
EndSplineSet
Fore
SplineSet
293 505 m 3
 293 461 327 465 327 427 c 0
 327 405 304 380 280 380 c 0
 245 380 218 417 218 467 c 3
 218 542 281 607 350 630 c 1
 363 597 l 1
 326 582 293 547 293 505 c 3
133 505 m 3
 133 461 167 465 167 427 c 0
 167 405 144 380 120 380 c 0
 85 380 58 417 58 467 c 3
 58 542 121 607 190 630 c 1
 203 597 l 1
 166 582 133 547 133 505 c 3
EndSplineSet
EndChar

StartChar: quotedblright
Encoding: 8221 8221 68
Width: 350
Flags: HW
LayerCount: 2
Back
SplineSet
309 500 m 3
 309 458 277 423 237 408 c 1
 250 375 l 1
 320 397 384 463 384 538 c 3
 384 588 358 625 321 625 c 0
 296 625 273 600 273 578 c 0
 273 540 309 544 309 500 c 3
149 500 m 3
 149 458 117 423 77 408 c 1
 90 375 l 1
 160 397 224 463 224 538 c 3
 224 588 198 625 161 625 c 0
 136 625 113 600 113 578 c 0
 113 540 149 544 149 500 c 3
EndSplineSet
Fore
SplineSet
149 500 m 3
 149 544 115 540 115 578 c 0
 115 600 138 625 162 625 c 0
 197 625 224 588 224 538 c 3
 224 463 161 398 92 375 c 1
 79 408 l 1
 116 423 149 458 149 500 c 3
309 500 m 3
 309 544 275 540 275 578 c 0
 275 600 298 625 322 625 c 0
 357 625 384 588 384 538 c 3
 384 463 321 398 252 375 c 1
 239 408 l 1
 276 423 309 458 309 500 c 3
EndSplineSet
EndChar

StartChar: uni201F
Encoding: 8223 8223 69
Width: 1000
Flags: H
LayerCount: 2
Back
SplineSet
100 10 m 0
 80 19 68 30 68 50 c 0
 68 75 92 98 120 98 c 0
 160 98 200 60 200 0 c 3
 200 -70 145 -132 70 -155 c 1
 60 -122 l 1
 102 -107 132 -70 132 -35 c 3
 132 -15 122 0 100 10 c 0
EndSplineSet
EndChar

StartChar: dagger
Encoding: 8224 8224 70
Width: 240
Flags: HW
LayerCount: 2
Back
SplineSet
152 295 m 1
 169 325 177 369 180 424 c 1
 113 414 74 398 49 398 c 0
 28 398 12 416 12 437 c 0
 12 458 28 476 49 476 c 0
 74 476 112 460 182 450 c 1
 172 520 156 558 156 583 c 0
 156 604 174 620 195 620 c 0
 216 620 234 604 234 583 c 0
 234 558 218 520 208 450 c 1
 278 460 316 476 341 476 c 0
 362 476 378 458 378 437 c 0
 378 416 362 398 341 398 c 0
 316 398 277 414 210 424 c 1
 213 369 221 325 238 295 c 1
 220 250 212 160 211 50 c 1
 179 50 l 1
 176 160 170 250 152 295 c 1
EndSplineSet
Fore
SplineSet
62 45 m 0
 62 77 88 103 120 103 c 0
 152 103 178 77 178 45 c 0
 178 13 152 -13 120 -13 c 0
 88 -13 62 13 62 45 c 0
EndSplineSet
EndChar

StartChar: daggerdbl
Encoding: 8225 8225 71
Width: 240
Flags: HW
LayerCount: 2
Back
SplineSet
152 310 m 1
 169 340 178 374 181 424 c 1
 112 414 74 398 49 398 c 0
 28 398 12 416 12 437 c 0
 12 458 28 476 49 476 c 0
 74 476 112 460 182 450 c 1
 172 520 156 558 156 583 c 0
 156 604 174 620 195 620 c 0
 216 620 234 604 234 583 c 0
 234 558 218 520 208 450 c 1
 278 460 316 476 341 476 c 0
 362 476 378 458 378 437 c 0
 378 416 362 398 341 398 c 0
 316 398 278 414 209 424 c 1
 212 374 221 340 238 310 c 1
 221 280 212 246 209 196 c 1
 278 206 316 222 341 222 c 0
 362 222 378 204 378 183 c 0
 378 162 362 144 341 144 c 0
 316 144 278 160 208 170 c 1
 218 100 234 62 234 37 c 0
 234 16 216 0 195 0 c 0
 174 0 156 16 156 37 c 0
 156 62 172 100 182 170 c 1
 112 160 74 144 49 144 c 0
 28 144 12 162 12 183 c 0
 12 204 28 222 49 222 c 0
 74 222 112 206 181 196 c 1
 178 246 169 280 152 310 c 1
EndSplineSet
Fore
SplineSet
62 45 m 0
 62 77 88 103 120 103 c 0
 152 103 178 77 178 45 c 0
 178 13 152 -13 120 -13 c 0
 88 -13 62 13 62 45 c 0
EndSplineSet
EndChar

StartChar: bullet
Encoding: 8226 8226 72
Width: 240
Flags: HW
LayerCount: 2
Back
SplineSet
30 215 m 0
 30 273 77 320 135 320 c 0
 193 320 240 273 240 215 c 0
 240 157 193 110 135 110 c 0
 77 110 30 157 30 215 c 0
EndSplineSet
Fore
SplineSet
35 215 m 0
 35 262 73 300 120 300 c 0
 167 300 205 262 205 215 c 0
 205 168 167 130 120 130 c 0
 73 130 35 168 35 215 c 0
EndSplineSet
EndChar

StartChar: ellipsis
Encoding: 8230 8230 73
Width: 810
Flags: HW
LayerCount: 2
Fore
SplineSet
609 37 m 0
 609 72 641 103 675 103 c 0
 703 103 721 81 721 53 c 0
 721 18 689 -13 655 -13 c 0
 627 -13 609 9 609 37 c 0
349 37 m 0
 349 72 381 103 415 103 c 0
 443 103 461 81 461 53 c 0
 461 18 429 -13 395 -13 c 0
 367 -13 349 9 349 37 c 0
89 37 m 0
 89 72 121 103 155 103 c 0
 183 103 201 81 201 53 c 0
 201 18 169 -13 135 -13 c 0
 107 -13 89 9 89 37 c 0
EndSplineSet
EndChar

StartChar: uniFB00
Encoding: 64256 64256 74
Width: 700
Flags: HW
LayerCount: 2
Fore
SplineSet
100 500 m 1
 600 500 l 1
 600 0 l 1
 100 0 l 1
 100 500 l 1
EndSplineSet
EndChar

StartChar: uniFB01
Encoding: 64257 64257 75
Width: 700
Flags: HW
LayerCount: 2
Fore
SplineSet
100 500 m 1
 600 500 l 1
 600 0 l 1
 100 0 l 1
 100 500 l 1
EndSplineSet
EndChar

StartChar: uniFB02
Encoding: 64258 64258 76
Width: 700
Flags: HW
LayerCount: 2
Fore
SplineSet
100 500 m 1
 600 500 l 1
 600 0 l 1
 100 0 l 1
 100 500 l 1
EndSplineSet
EndChar

StartChar: uniFB03
Encoding: 64259 64259 77
Width: 700
Flags: HW
LayerCount: 2
Fore
SplineSet
100 500 m 1
 600 500 l 1
 600 0 l 1
 100 0 l 1
 100 500 l 1
EndSplineSet
EndChar

StartChar: uniFB04
Encoding: 64260 64260 78
Width: 700
Flags: HW
LayerCount: 2
Fore
SplineSet
100 500 m 1
 600 500 l 1
 600 0 l 1
 100 0 l 1
 100 500 l 1
EndSplineSet
EndChar

StartChar: colon
Encoding: 58 58 79
Width: 250
Flags: HW
LayerCount: 2
Back
SplineSet
72 37 m 0
 72 70 100 100 133 100 c 0
 159 100 178 80 178 53 c 0
 178 20 150 -10 117 -10 c 0
 91 -10 72 10 72 37 c 0
70 340 m 0
 70 370 95 395 125 395 c 0
 155 395 180 370 180 340 c 0
 180 310 155 285 125 285 c 0
 95 285 70 310 70 340 c 0
70 45 m 0
 70 75 95 100 125 100 c 0
 155 100 180 75 180 45 c 0
 180 15 155 -10 125 -10 c 0
 95 -10 70 15 70 45 c 0
EndSplineSet
Fore
SplineSet
97 332 m 0
 97 365 125 395 158 395 c 0
 184 395 203 375 203 348 c 0
 203 315 175 285 142 285 c 0
 116 285 97 305 97 332 c 0
47 37 m 0
 47 70 75 100 108 100 c 0
 134 100 153 80 153 53 c 0
 153 20 125 -10 92 -10 c 0
 66 -10 47 10 47 37 c 0
EndSplineSet
EndChar

StartChar: semicolon
Encoding: 59 59 80
Width: 250
Flags: HW
LayerCount: 2
Back
SplineSet
70 340 m 0
 70 370 95 395 125 395 c 0
 155 395 180 370 180 340 c 0
 180 310 155 285 125 285 c 0
 95 285 70 310 70 340 c 0
95 10 m 0
 75 19 63 30 63 50 c 0
 63 75 87 98 115 98 c 0
 155 98 195 60 195 0 c 3
 195 -70 140 -131 68 -154 c 1
 55 -122 l 1
 97 -107 127 -70 127 -35 c 3
 127 -15 117 0 95 10 c 0
EndSplineSet
Fore
SplineSet
86 -29 m 3
 86 16 50 10 50 50 c 0
 50 75 76 98 102 98 c 0
 139 98 164 62 164 12 c 3
 164 -68 91 -134 16 -158 c 1
 6 -123 l 1
 48 -108 86 -71 86 -29 c 3
97 332 m 0
 97 365 125 395 158 395 c 0
 184 395 203 375 203 348 c 0
 203 315 175 285 142 285 c 0
 116 285 97 305 97 332 c 0
EndSplineSet
EndChar

StartChar: quotedbl
Encoding: 34 34 81
Width: 370
Flags: HW
LayerCount: 2
Back
SplineSet
245 620 m 17
 270 620 280 610 280 595 c 1
 280 560 271 500 255 385 c 9
 225 385 l 1
 209 500 200 560 200 595 c 1
 200 610 210 620 235 620 c 9
 245 620 l 17
105 620 m 17
 130 620 140 610 140 595 c 1
 140 560 131 500 115 385 c 9
 85 385 l 1
 69 500 60 560 60 595 c 1
 60 610 70 620 95 620 c 9
 105 620 l 17
EndSplineSet
Fore
SplineSet
320 620 m 9
 333 620 l 17
 348 620 359 613 359 601 c 3
 359 583 341 520 301 385 c 9
 272 385 l 17
 278 535 280 573 285 598 c 0
 288 613 302 620 320 620 c 9
190 620 m 9
 203 620 l 17
 218 620 229 613 229 601 c 3
 229 583 211 520 171 385 c 9
 142 385 l 17
 148 535 150 573 155 598 c 0
 158 613 172 620 190 620 c 9
EndSplineSet
EndChar

StartChar: acute
Encoding: 180 180 82
Width: 250
Flags: HW
LayerCount: 2
Back
SplineSet
125 645 m 1
 200 630 l 1
 90 460 l 1
 55 460 l 1
 125 645 l 1
EndSplineSet
Fore
Refer: 139 769 N 1 0 0 1 175 0 2
EndChar

StartChar: two
Encoding: 50 50 83
Width: 400
Flags: HW
LayerCount: 2
Back
SplineSet
232 270 m 0
 238 307 213 335 179 335 c 3
 145 335 112 308 92 280 c 1
 66 300 l 1
 105 355 156 400 220 400 c 3
 284 400 329 350 319 290 c 0
 306 215 265 178 109 68 c 1
 285 68 l 1
 305 68 317 83 339 125 c 1
 373 125 l 1
 327 0 l 1
 -1 0 l 1
 4 30 l 1
 162 150 220 200 232 270 c 0
EndSplineSet
Fore
SplineSet
237 275 m 3
 237 307 215 334 180 334 c 3
 150 334 120 315 100 290 c 1
 75 313 l 1
 110 363 160 400 210 400 c 3
 270 400 320 355 320 295 c 3
 320 220 251 155 111 65 c 1
 295 65 l 1
 310 65 320 75 330 100 c 1
 365 100 l 1
 335 0 l 1
 5 0 l 1
 5 30 l 1
 157 135 237 207 237 275 c 3
EndSplineSet
EndChar

StartChar: three
Encoding: 51 51 84
Width: 365
Flags: HW
LayerCount: 2
Back
SplineSet
85 83 m 1
 75 115 l 1
 185 165 228 220 228 275 c 0
 228 307 205 335 173 335 c 0
 143 335 110 320 85 295 c 1
 65 322 l 1
 103 367 153 400 203 400 c 0
 263 400 308 360 308 300 c 0
 308 245 267 197 205 155 c 1
 260 145 310 95 310 30 c 0
 310 -120 155 -225 -15 -250 c 1
 -30 -200 l 1
 50 -195 l 1
 155 -170 230 -85 230 5 c 0
 230 60 193 98 135 98 c 0
 117 98 105 93 85 83 c 1
-305 82 m 1
 -315 112 l 1
 -205 167 -160 220 -160 275 c 3
 -160 307 -183 335 -215 335 c 3
 -245 335 -278 320 -303 295 c 1
 -325 322 l 1
 -285 367 -240 400 -185 400 c 3
 -125 400 -80 360 -80 300 c 3
 -80 243 -128 190 -190 150 c 1
 -185 150 l 1
 -135 150 -80 105 -80 35 c 3
 -80 -115 -235 -225 -405 -250 c 1
 -420 -200 l 1
 -345 -195 l 1
 -240 -170 -158 -90 -158 0 c 3
 -158 60 -195 97 -250 97 c 3
 -268 97 -285 92 -305 82 c 1
-725 80 m 1
 -735 110 l 1
 -625 170 -575 225 -575 275 c 3
 -575 310 -598 335 -630 335 c 3
 -665 335 -698 315 -718 290 c 1
 -740 315 l 1
 -705 365 -655 400 -600 400 c 3
 -540 400 -495 360 -495 300 c 3
 -495 245 -550 194 -615 149 c 1
 -612 150 -607 150 -605 150 c 0
 -555 150 -500 110 -500 40 c 3
 -500 -105 -655 -220 -825 -250 c 1
 -840 -205 l 1
 -775 -200 l 1
 -665 -175 -578 -85 -578 5 c 3
 -578 65 -615 97 -670 97 c 3
 -688 97 -705 90 -725 80 c 1
-1232 80 m 1
 -1237 110 l 1
 -1119 170 -1089 215 -1080 265 c 0
 -1073 307 -1097 338 -1134 338 c 3
 -1168 338 -1202 310 -1222 282 c 1
 -1248 302 l 1
 -1209 357 -1158 400 -1094 400 c 3
 -1030 400 -985 348 -995 288 c 0
 -1005 233 -1047 193 -1118 148 c 1
 -1112 149 -1102 150 -1096 150 c 0
 -1032 150 -989 95 -1003 15 c 0
 -1026 -120 -1171 -218 -1324 -250 c 1
 -1333 -220 l 17
 -1207 -185 -1102 -105 -1085 -5 c 0
 -1074 60 -1103 100 -1157 100 c 3
 -1184 100 -1205 92 -1232 80 c 1
EndSplineSet
Fore
SplineSet
93 90 m 1
 82 122 l 1
 192 172 228 223 228 275 c 0
 228 307 202 335 167 335 c 0
 139 335 110 319 85 295 c 1
 65 322 l 1
 103 367 153 400 203 400 c 0
 263 400 308 360 308 300 c 0
 308 245 267 195 205 155 c 1
 260 145 310 95 310 30 c 0
 310 -120 155 -225 -15 -250 c 1
 -30 -200 l 1
 50 -195 l 1
 155 -170 230 -85 230 5 c 0
 230 60 193 100 135 100 c 0
 121 100 108 97 93 90 c 1
EndSplineSet
EndChar

StartChar: four
Encoding: 52 52 85
Width: 480
Flags: HW
LayerCount: 2
Back
SplineSet
615 55 m 1
 940 405 l 25
 970 405 l 1
 870 -175 l 1
 800 -175 l 1
 878 278 l 1
 706 88 l 1
 1056 88 l 1
 1045 25 l 1
 615 25 l 1
 615 55 l 1
10 55 m 1
 355 405 l 25
 385 405 l 1
 285 -175 l 1
 215 -175 l 1
 294 284 l 1
 102 88 l 1
 461 88 l 1
 450 25 l 1
 10 25 l 1
 10 55 l 1
-530 55 m 1
 -185 405 l 25
 -155 405 l 1
 -255 -175 l 1
 -325 -175 l 1
 -245 287 l 1
 -439 88 l 1
 -79 88 l 1
 -90 25 l 1
 -530 25 l 1
 -530 55 l 1
-1070 55 m 1
 -725 405 l 25
 -695 405 l 1
 -795 -175 l 1
 -865 -175 l 1
 -785 290 l 1
 -980 88 l 1
 -619 88 l 1
 -630 25 l 1
 -1070 25 l 1
 -1070 55 l 1
-1636 55 m 1
 -1286 405 l 25
 -1257 405 l 1
 -1357 -175 l 1
 -1430 -175 l 1
 -1349 290 l 1
 -1546 90 l 1
 -1184 90 l 1
 -1195 25 l 1
 -1641 25 l 1
 -1636 55 l 1
EndSplineSet
Fore
SplineSet
15 55 m 1
 345 405 l 25
 375 405 l 1
 275 -175 l 1
 205 -175 l 1
 284 280 l 1
 105 88 l 1
 456 88 l 1
 445 25 l 1
 15 25 l 1
 15 55 l 1
EndSplineSet
EndChar

StartChar: five
Encoding: 53 53 86
Width: 345
Flags: HW
LayerCount: 2
Back
SplineSet
118 385 m 25
 350 395 l 1
 335 325 l 25
 142 317 l 1
 125 267 l 1
 215 222 285 158 285 55 c 0
 285 -75 168 -205 -22 -250 c 1
 -40 -200 l 1
 35 -190 l 1
 135 -155 204 -65 204 25 c 0
 204 115 150 165 55 205 c 1
 118 385 l 25
-315 385 m 25
 -90 395 l 1
 -105 325 l 25
 -300 315 l 1
 -315 270 l 1
 -220 220 -150 150 -150 45 c 0
 -150 -95 -272 -210 -457 -250 c 1
 -475 -203 l 1
 -400 -195 l 1
 -300 -160 -231 -75 -231 15 c 0
 -231 105 -285 160 -385 205 c 1
 -315 385 l 25
-798 390 m 25
 -558 390 l 1
 -579 320 l 25
 -775 320 l 1
 -789 280 l 1
 -668 185 -619 120 -640 0 c 0
 -662 -125 -782 -225 -933 -250 c 1
 -937 -220 l 1
 -814 -190 -737 -110 -721 -15 c 0
 -705 80 -756 145 -857 215 c 1
 -798 390 l 25
EndSplineSet
Fore
SplineSet
108 385 m 25
 340 395 l 1
 325 325 l 25
 132 317 l 1
 115 267 l 1
 205 222 275 157 275 55 c 0
 275 -75 158 -205 -32 -250 c 1
 -50 -202 l 1
 30 -189 l 1
 127 -154 194 -65 194 25 c 0
 194 114 140 165 45 205 c 1
 108 385 l 25
EndSplineSet
EndChar

StartChar: parenright
Encoding: 41 41 87
Width: 350
Flags: HW
LayerCount: 2
Back
SplineSet
-220 205 m 1
 -220 25 -323 -130 -480 -225 c 1
 -500 -197 l 1
 -383 -107 -310 20 -310 200 c 1
 -310 380 -383 507 -500 597 c 1
 -480 625 l 1
 -323 535 -220 385 -220 205 c 1
315 205 m 1
 300 25 188 -130 29 -225 c 1
 12 -197 l 1
 132 -107 213 20 228 200 c 1
 243 380 184 507 79 597 c 1
 100 625 l 1
 243 535 330 385 315 205 c 1
EndSplineSet
Fore
SplineSet
318 270 m 1
 318 75 210 -115 10 -225 c 1
 -10 -197 l 1
 145 -92 238 80 238 265 c 1
 238 405 188 507 93 597 c 1
 115 625 l 1
 240 540 318 415 318 270 c 1
EndSplineSet
EndChar

StartChar: parenleft
Encoding: 40 40 88
Width: 350
Flags: HW
LayerCount: 2
Back
SplineSet
40 195 m 1
 40 375 143 530 300 625 c 1
 320 597 l 1
 203 507 130 380 130 200 c 1
 130 20 203 -107 320 -197 c 1
 300 -225 l 1
 143 -135 40 15 40 195 c 1
EndSplineSet
Fore
SplineSet
32 130 m 1
 32 325 140 515 340 625 c 1
 360 597 l 1
 205 492 112 320 112 135 c 1
 112 -5 162 -107 257 -197 c 1
 235 -225 l 1
 110 -140 32 -15 32 130 c 1
EndSplineSet
EndChar

StartChar: bracketright
Encoding: 93 93 89
Width: 340
Flags: HW
LayerCount: 2
Back
SplineSet
131 610 m 25
 352 610 l 1
 227 -210 l 1
 6 -210 l 1
 14 -160 l 1
 164 -160 l 1
 273 560 l 25
 124 560 l 1
 131 610 l 25
-390 610 m 25
 -160 610 l 1
 -160 -210 l 1
 -390 -210 l 1
 -390 -160 l 1
 -234 -160 l 1
 -234 560 l 25
 -390 560 l 1
 -390 610 l 25
EndSplineSet
Fore
SplineSet
128 610 m 25
 350 610 l 1
 225 -210 l 1
 7 -210 l 1
 12 -160 l 1
 160 -160 l 1
 270 560 l 25
 123 560 l 1
 128 610 l 25
EndSplineSet
EndChar

StartChar: bracketleft
Encoding: 91 91 90
Width: 340
Flags: HW
LayerCount: 2
Back
SplineSet
40 610 m 25
 270 610 l 1
 270 -210 l 1
 40 -210 l 1
 40 -160 l 1
 196 -160 l 1
 196 560 l 25
 40 560 l 1
 40 610 l 25
EndSplineSet
Fore
Refer: 89 93 N -1 0 0 -1 340 400 2
EndChar

StartChar: six
Encoding: 54 54 91
Width: 460
Flags: HW
LayerCount: 2
Back
SplineSet
415 630 m 1
 430 595 l 17
 260 520 100 358 100 173 c 3
 100 98 137 37 197 37 c 3
 265 37 320 100 320 180 c 3
 320 250 280 290 230 290 c 3
 210 290 190 285 170 275 c 9
 160 305 l 17
 192 333 232 355 270 355 c 3
 345 355 405 295 405 210 c 3
 405 95 300 -10 170 -10 c 3
 75 -10 15 60 15 160 c 3
 15 370 215 560 415 630 c 1
-135 630 m 1
 -120 595 l 17
 -280 520 -450 350 -450 173 c 3
 -450 93 -413 37 -355 37 c 3
 -285 37 -230 100 -230 180 c 3
 -230 250 -270 290 -320 290 c 3
 -340 290 -360 285 -380 275 c 9
 -390 305 l 17
 -358 333 -318 355 -280 355 c 3
 -205 355 -145 295 -145 210 c 3
 -145 95 -250 -10 -380 -10 c 3
 -475 -10 -535 60 -535 160 c 3
 -535 370 -335 560 -135 630 c 1
EndSplineSet
Fore
SplineSet
445 630 m 1
 460 595 l 17
 290 520 132 358 132 168 c 3
 132 91 171 38 231 38 c 3
 298 38 350 105 350 185 c 3
 350 255 315 295 265 295 c 3
 245 295 225 290 205 280 c 9
 195 310 l 17
 227 338 267 360 305 360 c 3
 380 360 435 300 435 215 c 3
 435 100 330 -10 200 -10 c 3
 110 -10 45 55 45 155 c 3
 45 370 245 560 445 630 c 1
EndSplineSet
EndChar

StartChar: nine
Encoding: 57 57 92
Width: 460
Flags: HW
LayerCount: 2
Back
SplineSet
27 -245 m 1
 19 -210 l 17
 199 -135 319 -3 350 177 c 0
 366 272 341 357 266 357 c 3
 204 357 156 300 144 230 c 0
 131 155 166 105 220 105 c 3
 240 105 267 109 286 117 c 9
 288 88 l 17
 259 65 211 45 170 45 c 3
 96 45 39 105 55 200 c 0
 74 310 173 400 291 400 c 3
 394 400 457 310 436 190 c 0
 401 -15 241 -170 27 -245 c 1
EndSplineSet
Fore
SplineSet
15 -245 m 1
 0 -210 l 17
 175 -135 333 27 333 217 c 3
 333 292 295 353 235 353 c 3
 170 353 117 290 117 210 c 3
 117 142 155 103 202 103 c 3
 224 103 245 109 265 120 c 9
 275 90 l 17
 245 60 205 37 165 37 c 3
 90 37 32 98 32 180 c 3
 32 295 135 400 265 400 c 3
 360 400 420 330 420 228 c 3
 420 13 220 -175 15 -245 c 1
EndSplineSet
EndChar

StartChar: seven
Encoding: 55 55 93
Width: 405
Flags: HW
LayerCount: 2
Back
SplineSet
56 260 m 1
 93 390 l 1
 431 390 l 1
 426 360 l 25
 101 -240 l 1
 43 -240 l 25
 360 322 l 1
 142 322 l 1
 120 322 108 305 90 260 c 1
 56 260 l 1
EndSplineSet
Fore
SplineSet
35 280 m 1
 60 390 l 1
 400 390 l 1
 400 360 l 25
 80 -245 l 1
 15 -230 l 25
 332 324 l 1
 115 324 l 1
 95 324 84 317 69 280 c 1
 35 280 l 1
EndSplineSet
EndChar

StartChar: eight
Encoding: 56 56 94
Width: 427
Flags: HW
LayerCount: 2
Back
SplineSet
755 611 m 3
 830 611 888 555 888 490 c 3
 888 425 835 370 745 320 c 1
 720 342 l 1
 780 382 810 417 810 472 c 3
 810 522 774 563 730 563 c 3
 685 563 648 522 648 475 c 3
 648 430 670 397 738 340 c 0
 805 283 848 240 848 170 c 3
 848 73 747 -11 650 -11 c 3
 563 -11 505 50 505 125 c 3
 505 200 565 253 657 305 c 1
 680 280 l 1
 620 242 583 205 583 145 c 3
 583 85 623 38 675 38 c 3
 732 38 775 82 775 140 c 3
 775 190 742 224 675 282 c 0
 609 339 578 384 578 442 c 3
 578 527 667 611 755 611 c 3
285 611 m 3
 365 611 418 555 418 495 c 3
 418 430 360 373 270 323 c 1
 245 340 l 1
 300 380 340 433 340 485 c 3
 340 530 310 565 265 565 c 3
 220 565 177 521 177 471 c 3
 177 426 199 396 268 340 c 0
 338 283 381 240 381 170 c 3
 381 73 275 -11 180 -11 c 3
 90 -11 34 45 34 120 c 3
 34 195 95 252 185 303 c 1
 210 282 l 1
 150 242 113 195 113 130 c 3
 113 75 145 34 199 34 c 3
 258 34 305 87 305 145 c 3
 305 195 269 229 200 285 c 0
 132 340 105 384 105 442 c 3
 105 527 197 611 285 611 c 3
-155 611 m 3
 -75 611 -25 555 -25 495 c 3
 -25 430 -75 375 -165 325 c 1
 -190 345 l 1
 -130 385 -100 420 -100 475 c 3
 -100 520 -135 563 -180 563 c 3
 -225 563 -262 525 -262 475 c 3
 -262 430 -238 397 -170 340 c 0
 -103 283 -61 240 -61 170 c 3
 -61 73 -165 -11 -260 -11 c 3
 -350 -11 -405 45 -405 120 c 3
 -405 195 -345 255 -255 300 c 1
 -230 280 l 1
 -290 240 -327 205 -327 140 c 3
 -327 80 -285 37 -235 37 c 3
 -177 37 -135 82 -135 140 c 3
 -135 190 -173 227 -240 285 c 0
 -306 342 -332 384 -332 442 c 3
 -332 527 -243 611 -155 611 c 3
-625 611 m 3
 -545 611 -492 555 -492 495 c 3
 -492 430 -550 373 -640 323 c 1
 -665 340 l 1
 -610 380 -570 433 -570 485 c 3
 -570 530 -600 565 -645 565 c 3
 -690 565 -732 520 -732 470 c 3
 -732 425 -709 396 -640 340 c 0
 -570 283 -528 240 -528 170 c 3
 -528 73 -635 -11 -730 -11 c 3
 -820 -11 -876 45 -876 120 c 3
 -876 195 -815 252 -725 302 c 1
 -700 282 l 1
 -760 242 -797 195 -797 130 c 3
 -797 75 -765 34 -710 34 c 3
 -652 34 -605 87 -605 145 c 3
 -605 195 -641 229 -710 285 c 0
 -780 342 -805 384 -805 442 c 3
 -805 527 -713 611 -625 611 c 3
EndSplineSet
Fore
SplineSet
285 611 m 3
 365 611 418 555 418 495 c 3
 418 430 360 373 270 323 c 1
 245 340 l 1
 300 380 340 433 340 485 c 3
 340 530 310 565 265 565 c 3
 220 565 177 521 177 471 c 3
 177 426 199 396 268 340 c 0
 338 283 381 240 381 170 c 3
 381 73 275 -11 180 -11 c 3
 90 -11 34 45 34 120 c 3
 34 195 95 252 185 303 c 1
 210 282 l 1
 150 242 113 195 113 130 c 3
 113 75 145 34 199 34 c 3
 258 34 305 87 305 145 c 3
 305 195 269 229 200 285 c 0
 132 340 105 384 105 442 c 3
 105 527 197 611 285 611 c 3
EndSplineSet
EndChar

StartChar: thorn
Encoding: 254 254 95
Width: 400
Flags: HW
LayerCount: 2
Back
SplineSet
115 60 m 1
 127 46 152 35 174 35 c 0
 249 35 302 175 302 285 c 0
 302 313 290 338 270 338 c 0
 222 338 149 265 125 120 c 2
 115 60 l 1
145 270 m 1
 187 355 255 400 300 400 c 0
 346 400 380 360 380 300 c 0
 380 155 278 -5 160 -5 c 0
 146 -5 119 0 107 5 c 1
 69 -215 l 1
 150 -215 l 1
 145 -250 l 1
 -70 -250 l 1
 -65 -215 l 1
 -1 -215 l 1
 129 560 l 1
 85 590 l 1
 85 600 l 1
 203 640 l 1
 213 640 l 1
 145 270 l 1
-353 60 m 1
 -341 46 -318 35 -296 35 c 3
 -221 35 -168 175 -168 285 c 3
 -168 313 -180 338 -200 338 c 3
 -248 338 -319 265 -343 120 c 2
 -353 60 l 1
-535 -215 m 1
 -320 -215 l 1
 -325 -250 l 1
 -540 -250 l 1
 -535 -215 l 1
-325 270 m 1
 -283 355 -215 400 -170 400 c 0
 -124 400 -90 360 -90 300 c 0
 -90 155 -192 -5 -310 -5 c 3
 -324 -5 -351 0 -363 5 c 1
 -405 -240 l 1
 -475 -240 l 9
 -374 334 l 1
 -458 275 l 1
 -473 305 l 1
 -378 385 -355 400 -330 400 c 0
 -300 400 -301 371 -325 270 c 1
-416 75 m 2
 -336 565 l 1
 -385 595 l 1
 -385 605 l 1
 -263 640 l 1
 -253 640 l 1
 -320 260 l 1
 -268 350 -200 400 -150 400 c 0
 -104 400 -77 355 -77 305 c 0
 -77 165 -199 -10 -319 -10 c 0
 -374 -10 -423 30 -416 75 c 2
-343 90 m 2
 -347 62 -324 32 -297 32 c 0
 -222 32 -155 175 -155 285 c 0
 -155 313 -167 337 -187 337 c 0
 -237 337 -324 224 -338 125 c 2
 -343 90 l 2
EndSplineSet
Fore
SplineSet
121 60 m 1
 133 46 158 35 180 35 c 0
 255 35 308 175 308 283 c 0
 308 313 295 338 274 338 c 0
 229 338 155 265 131 120 c 2
 121 60 l 1
153 275 m 1
 195 355 259 400 306 400 c 0
 352 400 386 360 386 300 c 0
 386 155 284 -5 166 -5 c 0
 152 -5 125 0 113 5 c 1
 77 -215 l 1
 158 -215 l 1
 153 -250 l 1
 -62 -250 l 1
 -57 -215 l 1
 7 -215 l 1
 132 560 l 1
 90 590 l 1
 90 600 l 1
 206 640 l 1
 216 640 l 1
 153 275 l 1
EndSplineSet
EndChar

StartChar: Eth
Encoding: 208 208 96
Width: 650
Flags: HW
LayerCount: 2
Back
SplineSet
35 340 m 1
 290 340 l 1
 290 295 l 1
 35 295 l 1
 35 340 l 1
290 43 m 0
 445 43 542 140 542 295 c 0
 542 460 440 565 270 565 c 1
 220 565 145 561 100 557 c 1
 25 554 l 1
 25 594 l 1
 95 600 207 607 282 607 c 3
 502 607 640 487 640 317 c 0
 640 145 515 0 285 0 c 0
 25 0 l 1
 25 40 l 1
 120 40 l 1
 185 93 l 1
 185 62 204 43 240 43 c 1
 290 43 l 0
185 580 m 1
 185 20 l 1
 100 20 l 1
 100 580 l 1
 185 580 l 1
EndSplineSet
Fore
SplineSet
60 340 m 1
 320 340 l 1
 315 295 l 1
 55 295 l 1
 60 340 l 1
260 0 m 1
 -15 0 l 1
 -10 40 l 1
 95 40 l 9
 167 99 l 17
 160 62 185 43 215 43 c 9
 265 43 l 1
 412 43 535 180 535 350 c 0
 535 480 454 558 322 558 c 1
 225 558 l 1
 200 560 l 1
 90 560 l 1
 95 600 l 1
 337 600 l 1
 502 600 630 510 630 360 c 0
 630 160 455 0 260 0 c 1
260 590 m 1
 150 10 l 1
 65 10 l 1
 175 590 l 1
 260 590 l 1
EndSplineSet
EndChar

StartChar: numbersign
Encoding: 35 35 97
Width: 460
Flags: HW
LayerCount: 2
Back
SplineSet
91 355 m 1
 475 355 l 1
 467 298 l 1
 83 298 l 1
 91 355 l 1
34 142 m 1
 418 142 l 1
 410 85 l 1
 26 85 l 1
 34 142 l 1
233 -50 m 1
 401 485 l 1
 445 485 l 1
 276 -50 l 1
 233 -50 l 1
56 -50 m 1
 224 485 l 1
 267 485 l 1
 99 -50 l 1
 56 -50 l 1
-615 355 m 1
 -215 355 l 1
 -215 298 l 1
 -615 298 l 1
 -615 355 l 1
-645 142 m 1
 -245 142 l 1
 -245 85 l 1
 -645 85 l 1
 -645 142 l 1
-410 -50 m 1
 -310 485 l 1
 -265 485 l 1
 -365 -50 l 1
 -410 -50 l 1
-595 -50 m 1
 -495 485 l 1
 -450 485 l 1
 -550 -50 l 1
 -595 -50 l 1
EndSplineSet
Fore
SplineSet
85 355 m 1
 475 355 l 1
 470 298 l 1
 80 298 l 1
 85 355 l 1
30 142 m 1
 420 142 l 1
 415 85 l 1
 25 85 l 1
 30 142 l 1
238 -50 m 1
 400 485 l 1
 447 485 l 1
 285 -50 l 1
 238 -50 l 1
53 -50 m 1
 215 485 l 1
 262 485 l 1
 100 -50 l 1
 53 -50 l 1
EndSplineSet
EndChar

StartChar: guilsinglleft
Encoding: 8249 8249 98
Width: 260
Flags: HW
LayerCount: 2
Back
SplineSet
205 25 m 1
 20 185 l 1
 20 215 l 25
 205 375 l 1
 222 345 l 1
 110 200 l 1
 222 55 l 1
 205 25 l 1
EndSplineSet
Fore
Refer: 99 8250 N -1 0 0 -1 260 400 2
EndChar

StartChar: guilsinglright
Encoding: 8250 8250 99
Width: 260
Flags: HW
LayerCount: 2
Back
SplineSet
86 375 m 1
 243 215 l 1
 237 185 l 25
 24 25 l 1
 12 55 l 1
 150 200 l 1
 64 345 l 1
 86 375 l 1
EndSplineSet
Fore
SplineSet
93 375 m 25
 240 215 l 25
 240 185 l 25
 33 25 l 25
 15 53 l 25
 155 204 l 25
 70 350 l 25
 93 375 l 25
EndSplineSet
EndChar

StartChar: guillemotright
Encoding: 187 187 100
Width: 440
Flags: HW
LayerCount: 2
Back
SplineSet
247 373 m 1
 420 215 l 1
 420 185 l 25
 247 27 l 1
 230 57 l 1
 332 200 l 1
 230 343 l 1
 247 373 l 1
55 375 m 1
 230 215 l 1
 230 185 l 25
 55 25 l 1
 38 55 l 1
 142 200 l 1
 38 345 l 1
 55 375 l 1
EndSplineSet
Fore
SplineSet
278 375 m 25
 420 215 l 25
 420 185 l 25
 218 25 l 25
 200 53 l 25
 340 204 l 25
 255 350 l 25
 278 375 l 25
93 375 m 25
 235 215 l 25
 235 185 l 25
 33 25 l 25
 15 53 l 25
 155 204 l 25
 70 350 l 25
 93 375 l 25
EndSplineSet
EndChar

StartChar: guillemotleft
Encoding: 171 171 101
Width: 440
Flags: HW
LayerCount: 2
Back
SplineSet
203 27 m 1
 30 185 l 1
 30 215 l 25
 203 373 l 1
 220 343 l 1
 118 200 l 1
 220 57 l 1
 203 27 l 1
395 25 m 1
 220 185 l 1
 220 215 l 25
 395 375 l 1
 412 345 l 1
 308 200 l 1
 412 55 l 1
 395 25 l 1
EndSplineSet
Fore
Refer: 100 187 N -1 0 0 -1 440 400 2
EndChar

StartChar: question
Encoding: 63 63 102
Width: 350
Flags: HW
LayerCount: 2
Back
SplineSet
44 34 m 0
 44 64 72 93 100 93 c 0
 124 93 141 75 141 50 c 0
 141 20 113 -9 85 -9 c 0
 61 -9 44 9 44 34 c 0
165 620 m 3
 230 620 295 530 295 450 c 3
 295 390 250 345 160 235 c 9
 185 155 l 25
 155 143 l 17
 115 213 105 235 105 255 c 3
 105 275 118 290 150 330 c 0
 206 400 241 440 241 490 c 3
 241 520 224 545 198 545 c 3
 180 545 175 538 157 538 c 3
 134 538 118 558 118 578 c 3
 118 602 135 620 165 620 c 3
1065 283 m 0
 1065 333 1096 365 1165 417 c 0
 1217.39257812 456.484375 1247 480 1247 510 c 0
 1247 538 1225 560 1195 560 c 0
 1165 560 1157 535 1132 535 c 0
 1109 535 1093 553 1093 575 c 0
 1093 599 1125 615 1157 615 c 0
 1232 615 1305 562 1305 492 c 0
 1305 447 1280 412 1210 359 c 0
 1142.01269531 307.524414062 1118 289 1118 262 c 0
 1118 237 1142 217 1170 217 c 0
 1192 217 1200 235 1218 235 c 0
 1240 235 1257 218 1257 198 c 0
 1257 176 1235 160 1205 160 c 0
 1130 160 1065 218 1065 283 c 0
409 34 m 0
 409 64 437 93 465 93 c 0
 489 93 506 75 506 50 c 0
 506 20 478 -9 450 -9 c 0
 426 -9 409 9 409 34 c 0
510 610 m 0
 590 610 662 535 662 455 c 0
 662 362 582 317 532 267 c 0
 514 249 501 225 491 170 c 1
 460 170 l 1
 467 280 475 300 505 330 c 0
 525 350 609 412 609 476 c 0
 609 513 584 540 552 540 c 0
 527 540 517 529 497 529 c 0
 474 529 458 548 458 570 c 0
 458 592 480 610 510 610 c 0
-1395 273 m 0
 -1395 328 -1364 358 -1295 410 c 0
 -1242.60742188 449.484375 -1215 473 -1215 508 c 0
 -1215 536 -1240 558 -1270 558 c 0
 -1297 558 -1303 535 -1328 535 c 0
 -1351 535 -1367 553 -1367 575 c 0
 -1367 599 -1335 615 -1305 615 c 0
 -1225 615 -1158 565 -1158 490 c 0
 -1158 440 -1180 408 -1250 355 c 0
 -1317.98730469 303.524414062 -1340 284 -1340 252 c 0
 -1340 227 -1320 207 -1290 207 c 0
 -1268 207 -1260 220 -1242 220 c 0
 -1220 220 -1203 203 -1203 183 c 0
 -1203 161 -1225 145 -1255 145 c 0
 -1330 145 -1395 208 -1395 273 c 0
-155 625 m 3
 -145 625 -80 590 -80 535 c 3
 -80 490 -109 458 -146 411 c 0
 -181 366 -210 307 -210 225 c 3
 -210 180 -190 170 -190 160 c 3
 -190 150 -255 100 -265 100 c 3
 -275 100 -285 136 -285 165 c 3
 -285 277 -232 347 -190 400 c 0
 -166 430 -155 452 -155 480 c 3
 -155 540 -210 555 -210 565 c 3
 -210 575 -165 625 -155 625 c 3
-580 651 m 27
 -495 651 -449 561 -449 476 c 3
 -449 402 -511 346 -580 264 c 9
 -557 185 l 25
 -585 175 l 17
 -618 229 -635 262 -635 285 c 3
 -635 334 -503 416 -503 522 c 27
 -503 549 -521 576 -548 576 c 27
 -566 576 -575 571 -593 571 c 27
 -612 571 -625 589 -625 608 c 27
 -625 632 -604 651 -580 651 c 27
-936 170 m 1
 -945 205 -950 250 -943 285 c 0
 -936 320 -915 338 -870 353 c 2
 -840 363 l 2
 -780 383 -770 402 -764 432 c 0
 -753 487 -784 540 -831 540 c 3
 -856 540 -873 528 -892 528 c 3
 -913 528 -924 548 -919 573 c 0
 -915 595 -889 612 -861 612 c 3
 -772 612 -692 505 -715 390 c 0
 -725 340 -752 315 -812 295 c 2
 -836 287 l 2
 -878 273 -894 259 -900 230 c 0
 -904 210 -905 192 -906 170 c 9
 -936 170 l 1
-992 42 m 0
 -986 70 -960 93 -934 93 c 0
 -908 93 -890 70 -896 42 c 0
 -902 14 -929 -9 -955 -9 c 0
 -981 -9 -998 14 -992 42 c 0
-936 170 m 1
 -945 205 -950 250 -943 285 c 0
 -936 320 -915 338 -870 353 c 2
 -840 363 l 2
 -780 383 -770 402 -764 432 c 0
 -753 487 -784 540 -831 540 c 3
 -856 540 -873 528 -892 528 c 3
 -913 528 -924 548 -919 573 c 0
 -915 595 -889 612 -861 612 c 3
 -772 612 -692 505 -715 390 c 0
 -725 340 -752 315 -812 295 c 2
 -836 287 l 2
 -878 273 -894 259 -900 230 c 0
 -904 210 -905 192 -906 170 c 9
 -936 170 l 1
-992 42 m 0
 -986 70 -960 93 -934 93 c 0
 -908 93 -890 70 -896 42 c 0
 -902 14 -929 -9 -955 -9 c 0
 -981 -9 -998 14 -992 42 c 0
EndSplineSet
Fore
SplineSet
64 34 m 0
 64 64 92 93 120 93 c 0
 144 93 161 75 161 50 c 0
 161 20 133 -9 105 -9 c 0
 81 -9 64 9 64 34 c 0
100 283 m 0
 100 333 132 363 200 416 c 0
 252 456 283 480 283 512 c 0
 283 539 260 560 230 560 c 0
 198 560 192 537 167 537 c 0
 145 537 128 554 128 575 c 0
 128 600 156 615 188 615 c 0
 264 615 340 562 340 492 c 0
 340 447 315 413 245 360 c 0
 177 309 153 289 153 262 c 0
 153 237 177 218 205 218 c 0
 230 218 237 230 255 230 c 0
 275 230 292 216 292 198 c 0
 292 176 270 160 240 160 c 0
 167 160 100 219 100 283 c 0
EndSplineSet
EndChar

StartChar: percent
Encoding: 37 37 103
Width: 700
Flags: HW
LayerCount: 2
Back
SplineSet
156 450 m 0
 143 373 164 308 210 308 c 0
 250 308 287 358 299 430 c 0
 312 507 291 572 245 572 c 0
 205 572 168 522 156 450 c 0
88 440 m 0
 104 535 177 610 256 610 c 0
 335 610 383 535 367 440 c 0
 351 345 278 270 199 270 c 0
 120 270 72 345 88 440 c 0
493 170 m 0
 480 93 501 28 547 28 c 0
 587 28 623 78 635 150 c 0
 648 227 628 292 582 292 c 0
 542 292 505 242 493 170 c 0
425 160 m 0
 441 255 514 330 593 330 c 0
 672 330 719 255 703 160 c 0
 687 65 614 -10 535 -10 c 0
 456 -10 409 65 425 160 c 0
93 -40 m 1
 645 640 l 1
 698 640 l 1
 146 -40 l 1
 93 -40 l 1
EndSplineSet
Fore
SplineSet
120 410 m 0
 120 345 145 308 180 308 c 0
 225 308 270 385 270 470 c 0
 270 535 245 572 210 572 c 0
 165 572 120 495 120 410 c 0
52 405 m 0
 52 510 135 610 220 610 c 0
 295 610 338 555 338 475 c 0
 338 370 255 270 170 270 c 0
 95 270 52 325 52 405 c 0
75 -40 m 1
 605 640 l 1
 665 640 l 1
 135 -40 l 1
 75 -40 l 1
460 130 m 0
 460 65 485 28 520 28 c 0
 565 28 610 105 610 190 c 0
 610 255 585 292 550 292 c 0
 505 292 460 215 460 130 c 0
392 125 m 0
 392 230 475 330 560 330 c 0
 635 330 678 275 678 195 c 0
 678 90 595 -10 510 -10 c 0
 435 -10 392 45 392 125 c 0
EndSplineSet
EndChar

StartChar: ampersand
Encoding: 38 38 104
Width: 900
Flags: HW
LayerCount: 2
Back
SplineSet
560 430 m 3
 525 430 493 413 493 385 c 0
 493 358 510 352 510 330 c 3
 510 308 491 290 467 290 c 3
 442 290 425 312 425 342 c 0
 425 417 520 492 595 492 c 0
 640 492 710 455 805 410 c 1
 860 455 l 1
 890 435 l 1
 830 365 813 343 790 343 c 3
 780 343 769 348 755 355 c 0
 655 405 600 430 560 430 c 3
95 205 m 1
 365 570 l 1
 390 540 l 1
 120 175 l 1
 95 205 l 1
215 367 m 1
 257 424 229 465 189 465 c 3
 139 465 92 410 92 320 c 3
 92 180 180 60 340 60 c 3
 520 60 633 200 633 350 c 3
 633 390 610 430 560 430 c 9
 655 430 l 1
 670 410 680 385 680 360 c 3
 680 175 530 -10 320 -10 c 3
 145 -10 30 125 30 275 c 3
 30 415 130 520 220 520 c 3
 275 520 305 485 310 435 c 1
 215 367 l 1
-350 410 m 3
 -380 410 -409 389 -409 359 c 0
 -409 337 -395 333 -395 315 c 3
 -395 293 -413 275 -435 275 c 3
 -457 275 -475 295 -475 320 c 0
 -475 390 -385 470 -310 470 c 0
 -270 470 -195 430 -125 395 c 1
 -70 440 l 1
 -40 420 l 1
 -115 330 -131 319 -171 339 c 0
 -251 379 -310 410 -350 410 c 3
-795 195 m 1
 -520 560 l 1
 -495 530 l 1
 -770 165 l 1
 -795 195 l 1
-640 385 m 1
 -645 425 -675 455 -710 455 c 3
 -755 455 -798 400 -798 310 c 3
 -798 180 -720 60 -560 60 c 3
 -385 60 -277 180 -277 330 c 3
 -277 355 -280 380 -295 405 c 9
 -255 410 l 17
 -240 390 -230 365 -230 340 c 3
 -230 165 -370 -10 -580 -10 c 3
 -755 -10 -860 125 -860 265 c 3
 -860 410 -765 510 -670 510 c 3
 -615 510 -585 475 -580 425 c 1
 -640 385 l 1
-1230 410 m 3
 -1260 410 -1284 389 -1284 364 c 0
 -1284 342 -1270 338 -1270 320 c 3
 -1270 298 -1288 280 -1310 280 c 3
 -1332 280 -1350 300 -1350 325 c 0
 -1350 390 -1265 465 -1190 465 c 0
 -1150 465 -1080 430 -1010 395 c 1
 -955 440 l 1
 -925 420 l 1
 -1000 330 -1016 319 -1056 339 c 0
 -1116 369 -1195 410 -1230 410 c 3
-1690 150 m 1
 -1420 560 l 1
 -1385 540 l 1
 -1655 130 l 1
 -1690 150 l 1
-1525 385 m 1
 -1530 425 -1555 455 -1590 455 c 3
 -1645 455 -1700 395 -1700 300 c 3
 -1700 165 -1620 60 -1465 60 c 3
 -1285 60 -1160 185 -1160 320 c 3
 -1160 345 -1165 375 -1180 400 c 9
 -1140 410 l 17
 -1125 390 -1115 365 -1115 340 c 3
 -1115 165 -1265 -10 -1475 -10 c 3
 -1655 -10 -1760 120 -1760 250 c 3
 -1760 405 -1660 505 -1565 505 c 3
 -1510 505 -1475 465 -1470 415 c 1
 -1525 385 l 1
-2090 430 m 3
 -2120 430 -2144 409 -2144 384 c 0
 -2144 362 -2130 358 -2130 340 c 3
 -2130 318 -2148 300 -2170 300 c 3
 -2192 300 -2210 320 -2210 345 c 0
 -2210 410 -2125 485 -2050 485 c 0
 -2010 485 -1965 460 -1895 425 c 1
 -1840 470 l 1
 -1810 450 l 1
 -1885 360 -1901 349 -1941 369 c 0
 -2001 399 -2055 430 -2090 430 c 3
-2501 609 m 3
 -2526 609 -2544 594 -2544 574 c 0
 -2544 552 -2531 543 -2531 526 c 3
 -2531 506 -2552 489 -2574 489 c 3
 -2594 489 -2609 507 -2609 532 c 0
 -2609 597 -2536 664 -2456 664 c 0
 -2406 664 -2356 629 -2296 609 c 1
 -2229 651 l 1
 -2209 632 l 1
 -2351 554 l 1
 -2401 579 -2466 609 -2501 609 c 3
-3040 245 m 1
 -2680 520 l 1
 -2660 480 l 1
 -3020 205 l 1
 -3040 245 l 1
-2840 420 m 1
 -2850 465 -2880 495 -2920 495 c 3
 -2985 495 -3035 445 -3035 355 c 3
 -3035 195 -2930 60 -2760 60 c 3
 -2605 60 -2485 135 -2485 265 c 3
 -2485 285 -2490 310 -2505 335 c 9
 -2460 360 l 17
 -2445 335 -2435 310 -2435 280 c 3
 -2435 120 -2595 -10 -2795 -10 c 3
 -2975 -10 -3095 140 -3095 320 c 3
 -3095 450 -2990 545 -2895 545 c 3
 -2835 545 -2795 510 -2775 455 c 9
 -2840 420 l 1
-3395 411 m 1
 -3445 353 -3463 336 -3483 336 c 0
 -3495 336 -3506 338 -3531 345 c 2
 -3617 369 l 1
 -3664 324 l 1
 -3691 348 l 1
 -3641 406 -3623 423 -3603 423 c 0
 -3591 423 -3580 421 -3555 414 c 2
 -3469 390 l 1
 -3422 435 l 1
 -3395 411 l 1
-4100 245 m 1
 -3740 540 l 1
 -3720 500 l 1
 -4080 205 l 1
 -4100 245 l 1
-3875 420 m 1
 -3888 475 -3926 515 -3985 515 c 3
 -4050 515 -4105 445 -4105 355 c 3
 -4105 165 -3935 65 -3745 65 c 3
 -3640 65 -3560 140 -3560 240 c 3
 -3560 280 -3570 325 -3590 365 c 9
 -3530 395 l 17
 -3510 360 -3495 320 -3495 280 c 3
 -3495 120 -3615 -10 -3785 -10 c 3
 -3989 -10 -4155 126 -4155 330 c 3
 -4155 460 -4055 570 -3960 570 c 3
 -3896 570 -3845 530 -3810 475 c 9
 -3875 420 l 1
EndSplineSet
Fore
SplineSet
265 367 m 2
 307 424 279 465 239 465 c 0
 189 465 142 410 142 320 c 0
 142 180 230 60 390 60 c 0
 570 60 683 200 683 350 c 0
 683 390 660 430 610 430 c 0
 575 430 543 413 543 385 c 0
 543 358 560 352 560 330 c 0
 560 308 541 290 517 290 c 0
 492 290 475 312 475 342 c 0
 475 417 570 492 645 492 c 0
 690 492 760 455 855 410 c 1
 910 455 l 1
 940 435 l 1
 880 365 863 343 840 343 c 0
 830 343 819 348 805 355 c 2
 724 395 l 1
 728 385 730 372 730 360 c 0
 730 175 580 -10 370 -10 c 0
 195 -10 80 125 80 275 c 0
 80 415 180 520 270 520 c 0
 308 520 333 503 347 478 c 1
 394 542 l 1
 432 620 l 1
 477 590 l 1
 170 175 l 1
 145 205 l 1
 265 367 l 2
EndSplineSet
EndChar

StartChar: asterisk
Encoding: 42 42 105
Width: 405
Flags: HW
LayerCount: 2
Back
SplineSet
-276 440 m 1
 -322 402 -353 375 -366 357 c 0
 -378 341 -374 319 -357 307 c 0
 -340 295 -318 298 -306 314 c 0
 -293 332 -277 369 -255 425 c 1
 -233 369 -217 332 -204 314 c 0
 -192 298 -170 295 -153 307 c 0
 -136 319 -132 341 -144 357 c 0
 -157 375 -188 402 -234 440 c 1
 -174 444 -133 448 -112 455 c 0
 -93 461 -85 481 -91 501 c 0
 -97 521 -116 531 -135 525 c 0
 -156 518 -191 497 -242 465 c 1
 -227 523 -218 563 -218 585 c 0
 -218 605 -234 620 -255 620 c 0
 -276 620 -292 605 -292 585 c 0
 -292 563 -283 523 -268 465 c 1
 -319 497 -354 518 -375 525 c 0
 -394 531 -413 521 -419 501 c 0
 -425 481 -417 461 -398 455 c 0
 -377 448 -336 444 -276 440 c 1
157 449 m 1
 101 429 62 414 44 402 c 0
 27 391 24 368 36 351 c 0
 48 334 69 329 86 340 c 0
 104 352 132 382 172 427 c 1
 174 367 176 326 182 305 c 0
 188 286 207 276 227 282 c 0
 247 288 259 307 253 326 c 0
 247 347 227 382 197 434 c 1
 254 417 294 407 316 406 c 0
 336 405 351 421 352 442 c 0
 353 463 338 479 318 480 c 0
 296 481 256 473 198 460 c 1
 232 509 253 544 261 565 c 0
 268 584 258 604 238 611 c 0
 218 618 199 609 192 590 c 0
 184 569 179 529 173 469 c 1
 137 517 110 548 93 562 c 0
 77 574 56 572 43 555 c 0
 30 538 32 516 48 504 c 0
 65 490 102 473 157 449 c 1
EndSplineSet
Fore
SplineSet
89 373 m 1
 89 384 94 395 104 402 c 0
 122 414 161 429 217 449 c 1
 162 473 125 490 108 504 c 0
 99 511 94 521 94 531 c 11
 94 552 115 570 131 570 c 3
 155 570 172 547 233 469 c 1
 239 529 244 569 252 590 c 0
 257 605 270 613 285 613 c 0
 305 613 323 598 323 577 c 3
 323 558 308 537 258 460 c 1
 310 472 351 480 376 480 c 3
 396 480 412 466 412 444 c 3
 412 422 398 406 378 406 c 3
 358 406 317 417 257 434 c 1
 299 362 315 331 315 316 c 3
 315 296 296 280 275 280 c 19
 260 280 247 290 242 305 c 0
 236 326 234 367 232 427 c 1
 172 362 149 334 127 334 c 3
 107 334 89 352 89 373 c 1
EndSplineSet
EndChar

StartChar: uni00B2
Encoding: 178 178 106
Width: 350
Flags: HW
LayerCount: 2
Back
SplineSet
218 506 m 3
 218 533 200 556 174 556 c 3
 152 556 129 540 114 519 c 1
 95 538 l 1
 121 580 159 611 197 611 c 3
 242 611 280 573 280 523 c 3
 280 460 228 406 122 330 c 1
 261 330 l 1
 273 330 281 338 288 359 c 1
 314 359 l 1
 291 275 l 1
 42 275 l 1
 42 300 l 1
 157 388 218 449 218 506 c 3
-160 495 m 3
 -160 532 -185 558 -215 558 c 3
 -245 558 -268 538 -283 513 c 1
 -305 535 l 1
 -282 577 -242 610 -190 610 c 3
 -138 610 -92 567 -92 512 c 3
 -92 452 -133 410 -230 335 c 1
 -125 335 l 1
 -105 335 -95 342 -85 382 c 1
 -55 382 l 1
 -70 280 l 1
 -315 280 l 1
 -315 308 l 1
 -215 390 -160 435 -160 495 c 3
EndSplineSet
Fore
SplineSet
243 500 m 3
 243 531 222 555 195 555 c 3
 173 555 153 543 137 525 c 1
 118 550 l 1
 143 582 182 610 220 610 c 3
 272 610 310 568 310 515 c 3
 310 455 260 400 165 335 c 1
 265 335 l 1
 285 335 295 340 310 380 c 1
 340 380 l 1
 315 280 l 1
 70 280 l 1
 70 308 l 1
 185 388 243 440 243 500 c 3
EndSplineSet
EndChar

StartChar: uni00B9
Encoding: 185 185 107
Width: 350
Flags: HW
LayerCount: 2
Back
SplineSet
142 600 m 1
 352 600 l 1
 347 564 l 1
 137 564 l 1
 142 600 l 1
97 316 m 1
 307 316 l 1
 302 280 l 1
 92 280 l 1
 97 316 l 1
275 575 m 1
 227 295 l 1
 167 300 l 1
 215 580 l 1
 275 575 l 1
-471 600 m 1
 -282 600 l 1
 -286 569 l 1
 -475 569 l 1
 -471 600 l 1
-516 311 m 1
 -327 311 l 1
 -331 280 l 1
 -520 280 l 1
 -516 311 l 1
-348 579 m 1
 -397 297 l 1
 -454 297 l 1
 -405 579 l 1
 -348 579 l 1
-227 316 m 1
 -10 316 l 1
 -10 280 l 1
 -227 280 l 1
 -227 316 l 1
-224 565 m 1
 -96 614 l 1
 -86 614 l 1
 -86 300 l 1
 -148 300 l 1
 -148 540 l 1
 -224 538 l 1
 -224 565 l 1
EndSplineSet
Fore
SplineSet
141 565 m 1
 280 614 l 1
 290 614 l 1
 235 295 l 1
 175 300 l 1
 217 545 l 1
 138 538 l 1
 141 565 l 1
105 316 m 1
 315 316 l 1
 310 280 l 1
 100 280 l 1
 105 316 l 1
EndSplineSet
EndChar

StartChar: uni00B3
Encoding: 179 179 108
Width: 365
Flags: HW
LayerCount: 2
Back
SplineSet
206 422 m 1
 203 450 l 1
 266 468 287 492 292 520 c 0
 296 542 278 564 253 564 c 0
 226 564 202 545 186 525 c 1
 166 545 l 1
 194 580 233 610 283 610 c 0
 330 610 362 578 355 538 c 0
 350 510 325 480 287 465 c 1
 337 464 364 430 357 390 c 0
 344 316 247 265 136 260 c 1
 136 289 l 1
 222 297 277 334 285 382 c 0
 290 412 271 432 246 432 c 0
 234 432 218 427 206 422 c 1
EndSplineSet
Fore
SplineSet
165 423 m 1
 160 450 l 1
 225 468 252 497 252 527 c 0
 252 547 234 560 212 560 c 0
 192 560 172 550 155 535 c 1
 138 556 l 1
 165 586 202 610 242 610 c 0
 284 610 315 586 315 550 c 0
 315 518 287 485 247 465 c 1
 289 463 318 433 318 398 c 0
 318 318 210 265 100 260 c 1
 92 295 l 1
 140 297 l 1
 202 305 245 345 245 390 c 0
 245 415 224 430 197 430 c 0
 187 430 176 427 165 423 c 1
EndSplineSet
EndChar

StartChar: plus
Encoding: 43 43 109
Width: 400
Flags: HW
LayerCount: 2
Back
SplineSet
24 204 m 0
 24 301 103 380 200 380 c 0
 297 380 376 301 376 204 c 0
 376 107 297 28 200 28 c 0
 103 28 24 107 24 204 c 0
10 -40 m 1
 275 640 l 1
 330 640 l 1
 65 -40 l 1
 10 -40 l 1
EndSplineSet
Fore
SplineSet
225 380 m 1
 225 30 l 1
 175 30 l 1
 175 380 l 1
 225 380 l 1
25 230 m 1
 375 230 l 1
 375 180 l 1
 25 180 l 1
 25 230 l 1
EndSplineSet
EndChar

StartChar: equal
Encoding: 61 61 110
Width: 400
Flags: HW
LayerCount: 2
Back
SplineSet
24 204 m 0
 24 301 103 380 200 380 c 0
 297 380 376 301 376 204 c 0
 376 107 297 28 200 28 c 0
 103 28 24 107 24 204 c 0
225 380 m 1
 225 30 l 1
 175 30 l 1
 175 380 l 1
 225 380 l 1
25 230 m 1
 375 230 l 1
 375 180 l 1
 25 180 l 1
 25 230 l 1
EndSplineSet
Fore
SplineSet
30 150 m 1
 370 150 l 1
 370 100 l 1
 30 100 l 1
 30 150 l 1
30 310 m 1
 370 310 l 1
 370 260 l 1
 30 260 l 1
 30 310 l 1
EndSplineSet
EndChar

StartChar: less
Encoding: 60 60 111
Width: 400
Flags: HW
LayerCount: 2
Back
SplineSet
45 225 m 1
 365 110 l 1
 365 55 l 1
 30 180 l 1
 30 230 l 1
 45 225 l 1
30 230 m 1
 365 355 l 1
 365 300 l 1
 45 185 l 1
 30 180 l 1
 30 230 l 1
225 380 m 1
 225 30 l 1
 175 30 l 1
 175 380 l 1
 225 380 l 1
25 230 m 1
 375 230 l 1
 375 180 l 1
 25 180 l 1
 25 230 l 1
35 150 m 1
 365 150 l 1
 365 100 l 1
 35 100 l 1
 35 150 l 1
35 310 m 1
 365 310 l 1
 365 260 l 1
 35 260 l 1
 35 310 l 1
EndSplineSet
Fore
SplineSet
96 215 m 1
 370 100 l 1
 370 45 l 1
 25 190 l 1
 25 220 l 1
 96 215 l 1
25 220 m 1
 370 365 l 1
 370 310 l 1
 96 195 l 1
 25 190 l 1
 25 220 l 1
EndSplineSet
EndChar

StartChar: greater
Encoding: 62 62 112
Width: 400
Flags: HW
LayerCount: 2
Back
SplineSet
302 195 m 1
 35 305 l 1
 35 360 l 1
 375 220 l 1
 375 190 l 1
 302 195 l 1
375 190 m 1
 35 50 l 1
 35 105 l 1
 302 215 l 1
 375 220 l 1
 375 190 l 1
-100 195 m 1
 -365 303 l 1
 -365 360 l 1
 -25 220 l 1
 -25 190 l 1
 -100 195 l 1
-25 190 m 1
 -365 50 l 1
 -365 107 l 1
 -100 215 l 1
 -25 220 l 1
 -25 190 l 1
-530 195 m 1
 -795 295 l 1
 -795 350 l 1
 -460 220 l 1
 -460 190 l 1
 -530 195 l 1
-460 190 m 1
 -795 60 l 1
 -795 115 l 1
 -530 215 l 1
 -460 220 l 1
 -460 190 l 1
EndSplineSet
Fore
SplineSet
304 195 m 1
 30 310 l 1
 30 365 l 1
 375 220 l 1
 375 190 l 1
 304 195 l 1
375 190 m 1
 30 45 l 1
 30 100 l 1
 304 215 l 1
 375 220 l 1
 375 190 l 1
EndSplineSet
EndChar

StartChar: underscore
Encoding: 95 95 113
Width: 450
Flags: HW
LayerCount: 2
Fore
SplineSet
-5 -80 m 1
 455 -80 l 1
 455 -130 l 1
 -5 -130 l 1
 -5 -80 l 1
EndSplineSet
EndChar

StartChar: dollar
Encoding: 36 36 114
Width: 420
Flags: HW
LayerCount: 2
Back
SplineSet
76 445 m 0
 76 523 157 598 261 598 c 0
 309 598 349 586 382 564 c 1
 374 457 l 1
 337 457 l 1
 337 471 l 2
 337 528 304 560 247 560 c 0
 190 560 150 516 150 473 c 0
 150 429 173 405 238 348 c 0
 311 283 344 241 344 176 c 0
 344 81 254 2 138 2 c 0
 86 2 38 15 5 39 c 1
 14 160 l 1
 51 160 l 1
 46 74 86 41 152 41 c 0
 219 41 266 88 266 150 c 0
 266 196 242 223 171 287 c 0
 99 352 76 385 76 445 c 0
-325 453 m 1
 -312 531 -227 600 -137 600 c 1
 -93 600 -51 588 -23 570 c 1
 -30 465 l 1
 -64 465 l 17
 -67 487 l 2
 -71 529 -96 565 -147 565 c 1
 -199 565 -243 528 -251 483 c 1
 -258 440 -248 414 -168 358 c 0
 -65 286 -39 240 -51 170 c 1
 -67 79 -158 0 -261 0 c 1
 -310 0 -352 10 -384 32 c 1
 -378 150 l 1
 -343 150 l 25
 -340 120 l 2
 -334 70 -309 36 -245 36 c 1
 -189 36 -137 82 -127 142 c 1
 -119 189 -139 217 -222 275 c 0
 -322 345 -336 388 -325 453 c 1
-275 -40 m 1
 -158 640 l 1
 -119 640 l 1
 -236 -40 l 1
 -275 -40 l 1
-805 453 m 1
 -805 531 -731 600 -639 600 c 1
 -594 600 -549 588 -517 570 c 1
 -506 465 l 1
 -541 465 l 17
 -547 487 l 2
 -558 529 -591 565 -643 565 c 1
 -696 565 -735 528 -735 483 c 1
 -735 440 -720 414 -628 358 c 0
 -510 286 -475 240 -475 170 c 1
 -475 79 -555 0 -660 0 c 1
 -710 0 -754 10 -791 32 c 1
 -805 150 l 1
 -770 150 l 25
 -761 120 l 2
 -746 70 -715 36 -650 36 c 1
 -593 36 -548 82 -548 142 c 1
 -548 189 -573 217 -668 275 c 0
 -782 345 -805 388 -805 453 c 1
-667 -40 m 1
 -667 640 l 1
 -627 640 l 1
 -627 -40 l 1
 -667 -40 l 1
EndSplineSet
Fore
SplineSet
128 -40 m 1
 265 640 l 1
 307 640 l 1
 170 -40 l 1
 128 -40 l 1
90 450 m 0
 90 532 177 600 277 600 c 0
 325 600 368 587 399 567 c 1
 390 458 l 1
 354 458 l 1
 354 473 l 2
 354 531 321 563 263 563 c 0
 205 563 165 518 165 475 c 0
 165 431 188 406 253 348 c 0
 327 283 361 238 361 173 c 0
 361 78 267 0 152 0 c 0
 100 0 52 14 18 37 c 1
 28 159 l 1
 64 159 l 1
 59 73 100 38 167 38 c 0
 235 38 282 86 282 148 c 0
 282 194 258 223 186 287 c 0
 113 352 90 389 90 450 c 0
EndSplineSet
EndChar

StartChar: onehalf
Encoding: 189 189 115
Width: 750
Flags: HW
LayerCount: 2
Fore
SplineSet
115 -40 m 1
 645 640 l 1
 705 640 l 1
 175 -40 l 1
 115 -40 l 1
EndSplineSet
Refer: 106 178 N 1 0 0 1 380 -280 2
Refer: 107 185 N 1 0 0 1 0 0 2
EndChar

StartChar: onequarter
Encoding: 188 188 116
Width: 750
Flags: HW
LayerCount: 2
Back
SplineSet
869 67 m 1
 1133 347 l 25
 1157 347 l 1
 1077 -117 l 1
 1021 -117 l 1
 1084 247 l 1
 941 93 l 1
 1222 93 l 1
 1213 43 l 1
 869 43 l 1
 869 67 l 1
425 100 m 1
 620 330 l 25
 645 330 l 1
 645 -20 l 1
 583 -20 l 1
 583 240 l 1
 485 125 l 1
 715 125 l 1
 715 75 l 1
 425 75 l 1
 425 100 l 1
EndSplineSet
Fore
SplineSet
440 113 m 1
 648 335 l 25
 673 335 l 1
 615 -5 l 1
 555 -5 l 1
 595 228 l 1
 508 135 l 1
 722 135 l 1
 715 85 l 1
 440 85 l 1
 440 113 l 1
115 -40 m 1
 645 640 l 1
 705 640 l 1
 175 -40 l 1
 115 -40 l 1
EndSplineSet
Refer: 107 185 N 1 0 0 1 0 0 2
EndChar

StartChar: bar
Encoding: 124 124 117
Width: 215
Flags: HW
LayerCount: 2
Fore
SplineSet
80 -240 m 1
 80 640 l 1
 135 640 l 1
 135 -240 l 1
 80 -240 l 1
EndSplineSet
EndChar

StartChar: plusminus
Encoding: 177 177 118
Width: 400
Flags: HW
LayerCount: 2
Back
SplineSet
225 380 m 1
 225 30 l 1
 175 30 l 1
 175 380 l 1
 225 380 l 1
25 230 m 1
 375 230 l 1
 375 180 l 1
 25 180 l 1
 25 230 l 1
EndSplineSet
Fore
SplineSet
25 90 m 1
 375 90 l 1
 375 40 l 1
 25 40 l 1
 25 90 l 1
225 390 m 1
 225 140 l 1
 175 140 l 1
 175 390 l 1
 225 390 l 1
30 290 m 1
 370 290 l 1
 370 240 l 1
 30 240 l 1
 30 290 l 1
EndSplineSet
EndChar

StartChar: brokenbar
Encoding: 166 166 119
Width: 215
Flags: HW
LayerCount: 2
Back
SplineSet
80 -240 m 1
 80 640 l 1
 135 640 l 1
 135 -240 l 1
 80 -240 l 1
EndSplineSet
Fore
SplineSet
80 260 m 1
 80 640 l 1
 135 640 l 1
 135 260 l 1
 80 260 l 1
80 -240 m 1
 80 140 l 1
 135 140 l 1
 135 -240 l 1
 80 -240 l 1
EndSplineSet
EndChar

StartChar: periodcentered
Encoding: 183 183 120
Width: 230
Flags: HW
LayerCount: 2
Back
SplineSet
62 215 m 0
 62 247 88 273 120 273 c 0
 152 273 178 247 178 215 c 0
 178 183 152 157 120 157 c 0
 88 157 62 183 62 215 c 0
EndSplineSet
Fore
Refer: 12 46 N 1 0 0 1 0 170 2
EndChar

StartChar: exclamdown
Encoding: 161 161 121
Width: 230
Flags: HW
LayerCount: 2
Back
SplineSet
89 42 m 0
 89 70 112 93 140 93 c 0
 168 93 191 70 191 42 c 0
 191 14 168 -9 140 -9 c 0
 112 -9 89 14 89 42 c 0
150 620 m 17
 175 620 190 607 190 585 c 1
 190 545 172 340 157 170 c 9
 123 170 l 1
 108 340 90 545 90 585 c 1
 90 607 105 620 130 620 c 9
 150 620 l 17
EndSplineSet
Fore
Refer: 53 33 N -1 0 0 -1 230 389 2
EndChar

StartChar: cent
Encoding: 162 162 122
Width: 420
Flags: HW
LayerCount: 2
Back
SplineSet
148 -90 m 1
 270 490 l 1
 312 490 l 1
 190 -90 l 1
 148 -90 l 1
288 400 m 3
 330 400 365 376 365 350 c 3
 365 329 348 310 328 310 c 3
 313 310 304 321 297 332 c 0
 290 343 280 354 260 354 c 3
 200 354 134 240 134 135 c 3
 134 85 162 52 202 52 c 3
 242 52 273 71 303 106 c 9
 325 85 l 17
 285 25 230 -10 170 -10 c 0
 110 -10 60 35 60 120 c 0
 60 260 173 400 288 400 c 3
-172 400 m 3
 -127 400 -95 376 -95 350 c 3
 -95 328 -113 310 -135 310 c 3
 -150 310 -159 321 -166 332 c 0
 -173 343 -185 354 -200 354 c 3
 -260 354 -326 240 -326 135 c 3
 -326 85 -298 52 -258 52 c 3
 -218 52 -187 71 -157 106 c 9
 -135 85 l 17
 -175 25 -230 -10 -290 -10 c 0
 -350 -10 -400 35 -400 120 c 0
 -400 260 -287 400 -172 400 c 3
-592 400 m 3
 -550 400 -520 376 -520 350 c 3
 -520 328 -538 310 -560 310 c 3
 -575 310 -584 321 -591 332 c 0
 -598 342 -606 352 -620 352 c 3
 -674 352 -736 235 -736 135 c 3
 -736 90 -710 54 -678 54 c 3
 -640 54 -612 71 -582 106 c 9
 -560 85 l 17
 -600 25 -650 -10 -710 -10 c 0
 -765 -10 -810 35 -810 120 c 0
 -810 255 -702 400 -592 400 c 3
-1080 -90 m 1
 -1080 490 l 1
 -1040 490 l 1
 -1040 -90 l 1
 -1080 -90 l 1
-1001 325 m 0
 -1017 344 -1036 355 -1068 355 c 3
 -1126 355 -1176 298 -1176 218 c 3
 -1176 128 -1109 55 -1035 55 c 3
 -993 55 -957 75 -932 107 c 1
 -910 90 l 1
 -942 33 -998 -10 -1070 -10 c 3
 -1165 -10 -1245 75 -1245 182 c 3
 -1245 307 -1150 400 -1045 400 c 3
 -970 400 -915 365 -915 330 c 3
 -915 308 -934 289 -956 289 c 3
 -978 289 -989 311 -1001 325 c 0
EndSplineSet
Fore
SplineSet
148 -90 m 1
 270 490 l 1
 312 490 l 1
 190 -90 l 1
 148 -90 l 1
293 400 m 3
 335 400 370 376 370 350 c 3
 370 329 353 310 333 310 c 3
 318 310 309 321 302 332 c 0
 295 343 285 354 265 354 c 3
 205 354 135 245 135 135 c 3
 135 83 165 52 207 52 c 3
 247 52 278 71 308 106 c 9
 330 85 l 17
 290 25 235 -10 175 -10 c 0
 110 -10 62 35 62 120 c 0
 62 265 178 400 293 400 c 3
EndSplineSet
EndChar

StartChar: sterling
Encoding: 163 163 123
Width: 470
Flags: HW
LayerCount: 2
Back
SplineSet
88 385 m 1
 388 385 l 1
 381 345 l 1
 82 345 l 1
 88 385 l 1
137 265 m 2
 158 345 l 18
 200 505 305 600 400 600 c 0
 452 600 486 578 481 548 c 0
 477 525 455 505 433 505 c 0
 417 505 410 518 401 530 c 0
 392 542 379 550 358 550 c 0
 306 550 271 495 239 375 c 10
 212 275 l 2
 175 135 145 100 92 65 c 1
 320 65 l 2
 344 65 355 75 384 135 c 1
 417 135 l 1
 366 0 l 1
 0 0 l 1
 5 30 l 1
 85 80 92 95 137 265 c 2
60 275 m 1
 360 275 l 1
 353 235 l 1
 54 235 l 1
 60 275 l 1
EndSplineSet
Fore
SplineSet
130 265 m 2
 151 345 l 18
 193 505 300 600 395 600 c 0
 445 600 475 575 475 548 c 0
 475 526 456 505 437 505 c 0
 420 505 414 515 405 527 c 0
 396 539 381 550 359 550 c 0
 304 550 264 495 232 375 c 10
 205 275 l 2
 167 135 142 99 87 64 c 1
 310 64 l 2
 335 64 350 74 375 132 c 1
 408 132 l 1
 365 0 l 1
 -5 0 l 1
 -5 28 l 1
 80 78 85 95 130 265 c 2
80 385 m 1
 375 385 l 1
 375 345 l 1
 80 345 l 1
 80 385 l 1
55 275 m 1
 350 275 l 1
 350 235 l 1
 55 235 l 1
 55 275 l 1
EndSplineSet
EndChar

StartChar: yen
Encoding: 165 165 124
Width: 490
Flags: HW
LayerCount: 2
Back
SplineSet
310 380 m 1
 440 380 l 1
 435 340 l 1
 305 340 l 1
 310 380 l 1
90 380 m 1
 220 380 l 1
 215 340 l 1
 85 340 l 1
 90 380 l 1
70 255 m 1
 420 255 l 1
 415 215 l 1
 65 215 l 1
 70 255 l 1
400 600 m 1
 565 600 l 1
 560 560 l 1
 395 560 l 1
 400 600 l 1
50 600 m 1
 255 600 l 1
 250 560 l 1
 45 560 l 1
 50 600 l 1
220 310 m 1
 85 590 l 1
 175 590 l 1
 280 365 l 1
 280 310 l 1
 220 310 l 1
305 340 m 1
 245 10 l 1
 162 10 l 1
 222 340 l 1
 305 340 l 1
85 40 m 1
 330 40 l 1
 325 0 l 1
 80 0 l 1
 85 40 l 1
470 590 m 1
 531 590 l 1
 300 324 l 1
 270 324 l 1
 280 365 l 1
 470 590 l 1
-660 380 m 1
 -515 380 l 1
 -515 340 l 1
 -660 340 l 1
 -660 380 l 1
-650 255 m 1
 -295 255 l 1
 -295 215 l 1
 -650 215 l 1
 -650 255 l 1
-430 380 m 1
 -285 380 l 1
 -285 340 l 1
 -430 340 l 1
 -430 380 l 1
-385 600 m 1
 -215 600 l 1
 -215 560 l 1
 -385 560 l 1
 -385 600 l 1
-725 600 m 1
 -520 600 l 1
 -520 560 l 1
 -725 560 l 1
 -725 600 l 1
-513 315 m 1
 -695 590 l 1
 -598 590 l 1
 -455 370 l 1
 -513 315 l 1
-432 340 m 1
 -432 10 l 1
 -513 10 l 1
 -513 340 l 1
 -432 340 l 1
-595 40 m 1
 -350 40 l 1
 -350 0 l 1
 -595 0 l 1
 -595 40 l 1
-303 590 m 1
 -245 590 l 1
 -432 325 l 1
 -513 315 l 1
 -455 370 l 1
 -303 590 l 1
EndSplineSet
Fore
SplineSet
310 380 m 1
 440 380 l 1
 435 340 l 1
 305 340 l 1
 310 380 l 1
90 380 m 1
 220 380 l 1
 215 340 l 1
 85 340 l 1
 90 380 l 1
70 255 m 1
 420 255 l 1
 415 215 l 1
 65 215 l 1
 70 255 l 1
390 600 m 1
 565 600 l 1
 560 560 l 1
 385 560 l 1
 390 600 l 1
50 600 m 1
 255 600 l 1
 250 560 l 1
 45 560 l 1
 50 600 l 1
220 320 m 1
 85 590 l 1
 175 590 l 1
 285 365 l 1
 285 320 l 1
 220 320 l 1
305 340 m 1
 245 10 l 1
 162 10 l 1
 222 340 l 1
 305 340 l 1
85 40 m 1
 330 40 l 1
 325 0 l 1
 80 0 l 1
 85 40 l 1
470 590 m 1
 531 590 l 1
 300 324 l 1
 280 324 l 1
 280 365 l 1
 470 590 l 1
EndSplineSet
EndChar

StartChar: Thorn
Encoding: 222 222 125
Width: 485
Flags: HW
LayerCount: 2
Back
SplineSet
20 600 m 1
 265 600 l 1
 265 560 l 1
 20 560 l 1
 20 600 l 1
255 490 m 1
 387 490 480 415 480 315 c 3
 480 200 389 122 279 122 c 3
 259 122 230 125 215 130 c 1
 220 165 l 25
 260 165 l 17
 340 165 390 220 390 305 c 3
 390 385 335 447 240 447 c 1
 160 447 l 1
 160 490 l 1
 255 490 l 1
22 40 m 1
 270 40 l 1
 270 0 l 1
 22 0 l 1
 22 40 l 1
185 590 m 1
 185 10 l 1
 100 10 l 1
 100 590 l 1
 185 590 l 1
EndSplineSet
Fore
SplineSet
95 600 m 1
 340 600 l 1
 335 560 l 1
 90 560 l 1
 95 600 l 1
260 590 m 1
 150 10 l 1
 65 10 l 1
 175 590 l 1
 260 590 l 1
-10 40 m 1
 235 40 l 1
 230 0 l 1
 -15 0 l 1
 -10 40 l 1
230 125 m 2
 215 125 l 1
 215 168 l 1
 230 168 l 2
 340 168 398 235 398 327 c 0
 398 389 355 443 275 443 c 2
 210 443 l 1
 215 485 l 1
 285 485 l 2
 405 485 485 425 485 335 c 0
 485 210 380 125 230 125 c 2
EndSplineSet
EndChar

StartChar: ae
Encoding: 230 230 126
Width: 525
Flags: HW
LayerCount: 2
Back
SplineSet
437 400 m 3
 482 400 522 370 522 325 c 3
 522 255 445 205 300 180 c 1
 305 212 l 1
 410 232 455 270 455 320 c 0
 455 340 438 358 418 358 c 3
 358 358 300 250 300 140 c 3
 300 85 330 55 365 55 c 3
 403 55 435 75 460 110 c 9
 483 90 l 1
 448 30 392 -10 335 -10 c 0
 265 -10 235 45 235 120 c 1
 185 36 122 -10 75 -10 c 0
 38 -10 13 22 13 65 c 0
 13 187 178 350 290 360 c 1
 307 382 l 1
 347 382 l 1
 342 355 l 1
 367 385 407 400 437 400 c 3
268 293 m 1
 265 295 258 297 250 297 c 3
 178 297 90 192 90 100 c 3
 90 82 97 64 115 64 c 3
 161 64 243 147 268 293 c 1
-123 400 m 3
 -78 400 -38 370 -38 325 c 3
 -38 255 -115 205 -260 180 c 1
 -255 212 l 1
 -150 232 -105 270 -105 320 c 0
 -105 340 -122 358 -142 358 c 3
 -202 358 -260 250 -260 140 c 3
 -260 85 -230 55 -195 55 c 3
 -157 55 -125 75 -100 110 c 9
 -77 90 l 1
 -112 30 -168 -10 -225 -10 c 0
 -295 -10 -325 40 -325 125 c 1
 -380 35 -443 -10 -490 -10 c 0
 -527 -10 -552 22 -552 65 c 0
 -552 190 -377 360 -265 365 c 1
 -249 385 l 1
 -209 385 l 1
 -215 360 l 1
 -190 385 -153 400 -123 400 c 3
-290 295 m 1
 -294 298 -303 300 -310 300 c 3
 -380 300 -475 192 -475 100 c 3
 -475 82 -468 64 -450 64 c 3
 -404 64 -315 145 -290 295 c 1
-693 400 m 3
 -648 400 -608 370 -608 325 c 3
 -608 255 -685 205 -830 180 c 1
 -825 212 l 1
 -720 232 -675 270 -675 320 c 0
 -675 340 -692 358 -712 358 c 3
 -772 358 -830 250 -830 140 c 3
 -830 85 -800 55 -765 55 c 3
 -727 55 -695 75 -670 110 c 9
 -647 90 l 1
 -682 30 -738 -10 -795 -10 c 0
 -855 -10 -900 35 -900 120 c 0
 -900 260 -793 400 -693 400 c 3
-774 405 m 1
 -833 110 l 1
 -833 67 l 1
 -748 138 l 1
 -723 118 l 1
 -808 23 -837 -10 -872 -10 c 0
 -904 -10 -922 24 -892 134 c 1
 -948 39 -1013 -10 -1060 -10 c 0
 -1097 -10 -1122 22 -1122 65 c 0
 -1122 190 -939 380 -827 385 c 1
 -814 405 l 1
 -774 405 l 1
-862 305 m 1
 -866 308 -875 310 -882 310 c 3
 -952 310 -1045 192 -1045 100 c 3
 -1045 82 -1038 64 -1020 64 c 3
 -974 64 -887 155 -862 305 c 1
EndSplineSet
Fore
SplineSet
432 400 m 3
 477 400 517 370 517 325 c 3
 517 255 440 205 295 180 c 1
 300 212 l 1
 405 232 450 270 450 320 c 0
 450 340 433 358 413 358 c 3
 353 358 295 250 295 140 c 3
 295 85 325 55 360 55 c 3
 398 55 430 75 455 110 c 9
 478 90 l 1
 443 30 387 -10 330 -10 c 0
 260 -10 230 45 230 120 c 1
 180 36 117 -10 70 -10 c 0
 33 -10 8 22 8 65 c 0
 8 187 173 350 285 360 c 1
 302 382 l 1
 342 382 l 1
 337 355 l 1
 362 385 402 400 432 400 c 3
263 293 m 1
 260 295 253 297 245 297 c 3
 173 297 84 191 84 100 c 3
 84 82 92 64 110 64 c 3
 156 64 238 147 263 293 c 1
EndSplineSet
EndChar

StartChar: grave
Encoding: 96 96 127
Width: 250
Flags: HW
LayerCount: 2
Back
SplineSet
125 645 m 1
 195 460 l 1
 160 460 l 1
 50 630 l 1
 125 645 l 1
EndSplineSet
Fore
Refer: 138 768 N 1 0 0 1 185 0 2
EndChar

StartChar: copyright
Encoding: 169 169 128
Width: 720
Flags: HW
LayerCount: 2
Back
SplineSet
-219 117 m 3
 -333 117 -418 199 -418 311 c 0
 -418 418 -325 503 -208 503 c 3
 -163 503 -119 493 -89 477 c 1
 -83 391 l 25
 -104 391 l 1
 -110 422 -119 438 -131 450 c 0
 -146 466 -173 477 -212 477 c 3
 -299 477 -357 415 -357 316 c 0
 -357 223 -296 143 -212 143 c 3
 -158 143 -125 168 -109 202 c 10
 -98 226 l 1
 -75 226 l 25
 -98 141 l 17
 -129 124 -180 117 -219 117 c 3
368 114 m 2
 254 114 169 196 169 308 c 2
 169 314 l 2
 169 421 262 506 379 506 c 2
 385 506 l 2
 430 506 474 496 504 480 c 1
 510 394 l 1
 510 388 l 1
 483 388 l 1
 477 419 468 435 456 447 c 0
 441.78176739 462.166114784 416.78176739 472.92861393 381 474 c 0
 295.771112884 474 238.301635777 414.498649974 236 319 c 0
 236 226 297 146 381 146 c 0
 431.456600789 147.786869632 462.601361369 172.277892909 478 205 c 2
 489 229 l 1
 518 229 l 1
 518 223 l 1
 495 138 l 1
 464 121 413 114 374 114 c 2
 368 114 l 2
EndSplineSet
Fore
SplineSet
368 105 m 3
 253 105 170 186 170 301 c 0
 170 411 260 495 380 495 c 3
 425 495 472 485 502 470 c 1
 511 378 l 25
 481 378 l 1
 476 406 468 423 456 435 c 0
 440 451 415 464 375 464 c 3
 293 464 235 396 235 306 c 0
 235 221 295 138 375 138 c 3
 427 138 462 159 478 194 c 10
 490 220 l 1
 520 220 l 25
 495 130 l 17
 463 112 408 105 368 105 c 3
93 300 m 0
 93 151 212 30 360 30 c 0
 508 30 627 151 627 300 c 0
 627 449 508 570 360 570 c 0
 212 570 93 449 93 300 c 0
50 300 m 0
 50 471 189 610 360 610 c 0
 531 610 670 471 670 300 c 0
 670 129 531 -10 360 -10 c 0
 189 -10 50 129 50 300 c 0
EndSplineSet
EndChar

StartChar: threequarters
Encoding: 190 190 130
Width: 750
Flags: HW
LayerCount: 2
Fore
SplineSet
440 113 m 1
 648 335 l 25
 673 335 l 1
 615 -5 l 1
 555 -5 l 1
 595 228 l 1
 508 135 l 1
 722 135 l 1
 715 85 l 1
 440 85 l 1
 440 113 l 1
115 -40 m 1
 645 640 l 1
 705 640 l 1
 175 -40 l 1
 115 -40 l 1
EndSplineSet
Refer: 108 179 N 1 0 0 1 0 0 2
EndChar

StartChar: dotlessi
Encoding: 305 305 131
Width: 270
Flags: W
HStem: -10 75<92.5 166.419> 331 69<100.856 183.132>
VStem: 15 247
LayerCount: 2
Back
SplineSet
24 35 m 1
 234 35 l 1
 234 0 l 1
 24 0 l 1
 24 35 l 1
35 350 m 1
 154 404 l 1
 164 404 l 1
 164 0 l 1
 90 0 l 1
 90 300 l 1
 35 340 l 1
 35 350 l 1
EndSplineSet
Fore
SplineSet
198 332 m 2
 144 104 l 2
 138 79 141 65 152 65 c 3
 175 65 213 103 238 135 c 1
 262 114 l 1
 204 29 148 -10 110 -10 c 0
 75 -10 58 25 72 85 c 2
 120 288 l 2
 126 313 126 331 115 331 c 3
 98 331 75 317 35 280 c 1
 15 305 l 1
 83 377 131 400 168 400 c 0
 195 400 208 374 198 332 c 2
EndSplineSet
EndChar

StartChar: AE
Encoding: 198 198 132
Width: 690
Flags: HW
LayerCount: 2
Back
SplineSet
214 0 m 1
 221 40 l 1
 314 40 l 1
 384 75 l 1
 381 55 388 45 408 45 c 1
 516 45 l 1
 565 45 584 59 637 164 c 1
 672 164 l 1
 611 0 l 1
 214 0 l 1
284 600 m 1
 710 600 l 1
 688 455 l 1
 654 455 l 1
 660 545 651 556 607 556 c 1
 448 556 l 9
 404 560 l 17
 277 560 l 1
 284 600 l 1
407 265 m 1
 415 308 l 1
 529 308 l 1
 558 308 568 316 575 358 c 1
 578 375 l 1
 612 375 l 1
 580 185 l 1
 545 185 l 1
 550 215 l 1
 557 257 551 265 522 265 c 1
 407 265 l 1
471 580 m 1
 375 20 l 1
 291 20 l 1
 388 580 l 1
 471 580 l 1
189 308 m 1
 366 308 l 1
 358 265 l 1
 162 265 l 1
 189 308 l 1
92 0 m 1
 -89 0 l 1
 -82 40 l 1
 99 40 l 1
 92 0 l 1
15 10 m 1
 -45 10 l 1
 339 560 l 1
 386 570 l 1
 382 545 l 1
 15 10 l 1
EndSplineSet
Fore
SplineSet
395 275 m 1
 400 318 l 1
 520 318 l 1
 548 318 558 326 565 368 c 2
 568 385 l 1
 600 385 l 1
 568 195 l 1
 535 195 l 1
 540 225 l 2
 547 267 540 275 512 275 c 1
 395 275 l 1
275 600 m 1
 695 600 l 1
 680 456 l 1
 645 456 l 1
 647 541 635 556 600 556 c 1
 430 556 l 1
 400 560 l 1
 270 560 l 1
 275 600 l 1
220 40 m 1
 310 40 l 1
 350 45 l 1
 530 45 l 1
 580 45 597 60 647 165 c 1
 682 165 l 1
 625 0 l 1
 215 0 l 1
 220 40 l 1
475 590 m 1
 370 10 l 1
 287 10 l 1
 393 590 l 1
 475 590 l 1
200 318 m 1
 351 318 l 1
 352 275 l 1
 181 275 l 1
 200 318 l 1
90 0 m 1
 -90 0 l 1
 -85 40 l 1
 95 40 l 1
 90 0 l 1
15 10 m 1
 -40 15 l 1
 340 560 l 1
 400 565 l 1
 385 545 l 1
 15 10 l 1
EndSplineSet
EndChar

StartChar: multiply
Encoding: 215 215 133
Width: 400
Flags: HW
LayerCount: 2
Back
SplineSet
94 346 m 1
 341 99 l 1
 306 64 l 1
 59 311 l 1
 94 346 l 1
59 99 m 1
 306 346 l 1
 341 311 l 1
 94 64 l 1
 59 99 l 1
225 380 m 1
 225 30 l 1
 175 30 l 1
 175 380 l 1
 225 380 l 1
25 230 m 1
 375 230 l 1
 375 180 l 1
 25 180 l 1
 25 230 l 1
EndSplineSet
Fore
SplineSet
85 355 m 1
 350 90 l 1
 315 55 l 1
 50 320 l 1
 85 355 l 1
50 90 m 1
 315 355 l 1
 350 320 l 1
 85 55 l 1
 50 90 l 1
EndSplineSet
EndChar

StartChar: at
Encoding: 64 64 134
Width: 790
Flags: HW
LayerCount: 2
Back
SplineSet
463 307 m 1
 458 312 450 315 440 315 c 3
 372 315 289 195 274 110 c 0
 270 85 276 70 288 70 c 3
 327 70 423 172 463 307 c 1
745 235 m 0
 720 90 578 -5 452 -5 c 0
 399 -5 366 30 409 140 c 1
 353 40 277 -5 238 -5 c 0
 209 -5 190 25 197 65 c 0
 219 195 387 385 489 385 c 0
 494 385 503 384 508 383 c 1
 517 395 l 1
 554 395 l 1
 471 135 l 2
 455 85 455 45 499 45 c 3
 590 45 668 125 686 230 c 0
 709 365 611 499 446 499 c 0
 281 499 136 360 107 190 c 0
 77 15 178 -127 348 -127 c 0
 445 -127 524 -90 588 -30 c 1
 609 -50 l 1
 543 -125 442 -175 330 -175 c 0
 141 -175 12 -25 47 180 c 0
 81 381 268 545 463 545 c 0
 655 545 772 390 745 235 c 0
-473 307 m 1
 -479 312 -488 315 -498 315 c 3
 -568 315 -633 195 -633 110 c 3
 -633 85 -624 70 -612 70 c 3
 -572 70 -490 172 -473 307 c 1
-170 235 m 0
 -170 90 -300 -5 -430 -5 c 0
 -485 -5 -525 30 -500 140 c 1
 -540 40 -610 -5 -650 -5 c 0
 -680 -5 -705 25 -705 65 c 0
 -705 195 -565 385 -460 385 c 0
 -455 385 -445 384 -440 383 c 1
 -433 395 l 1
 -395 395 l 1
 -435 135 l 2
 -443 85 -435 45 -390 45 c 3
 -296 45 -230 125 -230 230 c 0
 -230 365 -355 499 -525 499 c 0
 -695 499 -820 360 -820 190 c 0
 -820 15 -690 -127 -515 -127 c 0
 -415 -127 -340 -90 -285 -30 c 1
 -260 -50 l 1
 -315 -125 -410 -175 -525 -175 c 0
 -720 -175 -880 -25 -880 180 c 0
 -880 381 -716 545 -515 545 c 0
 -317 545 -170 390 -170 235 c 0
EndSplineSet
Fore
SplineSet
472 307 m 1
 466 312 457 315 447 315 c 3
 382 315 282 195 282 115 c 3
 282 90 291 75 303 75 c 3
 343 75 437 177 472 307 c 1
750 285 m 0
 750 140 625 -5 470 -5 c 0
 410 -5 387 35 422 140 c 1
 362 40 295 0 255 0 c 0
 225 0 205 20 205 60 c 0
 205 185 395 385 495 385 c 0
 500 385 510 384 515 383 c 1
 522 395 l 1
 555 395 l 1
 485 135 l 2
 470 80 475 45 520 45 c 3
 620 45 690 155 690 270 c 0
 690 395 590 499 440 499 c 0
 260 499 100 320 100 130 c 0
 100 -15 205 -127 350 -127 c 0
 445 -127 523 -90 588 -30 c 1
 610 -51 l 1
 540 -126 440 -175 335 -175 c 0
 165 -175 40 -60 40 115 c 0
 40 335 240 545 460 545 c 0
 630 545 750 425 750 285 c 0
EndSplineSet
EndChar

StartChar: OE
Encoding: 338 338 135
Width: 820
Flags: HW
LayerCount: 2
Back
SplineSet
540 295 m 1
 545 338 l 1
 665 338 l 1
 693 338 703 346 710 388 c 2
 713 405 l 1
 745 405 l 1
 713 215 l 1
 680 215 l 1
 685 245 l 2
 692 287 685 295 657 295 c 1
 540 295 l 1
450 600 m 1
 850 600 l 1
 835 456 l 1
 800 456 l 1
 802 541 790 556 755 556 c 1
 565 556 l 1
 535 560 l 1
 445 560 l 1
 450 600 l 1
350 40 m 1
 450 40 l 1
 490 45 l 1
 690 45 l 1
 740 45 757 60 807 165 c 1
 842 165 l 1
 785 0 l 1
 345 0 l 1
 350 40 l 1
615 590 m 1
 510 10 l 1
 425 10 l 1
 530 590 l 1
 615 590 l 1
127 255 m 0
 127 120 193 33 298 33 c 0
 433 33 543 175 543 345 c 0
 543 480 477 568 372 568 c 0
 237 568 127 425 127 255 c 0
35 247 m 0
 35 447 212 612 387 612 c 0
 537 612 635 507 635 357 c 0
 635 157 458 -12 283 -12 c 0
 133 -12 35 97 35 247 c 0
-492 32 m 17
 -535 4 -587 -7 -635 -7 c 0
 -801 -7 -908 125 -879 297 c 0
 -850 466 -690 607 -527 607 c 0
 -479 607 -435 598 -400 575 c 9
 -417 470 l 17
 -408 525 -463 567 -540 567 c 0
 -658 567 -757 467 -783 315 c 0
 -810 158 -744 34 -621 34 c 0
 -549 34 -485 70 -476 125 c 9
 -492 32 l 17
-497 0 m 1
 -403 75 l 1
 -406 55 -398 45 -379 45 c 2
 -249 45 l 2
 -201 45 -183 59 -131 164 c 1
 -97 164 l 1
 -156 0 l 1
 -497 0 l 1
-317 580 m 1
 -412 20 l 1
 -497 0 l 1
 -395 600 l 1
 -317 580 l 1
-375 295 m 1
 -368 338 l 1
 -246 338 l 1
 -217 338 -208 346 -201 388 c 1
 -198 405 l 1
 -164 405 l 1
 -197 215 l 1
 -230 215 l 1
 -225 245 l 1
 -218 287 -224 295 -253 295 c 1
 -375 295 l 1
-395 600 m 1
 -59 600 l 1
 -81 455 l 1
 -115 455 l 1
 -109 545 -117 556 -160 556 c 2
 -341 556 l 1
 -395 600 l 1
EndSplineSet
Fore
SplineSet
465 45 m 1
 660 45 l 2
 710 45 727 60 777 165 c 1
 812 165 l 1
 755 0 l 1
 395 0 l 1
 465 45 l 1
417 104 m 2
 485 479 l 2
 494 529 453 564 375 564 c 0
 240 564 127 422 127 255 c 0
 127 123 192 37 295 37 c 0
 355 37 409 59 417 104 c 2
395 0 m 1
 345 0 325 -6 280 -6 c 0
 132 -6 35 100 35 247 c 0
 35 444 214 608 387 608 c 0
 432 608 455 600 510 600 c 1
 590 590 l 1
 485 10 l 1
 395 0 l 1
635 338 m 17
 663 338 673 346 680 388 c 2
 683 405 l 1
 715 405 l 1
 683 215 l 1
 650 215 l 1
 655 245 l 2
 662 287 655 295 627 295 c 1
 515 295 l 9
 520 338 l 25
 635 338 l 17
510 600 m 1
 825 600 l 1
 810 456 l 1
 775 456 l 1
 777 541 765 556 730 556 c 2
 560 556 l 1
 510 600 l 1
EndSplineSet
EndChar

StartChar: oe
Encoding: 339 339 136
Width: 560
Flags: HW
LayerCount: 2
Back
SplineSet
472 400 m 3
 517 400 557 370 557 325 c 3
 557 255 480 205 335 180 c 1
 340 212 l 1
 445 232 490 270 490 320 c 0
 490 340 473 358 453 358 c 3
 393 358 335 250 335 140 c 3
 335 85 365 55 400 55 c 3
 438 55 470 75 495 110 c 9
 518 90 l 1
 483 30 427 -10 370 -10 c 0
 310 -10 265 35 265 120 c 0
 265 260 372 400 472 400 c 3
110 145 m 0
 110 75 128 30 168 30 c 0
 222 30 270 145 270 245 c 0
 270 315 252 360 212 360 c 0
 158 360 110 245 110 145 c 0
30 135 m 0
 30 265 122 400 227 400 c 0
 297 400 350 338 350 255 c 0
 350 125 258 -10 153 -10 c 0
 83 -10 30 52 30 135 c 0
EndSplineSet
Fore
SplineSet
30 135 m 0
 30 265 121 400 225 400 c 0
 277 400 315 365 330 310 c 1
 367 365 416 400 467 400 c 0
 512 400 552 370 552 325 c 0
 552 255 475 205 330 180 c 1
 335 212 l 1
 440 232 485 270 485 320 c 0
 485 340 468 358 448 358 c 0
 388 358 330 250 330 140 c 0
 330 85 360 55 395 55 c 0
 433 55 465 75 490 110 c 1
 513 90 l 1
 478 30 422 -10 367 -10 c 0
 319 -10 287 23 277 73 c 1
 247 25 203 -10 151 -10 c 0
 82 -10 30 52 30 135 c 0
110 145 m 0
 110 75 127 30 166 30 c 0
 218 30 270 145 270 245 c 0
 270 315 248 360 210 360 c 0
 157 360 110 245 110 145 c 0
EndSplineSet
EndChar

StartChar: germandbls
Encoding: 223 223 137
Width: 475
Flags: HW
LayerCount: 2
Back
SplineSet
497 545 m 3
 497 455 347 393 347 348 c 3
 347 298 428 200 428 125 c 3
 428 55 353 -10 273 -10 c 3
 231 -10 200 12 200 42 c 3
 200 62 220 80 240 80 c 3
 270 80 275 42 310 42 c 3
 335 42 362 65 362 90 c 3
 362 145 275 255 275 320 c 3
 275 384 425 440 425 530 c 3
 425 570 385 610 335 610 c 1
 265 610 215.662056317 558.052900945 200 458 c 2
 115 -85 l 2
 99 -190 20 -260 -45 -260 c 1
 -75 -260 -95 -245 -95 -225 c 1
 -95 -201 -74 -180 -50 -180 c 1
 -25 -180 -21 -198 1 -198 c 1
 21 -198 36 -170 47 -95 c 2
 126 435 l 2
 147 575 255 655 360 655 c 1
 435 655 497 600 497 545 c 3
-73 535 m 3
 -73 445 -225 385 -225 340 c 3
 -225 290 -147 200 -147 125 c 3
 -147 55 -222 -10 -302 -10 c 3
 -344 -10 -375 12 -375 42 c 3
 -375 62 -355 80 -335 80 c 3
 -305 80 -300 42 -265 42 c 3
 -240 42 -213 65 -213 90 c 3
 -213 145 -295 240 -295 310 c 3
 -295 375 -145 430 -145 520 c 3
 -145 560 -185 610 -235 610 c 1
 -305 610 -354.337890625 558.052734375 -370 458 c 2
 -455 -85 l 2
 -471 -190 -550 -260 -615 -260 c 1
 -645 -260 -665 -245 -665 -225 c 1
 -665 -201 -644 -180 -620 -180 c 1
 -595 -180 -591 -198 -569 -198 c 1
 -549 -198 -534 -170 -523 -95 c 2
 -444 435 l 2
 -423 575 -315 655 -210 655 c 1
 -135 655 -73 595 -73 535 c 3
-598 535 m 3
 -598 445 -725 385 -725 340 c 3
 -725 290 -647 200 -647 125 c 3
 -647 55 -722 -10 -802 -10 c 3
 -844 -10 -875 12 -875 42 c 3
 -875 62 -855 80 -835 80 c 3
 -805 80 -800 42 -765 42 c 3
 -740 42 -713 65 -713 90 c 3
 -713 145 -795 240 -795 310 c 3
 -795 375 -670 415 -670 520 c 3
 -670 565 -710 605 -765 605 c 1
 -825 605 -864 558 -880 458 c 2
 -965 -85 l 2
 -981 -190 -1060 -260 -1125 -260 c 1
 -1155 -260 -1175 -245 -1175 -225 c 1
 -1175 -201 -1154 -180 -1130 -180 c 1
 -1105 -180 -1101 -198 -1079 -198 c 1
 -1059 -198 -1044 -170 -1033 -95 c 2
 -954 435 l 2
 -933 575 -835 655 -730 655 c 1
 -660 655 -598 595 -598 535 c 3
-1140 525 m 3
 -1140 425 -1265 365 -1265 330 c 3
 -1265 280 -1187 200 -1187 125 c 3
 -1187 55 -1262 -10 -1342 -10 c 3
 -1384 -10 -1415 12 -1415 42 c 3
 -1415 62 -1395 80 -1375 80 c 3
 -1345 80 -1340 42 -1305 42 c 3
 -1280 42 -1253 65 -1253 90 c 3
 -1253 145 -1335 230 -1335 300 c 3
 -1335 360 -1210 390 -1210 510 c 3
 -1210 555 -1245 605 -1305 605 c 1
 -1365 605 -1404 558 -1420 458 c 2
 -1505 -85 l 2
 -1521 -190 -1600 -260 -1665 -260 c 1
 -1695 -260 -1715 -245 -1715 -225 c 1
 -1715 -201 -1694 -180 -1670 -180 c 1
 -1645 -180 -1641 -198 -1619 -198 c 1
 -1599 -198 -1584 -170 -1573 -95 c 2
 -1494 435 l 2
 -1473 575 -1375 655 -1270 655 c 1
 -1215 655 -1140 595 -1140 525 c 3
-1960 275 m 3
 -1960 339 -1885 400 -1820 400 c 3
 -1775 400 -1747 380 -1747 355 c 3
 -1747 335 -1765 315 -1785 315 c 3
 -1815 315 -1818 350 -1853 350 c 3
 -1875 350 -1894 330 -1894 308 c 3
 -1894 258 -1797 195 -1797 125 c 3
 -1797 55 -1872 -10 -1952 -10 c 3
 -1994 -10 -2025 12 -2025 42 c 3
 -2025 62 -2005 80 -1985 80 c 3
 -1955 80 -1950 42 -1915 42 c 3
 -1890 42 -1865 63 -1865 88 c 3
 -1865 140 -1960 203 -1960 275 c 3
-2115 -85 m 2
 -2131 -190 -2210 -260 -2275 -260 c 1
 -2305 -260 -2325 -245 -2325 -225 c 1
 -2325 -201 -2304 -180 -2280 -180 c 1
 -2255 -180 -2251 -198 -2229 -198 c 1
 -2209 -198 -2194 -170 -2183 -95 c 2
 -2101 455 l 2
 -2083 577 -1985 655 -1910 655 c 1
 -1885 655 -1865 640 -1865 620 c 1
 -1865 595 -1888 570 -1912 570 c 1
 -1939 570 -1946 592 -1970 592 c 1
 -1999 592 -2017 540 -2029 465 c 2
 -2115 -85 l 2
EndSplineSet
Fore
SplineSet
492 545 m 3
 492 460 342 393 342 348 c 3
 342 298 423 200 423 125 c 3
 423 55 348 -10 268 -10 c 3
 226 -10 195 12 195 42 c 3
 195 62 215 80 235 80 c 3
 265 80 270 42 305 42 c 3
 330 42 357 65 357 90 c 3
 357 145 270 255 270 320 c 3
 270 382 420 443 420 535 c 3
 420 570 380 610 330 610 c 1
 260 610 211 550 195 450 c 2
 110 -85 l 2
 93 -190 15 -260 -50 -260 c 1
 -80 -260 -100 -245 -100 -225 c 1
 -100 -201 -79 -180 -55 -180 c 1
 -30 -180 -26 -198 -4 -198 c 1
 16 -198 31 -170 42 -95 c 2
 120 420 l 2
 141 560 250 655 355 655 c 1
 430 655 492 600 492 545 c 3
EndSplineSet
EndChar

StartChar: gravecomb
Encoding: 768 768 138
Width: 0
Flags: HW
AnchorPoint: "accent_above" 35 455 mark 0
LayerCount: 2
Fore
SplineSet
0 640 m 1
 60 455 l 1
 25 455 l 1
 -72 625 l 1
 0 640 l 1
EndSplineSet
EndChar

StartChar: acutecomb
Encoding: 769 769 139
Width: 0
Flags: HW
AnchorPoint: "accent_above" -35 455 mark 0
LayerCount: 2
Back
SplineSet
0 655 m 1
 75 640 l 1
 -35 460 l 1
 -70 460 l 1
 0 655 l 1
EndSplineSet
Fore
SplineSet
25 640 m 1
 100 625 l 1
 -30 455 l 1
 -65 455 l 1
 25 640 l 1
EndSplineSet
EndChar

StartChar: uni0302
Encoding: 770 770 140
Width: 0
Flags: HW
AnchorPoint: "accent_above" 0 455 mark 0
LayerCount: 2
Back
SplineSet
-325 640 m 1
 -215 455 l 1
 -253 455 l 1
 -340 550 l 1
 -427 455 l 1
 -465 455 l 1
 -355 640 l 1
 -325 640 l 1
31 640 m 1
 109 455 l 1
 71 455 l 1
 0 550 l 1
 -103 455 l 1
 -141 455 l 1
 1 640 l 1
 31 640 l 1
EndSplineSet
Fore
SplineSet
45 640 m 1
 125 455 l 1
 88 455 l 1
 18 558 l 1
 -85 455 l 1
 -125 455 l 1
 15 640 l 1
 45 640 l 1
EndSplineSet
EndChar

StartChar: tildecomb
Encoding: 771 771 141
Width: 0
Flags: HW
AnchorPoint: "accent_above" 0 455 mark 0
LayerCount: 2
Back
SplineSet
145 562 m 1
 100 507 84 490 66 490 c 0
 52 490 37 495 12 502 c 2
 -55 522 l 1
 -100 481 l 1
 -125 503 l 1
 -80 558 -64 575 -46 575 c 0
 -32 575 -17 570 8 563 c 2
 75 543 l 1
 120 584 l 1
 145 562 l 1
-230 563 m 17
 -257 525 -289 485 -314 485 c 3
 -334 485 -355 495 -385 505 c 0
 -400 510 -419 517 -434 517 c 3
 -451 517 -468 500 -485 480 c 9
 -510 502 l 17
 -483 540 -451 580 -426 580 c 3
 -406 580 -385 570 -355 560 c 0
 -340 555 -321 548 -306 548 c 3
 -289 548 -272 565 -255 585 c 9
 -230 563 l 17
EndSplineSet
Fore
SplineSet
145 562 m 1
 100 508 84 492 66 492 c 0
 54 492 44 494 20 501 c 2
 -55 522 l 1
 -100 481 l 1
 -125 503 l 1
 -80 557 -64 573 -46 573 c 0
 -34 573 -24 571 0 564 c 2
 75 543 l 1
 120 584 l 1
 145 562 l 1
EndSplineSet
EndChar

StartChar: uni0304
Encoding: 772 772 142
Width: 0
Flags: HW
AnchorPoint: "accent_above" 0 455 mark 0
LayerCount: 2
Fore
SplineSet
-95 552 m 1
 115 552 l 1
 115 502 l 1
 -95 502 l 1
 -95 552 l 1
EndSplineSet
EndChar

StartChar: uni0306
Encoding: 774 774 143
Width: 700
Flags: HW
LayerCount: 2
Fore
SplineSet
100 500 m 1
 600 500 l 1
 600 0 l 1
 100 0 l 1
 100 500 l 1
EndSplineSet
EndChar

StartChar: uni0307
Encoding: 775 775 144
Width: 0
Flags: HW
AnchorPoint: "accent_above" 0 455 mark 0
LayerCount: 2
Back
SplineSet
-45 540 m 0
 -45 565 -25 585 0 585 c 0
 25 585 45 565 45 540 c 0
 45 515 25 495 0 495 c 0
 -25 495 -45 515 -45 540 c 0
EndSplineSet
Fore
SplineSet
-33 532 m 0
 -33 559 -8 585 19 585 c 0
 38 585 53 569 53 548 c 0
 53 521 28 495 1 495 c 0
 -18 495 -33 511 -33 532 c 0
EndSplineSet
EndChar

StartChar: uni0308
Encoding: 776 776 145
Width: 0
Flags: HW
AnchorPoint: "accent_above" 0 455 mark 0
LayerCount: 2
Back
SplineSet
0 540 m 0
 0 564 20 584 44 584 c 0
 68 584 88 564 88 540 c 0
 88 516 68 496 44 496 c 0
 20 496 0 516 0 540 c 0
-150 540 m 0
 -150 564 -130 584 -106 584 c 0
 -82 584 -62 564 -62 540 c 0
 -62 516 -82 496 -106 496 c 0
 -130 496 -150 516 -150 540 c 0
EndSplineSet
Fore
SplineSet
-105 532 m 0
 -105 559 -81 584 -54 584 c 0
 -35 584 -21 569 -21 548 c 0
 -21 521 -45 496 -72 496 c 0
 -91 496 -105 511 -105 532 c 0
41 532 m 0
 41 559 65 584 92 584 c 0
 111 584 125 569 125 548 c 0
 125 521 101 496 74 496 c 0
 55 496 41 511 41 532 c 0
EndSplineSet
EndChar

StartChar: uni030A
Encoding: 778 778 146
Width: 0
Flags: HW
AnchorPoint: "accent_above" 0 455 mark 0
LayerCount: 2
Back
SplineSet
-90 545 m 0
 -81 595 -33 637 18 637 c 0
 68 637 99 597 90 547 c 0
 81 497 33 455 -18 455 c 0
 -68 455 -99 495 -90 545 c 0
-42 552 m 0
 -49 512 -32 486 -8 486 c 0
 16 486 36 507 42 540 c 0
 49 580 32 606 8 606 c 0
 -16 606 -36 585 -42 552 c 0
EndSplineSet
Fore
SplineSet
-82 527 m 0
 -82 582 -34 637 28 637 c 0
 70 637 102 607 102 565 c 0
 102 510 54 455 -8 455 c 0
 -50 455 -82 485 -82 527 c 0
-35 535 m 0
 -35 507 -21 486 2 486 c 0
 32 486 55 519 55 557 c 0
 55 585 41 606 18 606 c 0
 -12 606 -35 573 -35 535 c 0
EndSplineSet
EndChar

StartChar: uni030B
Encoding: 779 779 147
Width: 700
Flags: HW
LayerCount: 2
Fore
SplineSet
100 500 m 1
 600 500 l 1
 600 0 l 1
 100 0 l 1
 100 500 l 1
EndSplineSet
EndChar

StartChar: uni030C
Encoding: 780 780 148
Width: 0
Flags: HW
AnchorPoint: "accent_above" 0 455 mark 0
LayerCount: 2
Back
SplineSet
45 640 m 1
 125 455 l 1
 88 455 l 1
 18 558 l 1
 -85 455 l 1
 -125 455 l 1
 15 640 l 1
 45 640 l 1
EndSplineSet
Fore
Refer: 140 770 N -1 0 0 -1 30 1095 2
EndChar

StartChar: uni0327
Encoding: 807 807 149
Width: 0
Flags: HW
AnchorPoint: "accent_below" 0 25 mark 0
LayerCount: 2
Back
SplineSet
-10 15 m 1
 33 15 l 25
 -2 -45 l 1
 40 -69 62 -95 62 -127 c 3
 62 -189 0 -240 -100 -240 c 1
 -105 -205 l 1
 -40 -203 -5 -183 -5 -148 c 3
 -5 -103 -60 -103 -60 -83 c 3
 -60 -73 -55 -60 -40 -35 c 2
 -10 15 l 1
-255 25 m 1
 -210 25 l 25
 -247 -35 l 1
 -207 -52 -180 -77 -180 -115 c 3
 -180 -185 -250 -230 -365 -230 c 1
 -365 -195 l 1
 -290 -195 -247 -170 -247 -135 c 3
 -247 -105 -275 -89 -315 -77 c 9
 -315 -73 l 1
 -255 25 l 1
EndSplineSet
Fore
SplineSet
-15 25 m 1
 25 25 l 25
 -14 -44 l 1
 28 -68 52 -95 52 -127 c 3
 52 -187 -10 -235 -105 -235 c 1
 -110 -200 l 1
 -50 -198 -15 -177 -15 -142 c 3
 -15 -105 -70 -100 -70 -80 c 3
 -70 -72 -64.689453125 -60.181640625 -50 -35 c 2
 -15 25 l 1
EndSplineSet
EndChar

StartChar: uni0328
Encoding: 808 808 150
Width: 700
Flags: HW
LayerCount: 2
Fore
SplineSet
100 500 m 1
 600 500 l 1
 600 0 l 1
 100 0 l 1
 100 500 l 1
EndSplineSet
EndChar

StartChar: trademark
Encoding: 8482 8482 151
Width: 515
Flags: HW
LayerCount: 2
Back
SplineSet
260 420 m 1
 260 415 l 1
 275 415 l 1
 275 420 l 1
 260 420 l 1
260 445 m 1
 260 440 l 1
 275 440 l 1
 275 445 l 1
 260 445 l 1
265 405 m 1
 265 380 l 1
 270 380 l 1
 270 405 l 1
 265 405 l 1
260 410 m 1
 260 405 l 1
 275 405 l 1
 275 410 l 1
 260 410 l 1
265 440 m 1
 265 420 l 1
 270 420 l 1
 270 440 l 1
 265 440 l 1
265 465 m 1
 265 460 l 1
 275 460 l 1
 275 465 l 1
 265 465 l 1
265 480 m 1
 265 475 l 1
 280 475 l 1
 280 480 l 1
 265 480 l 1
260 480 m 1
 260 450 l 1
 265 450 l 1
 265 480 l 1
 260 480 l 1
260 510 m 1
 260 490 l 1
 265 490 l 1
 265 510 l 1
 260 510 l 1
275 510 m 1
 275 490 l 1
 280 490 l 1
 280 510 l 1
 275 510 l 1
265 490 m 1
 265 485 l 1
 275 485 l 1
 275 490 l 1
 265 490 l 1
265 515 m 1
 265 510 l 1
 275 510 l 1
 275 515 l 1
 265 515 l 1
275 530 m 1
 275 520 l 1
 280 520 l 1
 280 530 l 1
 275 530 l 1
265 535 m 1
 265 530 l 1
 275 530 l 1
 275 535 l 1
 265 535 l 1
275 545 m 1
 275 535 l 1
 280 535 l 1
 280 545 l 1
 275 545 l 1
265 550 m 1
 265 545 l 1
 275 545 l 1
 275 550 l 1
 265 550 l 1
260 550 m 1
 260 520 l 1
 265 520 l 1
 265 550 l 1
 260 550 l 1
265 570 m 1
 265 565 l 1
 275 565 l 1
 275 570 l 1
 265 570 l 1
275 580 m 1
 275 570 l 1
 280 570 l 1
 280 580 l 1
 275 580 l 1
265 585 m 1
 265 580 l 1
 275 580 l 1
 275 585 l 1
 265 585 l 1
260 585 m 1
 260 555 l 1
 265 555 l 1
 265 585 l 1
 260 585 l 1
445 600 m 1
 495 600 l 1
 495 370 l 1
 445 370 l 1
 445 600 l 1
245 600 m 1
 295 600 l 1
 295 370 l 1
 245 370 l 1
 245 600 l 1
-50 445 m 1
 -50 440 l 1
 -35 440 l 1
 -35 445 l 1
 -50 445 l 1
-50 425 m 1
 -50 420 l 1
 -35 420 l 1
 -35 425 l 1
 -50 425 l 1
-45 440 m 1
 -45 425 l 1
 -40 425 l 1
 -40 440 l 1
 -45 440 l 1
-50 465 m 1
 -50 460 l 1
 -35 460 l 1
 -35 465 l 1
 -50 465 l 1
-50 475 m 1
 -50 470 l 1
 -30 470 l 1
 -30 475 l 1
 -50 475 l 1
-55 475 m 1
 -55 450 l 1
 -50 450 l 1
 -50 475 l 1
 -55 475 l 1
-55 500 m 1
 -55 485 l 1
 -50 485 l 1
 -50 500 l 1
 -55 500 l 1
-35 500 m 1
 -35 485 l 1
 -30 485 l 1
 -30 500 l 1
 -35 500 l 1
-50 485 m 1
 -50 480 l 1
 -35 480 l 1
 -35 485 l 1
 -50 485 l 1
-50 505 m 1
 -50 500 l 1
 -35 500 l 1
 -35 505 l 1
 -50 505 l 1
-35 515 m 1
 -35 510 l 1
 -30 510 l 1
 -30 515 l 1
 -35 515 l 1
-50 520 m 1
 -50 515 l 1
 -35 515 l 1
 -35 520 l 1
 -50 520 l 1
-35 530 m 1
 -35 520 l 1
 -30 520 l 1
 -30 530 l 1
 -35 530 l 1
-50 535 m 1
 -50 530 l 1
 -35 530 l 1
 -35 535 l 1
 -50 535 l 1
-55 535 m 1
 -55 510 l 1
 -50 510 l 1
 -50 535 l 1
 -55 535 l 1
-50 550 m 1
 -50 545 l 1
 -35 545 l 1
 -35 550 l 1
 -50 550 l 1
-35 560 m 1
 -35 550 l 1
 -30 550 l 1
 -30 560 l 1
 -35 560 l 1
-50 565 m 1
 -50 560 l 1
 -35 560 l 1
 -35 565 l 1
 -50 565 l 1
-55 565 m 1
 -55 540 l 1
 -50 540 l 1
 -50 565 l 1
 -55 565 l 1
-45 410 m 1
 -45 390 l 1
 -40 390 l 1
 -40 410 l 1
 -45 410 l 1
-55 415 m 1
 -55 410 l 1
 -30 410 l 1
 -30 415 l 1
 -55 415 l 1
80 700 m 1
 80 680 l 1
 85 680 l 1
 85 700 l 1
 80 700 l 1
95 700 m 1
 95 680 l 1
 100 680 l 1
 100 700 l 1
 95 700 l 1
85 680 m 1
 85 675 l 1
 95 675 l 1
 95 680 l 1
 85 680 l 1
85 705 m 1
 85 700 l 1
 95 700 l 1
 95 705 l 1
 85 705 l 1
70 685 m 1
 70 675 l 1
 75 675 l 1
 75 685 l 1
 70 685 l 1
-15 700 m 1
 -15 680 l 1
 -10 680 l 1
 -10 700 l 1
 -15 700 l 1
0 700 m 1
 0 680 l 1
 5 680 l 1
 5 700 l 1
 0 700 l 1
-10 680 m 1
 -10 675 l 1
 0 675 l 1
 0 680 l 1
 -10 680 l 1
-10 705 m 1
 -10 700 l 1
 0 700 l 1
 0 705 l 1
 -10 705 l 1
105 705 m 1
 105 675 l 1
 110 675 l 1
 110 705 l 1
 105 705 l 1
110 680 m 1
 110 675 l 1
 120 675 l 1
 120 680 l 1
 110 680 l 1
60 690 m 1
 60 685 l 1
 70 685 l 1
 70 690 l 1
 60 690 l 1
70 700 m 1
 70 690 l 1
 75 690 l 1
 75 700 l 1
 70 700 l 1
60 705 m 1
 60 700 l 1
 70 700 l 1
 70 705 l 1
 60 705 l 1
55 705 m 1
 55 675 l 1
 60 675 l 1
 60 705 l 1
 55 705 l 1
40 700 m 1
 40 675 l 1
 45 675 l 1
 45 700 l 1
 40 700 l 1
35 705 m 1
 35 700 l 1
 50 700 l 1
 50 705 l 1
 35 705 l 1
20 690 m 1
 20 680 l 1
 25 680 l 1
 25 690 l 1
 20 690 l 1
15 700 m 1
 15 690 l 1
 20 690 l 1
 20 700 l 1
 15 700 l 1
10 705 m 1
 10 675 l 1
 15 675 l 1
 15 705 l 1
 10 705 l 1
25 705 m 1
 25 675 l 1
 30 675 l 1
 30 705 l 1
 25 705 l 1
-40 700 m 1
 -40 680 l 1
 -35 680 l 1
 -35 700 l 1
 -40 700 l 1
-25 685 m 1
 -25 680 l 1
 -20 680 l 1
 -20 685 l 1
 -25 685 l 1
-25 700 m 1
 -25 695 l 1
 -20 695 l 1
 -20 700 l 1
 -25 700 l 1
-35 680 m 1
 -35 675 l 1
 -25 675 l 1
 -25 680 l 1
 -35 680 l 1
-35 705 m 1
 -35 700 l 1
 -25 700 l 1
 -25 705 l 1
 -35 705 l 1
-125 385 m 1
 -125 360 l 1
 -120 360 l 1
 -120 385 l 1
 -125 385 l 1
-120 365 m 1
 -120 360 l 1
 -100 360 l 1
 -100 365 l 1
 -120 365 l 1
-125 410 m 1
 -125 395 l 1
 -120 395 l 1
 -120 410 l 1
 -125 410 l 1
-105 410 m 1
 -105 395 l 1
 -100 395 l 1
 -100 410 l 1
 -105 410 l 1
-120 395 m 1
 -120 390 l 1
 -105 390 l 1
 -105 395 l 1
 -120 395 l 1
-120 415 m 1
 -120 410 l 1
 -105 410 l 1
 -105 415 l 1
 -120 415 l 1
-105 430 m 1
 -105 420 l 1
 -100 420 l 1
 -100 430 l 1
 -105 430 l 1
-120 435 m 1
 -120 430 l 1
 -105 430 l 1
 -105 435 l 1
 -120 435 l 1
-105 440 m 1
 -105 435 l 1
 -100 435 l 1
 -100 440 l 1
 -105 440 l 1
-120 445 m 1
 -120 440 l 1
 -105 440 l 1
 -105 445 l 1
 -120 445 l 1
-125 445 m 1
 -125 420 l 1
 -120 420 l 1
 -120 445 l 1
 -125 445 l 1
-115 470 m 1
 -115 450 l 1
 -110 450 l 1
 -110 470 l 1
 -115 470 l 1
-125 475 m 1
 -125 470 l 1
 -100 470 l 1
 -100 475 l 1
 -125 475 l 1
-115 495 m 1
 -115 490 l 1
 -110 490 l 1
 -110 495 l 1
 -115 495 l 1
-110 490 m 1
 -110 485 l 1
 -105 485 l 1
 -105 490 l 1
 -110 490 l 1
-120 500 m 1
 -120 495 l 1
 -115 495 l 1
 -115 500 l 1
 -120 500 l 1
-125 505 m 1
 -125 480 l 1
 -120 480 l 1
 -120 505 l 1
 -125 505 l 1
-105 505 m 1
 -105 480 l 1
 -100 480 l 1
 -100 505 l 1
 -105 505 l 1
-125 530 m 1
 -125 515 l 1
 -120 515 l 1
 -120 530 l 1
 -125 530 l 1
-105 530 m 1
 -105 515 l 1
 -100 515 l 1
 -100 530 l 1
 -105 530 l 1
-120 515 m 1
 -120 510 l 1
 -105 510 l 1
 -105 515 l 1
 -120 515 l 1
-120 535 m 1
 -120 530 l 1
 -105 530 l 1
 -105 535 l 1
 -120 535 l 1
-125 560 m 1
 -125 545 l 1
 -120 545 l 1
 -120 560 l 1
 -125 560 l 1
-105 550 m 1
 -105 545 l 1
 -100 545 l 1
 -100 550 l 1
 -105 550 l 1
-105 560 m 1
 -105 555 l 1
 -100 555 l 1
 -100 560 l 1
 -105 560 l 1
-120 545 m 1
 -120 540 l 1
 -105 540 l 1
 -105 545 l 1
 -120 545 l 1
-120 565 m 1
 -120 560 l 1
 -105 560 l 1
 -105 565 l 1
 -120 565 l 1
135 650 m 1
 135 625 l 1
 140 625 l 1
 140 650 l 1
 135 650 l 1
130 655 m 1
 130 650 l 1
 145 650 l 1
 145 655 l 1
 130 655 l 1
120 655 m 1
 120 625 l 1
 125 625 l 1
 125 655 l 1
 120 655 l 1
105 640 m 1
 105 635 l 1
 115 635 l 1
 115 640 l 1
 105 640 l 1
105 655 m 1
 105 650 l 1
 115 650 l 1
 115 655 l 1
 105 655 l 1
100 655 m 1
 100 625 l 1
 105 625 l 1
 105 655 l 1
 100 655 l 1
75 650 m 1
 75 630 l 1
 80 630 l 1
 80 650 l 1
 75 650 l 1
90 650 m 1
 90 630 l 1
 95 630 l 1
 95 650 l 1
 90 650 l 1
80 630 m 1
 80 625 l 1
 90 625 l 1
 90 630 l 1
 80 630 l 1
80 655 m 1
 80 650 l 1
 90 650 l 1
 90 655 l 1
 80 655 l 1
65 635 m 1
 65 625 l 1
 70 625 l 1
 70 635 l 1
 65 635 l 1
55 640 m 1
 55 635 l 1
 65 635 l 1
 65 640 l 1
 55 640 l 1
65 650 m 1
 65 640 l 1
 70 640 l 1
 70 650 l 1
 65 650 l 1
55 655 m 1
 55 650 l 1
 65 650 l 1
 65 655 l 1
 55 655 l 1
50 655 m 1
 50 625 l 1
 55 625 l 1
 55 655 l 1
 50 655 l 1
30 640 m 1
 30 635 l 1
 40 635 l 1
 40 640 l 1
 30 640 l 1
40 650 m 1
 40 640 l 1
 45 640 l 1
 45 650 l 1
 40 650 l 1
30 655 m 1
 30 650 l 1
 40 650 l 1
 40 655 l 1
 30 655 l 1
25 655 m 1
 25 625 l 1
 30 625 l 1
 30 655 l 1
 25 655 l 1
436 386 m 1
 534 386 l 1
 534 370 l 1
 436 370 l 1
 436 386 l 1
492 606 m 1
 502 378 l 1
 468 378 l 1
 458 610 l 1
 492 606 l 1
232 386 m 1
 314 386 l 1
 314 370 l 1
 232 370 l 1
 232 386 l 1
293 584 m 1
 281 378 l 1
 262 378 l 1
 274 584 l 1
 293 584 l 1
366 367 m 1
 286 568 l 1
 274 584 l 1
 270 590 263 594 251 594 c 1
 238 594 l 1
 238 610 l 1
 308 610 l 1
 390 400 l 1
 366 367 l 1
458 610 m 1
 526 610 l 1
 526 594 l 1
 474 594 l 1
 380 367 l 1
 366 367 l 1
 376 402 l 1
 458 610 l 1
51 592 m 1
 38 592 32 586 27 552 c 1
 12 552 l 1
 16 620 l 1
 30 620 l 1
 30 612 34 610 42 610 c 1
 190 610 l 1
 200 610 206 612 206 620 c 1
 220 620 l 1
 222 552 l 1
 207 552 l 1
 204 588 198 592 184 592 c 1
 51 592 l 1
66 386 m 1
 168 386 l 1
 168 370 l 1
 66 370 l 1
 66 386 l 1
134 602 m 1
 134 378 l 1
 100 378 l 1
 100 602 l 1
 134 602 l 1
EndSplineSet
Fore
SplineSet
254 426 m 1
 254 424 l 1
 260 424 l 1
 260 426 l 1
 254 426 l 1
254 436 m 1
 254 434 l 1
 260 434 l 1
 260 436 l 1
 254 436 l 1
256 399 m 1
 256 389 l 1
 258 389 l 1
 258 399 l 1
 256 399 l 1
254 401 m 1
 254 399 l 1
 260 399 l 1
 260 401 l 1
 254 401 l 1
256 434 m 1
 256 426 l 1
 258 426 l 1
 258 434 l 1
 256 434 l 1
258 465 m 1
 258 463 l 1
 262 463 l 1
 262 465 l 1
 258 465 l 1
258 471 m 1
 258 469 l 1
 264 469 l 1
 264 471 l 1
 258 471 l 1
256 471 m 1
 256 459 l 1
 258 459 l 1
 258 471 l 1
 256 471 l 1
256 504 m 1
 256 496 l 1
 258 496 l 1
 258 504 l 1
 256 504 l 1
262 504 m 1
 262 496 l 1
 264 496 l 1
 264 504 l 1
 262 504 l 1
258 496 m 1
 258 494 l 1
 262 494 l 1
 262 496 l 1
 258 496 l 1
258 506 m 1
 258 504 l 1
 262 504 l 1
 262 506 l 1
 258 506 l 1
262 533 m 1
 262 529 l 1
 264 529 l 1
 264 533 l 1
 262 533 l 1
258 535 m 1
 258 533 l 1
 262 533 l 1
 262 535 l 1
 258 535 l 1
262 539 m 1
 262 535 l 1
 264 535 l 1
 264 539 l 1
 262 539 l 1
258 541 m 1
 258 539 l 1
 262 539 l 1
 262 541 l 1
 258 541 l 1
256 541 m 1
 256 529 l 1
 258 529 l 1
 258 541 l 1
 256 541 l 1
258 570 m 1
 258 568 l 1
 262 568 l 1
 262 570 l 1
 258 570 l 1
262 574 m 1
 262 570 l 1
 264 570 l 1
 264 574 l 1
 262 574 l 1
258 576 m 1
 258 574 l 1
 262 574 l 1
 262 576 l 1
 258 576 l 1
256 576 m 1
 256 564 l 1
 258 564 l 1
 258 576 l 1
 256 576 l 1
235 600 m 1
 312 600 l 1
 366 460 l 1
 410 600 l 1
 485 600 l 1
 485 370 l 1
 435 370 l 1
 435 540 l 1
 380 370 l 1
 350 370 l 1
 285 540 l 1
 285 370 l 1
 235 370 l 1
 235 600 l 1
161 584 m 1
 161 576 l 1
 163 576 l 1
 163 584 l 1
 161 584 l 1
167 584 m 1
 167 576 l 1
 169 576 l 1
 169 584 l 1
 167 584 l 1
163 576 m 1
 163 574 l 1
 167 574 l 1
 167 576 l 1
 163 576 l 1
163 586 m 1
 163 584 l 1
 167 584 l 1
 167 586 l 1
 163 586 l 1
142 578 m 1
 142 574 l 1
 144 574 l 1
 144 578 l 1
 142 578 l 1
66 584 m 1
 66 576 l 1
 68 576 l 1
 68 584 l 1
 66 584 l 1
72 584 m 1
 72 576 l 1
 74 576 l 1
 74 584 l 1
 72 584 l 1
68 576 m 1
 68 574 l 1
 72 574 l 1
 72 576 l 1
 68 576 l 1
68 586 m 1
 68 584 l 1
 72 584 l 1
 72 586 l 1
 68 586 l 1
185 586 m 1
 185 574 l 1
 187 574 l 1
 187 586 l 1
 185 586 l 1
187 576 m 1
 187 574 l 1
 191 574 l 1
 191 576 l 1
 187 576 l 1
138 580 m 1
 138 578 l 1
 142 578 l 1
 142 580 l 1
 138 580 l 1
142 584 m 1
 142 580 l 1
 144 580 l 1
 144 584 l 1
 142 584 l 1
138 586 m 1
 138 584 l 1
 142 584 l 1
 142 586 l 1
 138 586 l 1
136 586 m 1
 136 574 l 1
 138 574 l 1
 138 586 l 1
 136 586 l 1
117 584 m 1
 117 574 l 1
 119 574 l 1
 119 584 l 1
 117 584 l 1
115 586 m 1
 115 584 l 1
 121 584 l 1
 121 586 l 1
 115 586 l 1
95 580 m 1
 95 576 l 1
 97 576 l 1
 97 580 l 1
 95 580 l 1
93 584 m 1
 93 580 l 1
 95 580 l 1
 95 584 l 1
 93 584 l 1
91 586 m 1
 91 574 l 1
 93 574 l 1
 93 586 l 1
 91 586 l 1
97 586 m 1
 97 574 l 1
 99 574 l 1
 99 586 l 1
 97 586 l 1
41 584 m 1
 41 576 l 1
 43 576 l 1
 43 584 l 1
 41 584 l 1
47 578 m 1
 47 576 l 1
 49 576 l 1
 49 578 l 1
 47 578 l 1
47 584 m 1
 47 582 l 1
 49 582 l 1
 49 584 l 1
 47 584 l 1
43 576 m 1
 43 574 l 1
 47 574 l 1
 47 576 l 1
 43 576 l 1
43 586 m 1
 43 584 l 1
 47 584 l 1
 47 586 l 1
 43 586 l 1
109 432 m 1
 109 430 l 1
 115 430 l 1
 115 432 l 1
 109 432 l 1
109 424 m 1
 109 422 l 1
 115 422 l 1
 115 424 l 1
 109 424 l 1
111 430 m 1
 111 424 l 1
 113 424 l 1
 113 430 l 1
 111 430 l 1
109 458 m 1
 109 456 l 1
 115 456 l 1
 115 458 l 1
 109 458 l 1
109 462 m 1
 109 460 l 1
 117 460 l 1
 117 462 l 1
 109 462 l 1
107 462 m 1
 107 452 l 1
 109 452 l 1
 109 462 l 1
 107 462 l 1
107 490 m 1
 107 484 l 1
 109 484 l 1
 109 490 l 1
 107 490 l 1
115 490 m 1
 115 484 l 1
 117 484 l 1
 117 490 l 1
 115 490 l 1
109 484 m 1
 109 482 l 1
 115 482 l 1
 115 484 l 1
 109 484 l 1
109 492 m 1
 109 490 l 1
 115 490 l 1
 115 492 l 1
 109 492 l 1
115 514 m 1
 115 512 l 1
 117 512 l 1
 117 514 l 1
 115 514 l 1
109 516 m 1
 109 514 l 1
 115 514 l 1
 115 516 l 1
 109 516 l 1
115 520 m 1
 115 516 l 1
 117 516 l 1
 117 520 l 1
 115 520 l 1
109 522 m 1
 109 520 l 1
 115 520 l 1
 115 522 l 1
 109 522 l 1
107 522 m 1
 107 512 l 1
 109 512 l 1
 109 522 l 1
 107 522 l 1
109 546 m 1
 109 544 l 1
 115 544 l 1
 115 546 l 1
 109 546 l 1
115 550 m 1
 115 546 l 1
 117 546 l 1
 117 550 l 1
 115 550 l 1
109 552 m 1
 109 550 l 1
 115 550 l 1
 115 552 l 1
 109 552 l 1
107 552 m 1
 107 542 l 1
 109 542 l 1
 109 552 l 1
 107 552 l 1
111 400 m 1
 111 392 l 1
 113 392 l 1
 113 400 l 1
 111 400 l 1
107 402 m 1
 107 400 l 1
 117 400 l 1
 117 402 l 1
 107 402 l 1
458 398 m 1
 458 388 l 1
 460 388 l 1
 460 398 l 1
 458 398 l 1
460 390 m 1
 460 388 l 1
 468 388 l 1
 468 390 l 1
 460 390 l 1
458 426 m 1
 458 420 l 1
 460 420 l 1
 460 426 l 1
 458 426 l 1
466 426 m 1
 466 420 l 1
 468 420 l 1
 468 426 l 1
 466 426 l 1
460 420 m 1
 460 418 l 1
 466 418 l 1
 466 420 l 1
 460 420 l 1
460 428 m 1
 460 426 l 1
 466 426 l 1
 466 428 l 1
 460 428 l 1
466 452 m 1
 466 448 l 1
 468 448 l 1
 468 452 l 1
 466 452 l 1
460 454 m 1
 460 452 l 1
 466 452 l 1
 466 454 l 1
 460 454 l 1
466 456 m 1
 466 454 l 1
 468 454 l 1
 468 456 l 1
 466 456 l 1
460 458 m 1
 460 456 l 1
 466 456 l 1
 466 458 l 1
 460 458 l 1
458 458 m 1
 458 448 l 1
 460 448 l 1
 460 458 l 1
 458 458 l 1
462 486 m 1
 462 478 l 1
 464 478 l 1
 464 486 l 1
 462 486 l 1
458 488 m 1
 458 486 l 1
 468 486 l 1
 468 488 l 1
 458 488 l 1
462 514 m 1
 462 512 l 1
 464 512 l 1
 464 514 l 1
 462 514 l 1
464 512 m 1
 464 510 l 1
 466 510 l 1
 466 512 l 1
 464 512 l 1
460 516 m 1
 460 514 l 1
 462 514 l 1
 462 516 l 1
 460 516 l 1
458 518 m 1
 458 508 l 1
 460 508 l 1
 460 518 l 1
 458 518 l 1
466 518 m 1
 466 508 l 1
 468 508 l 1
 468 518 l 1
 466 518 l 1
458 546 m 1
 458 540 l 1
 460 540 l 1
 460 546 l 1
 458 546 l 1
466 546 m 1
 466 540 l 1
 468 540 l 1
 468 546 l 1
 466 546 l 1
460 540 m 1
 460 538 l 1
 466 538 l 1
 466 540 l 1
 460 540 l 1
460 548 m 1
 460 546 l 1
 466 546 l 1
 466 548 l 1
 460 548 l 1
458 576 m 1
 458 570 l 1
 460 570 l 1
 460 576 l 1
 458 576 l 1
466 572 m 1
 466 570 l 1
 468 570 l 1
 468 572 l 1
 466 572 l 1
466 576 m 1
 466 574 l 1
 468 574 l 1
 468 576 l 1
 466 576 l 1
460 570 m 1
 460 568 l 1
 466 568 l 1
 466 570 l 1
 460 570 l 1
460 578 m 1
 460 576 l 1
 466 576 l 1
 466 578 l 1
 460 578 l 1
90 562 m 1
 140 562 l 1
 140 370 l 1
 90 370 l 1
 90 562 l 1
15 600 m 1
 215 600 l 1
 215 560 l 1
 15 560 l 1
 15 600 l 1
EndSplineSet
EndChar

StartChar: degree
Encoding: 176 176 155
Width: 280
Flags: HW
LayerCount: 2
Back
SplineSet
-245 495 m 0
 -245 453 -211 419 -170 419 c 0
 -129 419 -95 453 -95 495 c 0
 -95 537 -129 571 -170 571 c 0
 -211 571 -245 537 -245 495 c 0
-285 495 m 0
 -285 558 -233 610 -170 610 c 0
 -107 610 -55 558 -55 495 c 0
 -55 432 -107 380 -170 380 c 0
 -233 380 -285 432 -285 495 c 0
106 495 m 4
 99 453 126 419 167 419 c 4
 208 419 247 453 254 495 c 4
 261 537 234 571 193 571 c 4
 152 571 113 537 106 495 c 4
66 495 m 4
 77 558 138 610 200 610 c 4
 262 610 305 558 294 495 c 4
 283 432 222 380 160 380 c 4
 98 380 55 432 66 495 c 4
EndSplineSet
Fore
SplineSet
116 485 m 0
 116 445 142 419 180 419 c 0
 225 419 264 460 264 505 c 0
 264 545 238 571 200 571 c 0
 155 571 116 530 116 485 c 0
75 475 m 0
 75 548 137 610 210 610 c 0
 265 610 305 570 305 515 c 0
 305 442 243 380 170 380 c 0
 115 380 75 420 75 475 c 0
EndSplineSet
EndChar

StartChar: cedilla
Encoding: 184 184 156
Width: 250
Flags: HW
LayerCount: 2
Back
SplineSet
402 30 m 1
 445 30 l 25
 414 -32 l 1
 462 -47 495 -80 495 -125 c 3
 495 -195 415 -242 320 -240 c 1
 320 -205 l 1
 384 -205 425 -177 425 -142 c 3
 425 -107 389 -90 347 -85 c 9
 347 -80 l 1
 402 30 l 1
-185 30 m 1
 -145 30 l 25
 -177 -34 l 1
 -129 -49 -95 -83 -95 -125 c 3
 -95 -190 -160 -237 -255 -235 c 1
 -260 -200 l 1
 -195 -200 -160 -174 -160 -142 c 3
 -160 -107 -200 -90 -240 -85 c 9
 -240 -80 l 1
 -185 30 l 1
-420 25 m 1
 -380 25 l 25
 -410 -40 l 1
 -360 -55 -325 -85 -325 -130 c 3
 -325 -190 -390 -235 -485 -235 c 1
 -490 -200 l 1
 -425 -199 -390 -175 -390 -140 c 3
 -390 -110 -425 -90 -470 -85 c 9
 -470 -80 l 1
 -420 25 l 1
-670 25 m 1
 -630 25 l 25
 -665 -50 l 1
 -620 -55 -585 -83 -585 -125 c 3
 -585 -185 -645 -223 -740 -225 c 1
 -745 -190 l 1
 -680 -188 -645 -170 -645 -135 c 3
 -645 -105 -675 -85 -720 -85 c 9
 -720 -80 l 1
 -670 25 l 1
EndSplineSet
Fore
Refer: 149 807 N 1 0 0 1 120 0 2
EndChar

StartChar: asciicircum
Encoding: 94 94 157
Width: 360
Flags: HW
LayerCount: 2
Back
SplineSet
190 555 m 1
 75 330 l 1
 20 330 l 1
 165 615 l 1
 195 615 l 1
 190 555 l 1
195 615 m 1
 340 330 l 1
 285 330 l 1
 170 555 l 1
 165 615 l 1
 195 615 l 1
EndSplineSet
Fore
SplineSet
235 557 m 1
 122 350 l 1
 65 350 l 1
 210 615 l 1
 240 615 l 1
 235 557 l 1
240 615 m 1
 385 350 l 1
 328 350 l 1
 215 557 l 1
 210 615 l 1
 240 615 l 1
EndSplineSet
EndChar

StartChar: braceright
Encoding: 125 125 158
Width: 350
Flags: HW
LayerCount: 2
Back
SplineSet
331 222 m 1
 324 178 l 1
 295 178 l 1
 246 178 221 150 212 90 c 2
 184 -90 l 2
 173 -160 102 -210 43 -210 c 2
 -11 -210 l 9
 -4 -165 l 1
 40 -165 l 2
 79 -165 108 -135 117 -80 c 2
 144 95 l 2
 151 140 187 185 229 200 c 1
 192 215 170 260 177 305 c 2
 204 480 l 2
 213 535 193 565 154 565 c 2
 109 565 l 1
 116 610 l 17
 175 610 l 2
 239 610 285 560 274 490 c 2
 246 310 l 2
 237 250 253 222 302 222 c 1
 331 222 l 1
EndSplineSet
Fore
SplineSet
340 222 m 1
 335 178 l 1
 305 178 l 1
 255 178 232 150 222 100 c 0
 211 45 201 -50 193 -90 c 0
 179 -160 116 -210 52 -210 c 2
 0 -210 l 9
 5 -165 l 1
 50 -165 l 2
 90 -165 116 -135 125 -90 c 0
 135 -40 145 50 155 100 c 0
 165 150 195 185 240 200 c 1
 205 215 185 250 185 285 c 3
 185 325 215 455 215 505 c 3
 215 545 200 565 165 565 c 2
 120 565 l 1
 125 610 l 17
 185 610 l 2
 245 610 283 570 283 510 c 3
 283 465 252 335 252 285 c 3
 252 245 271 222 311 222 c 1
 340 222 l 1
EndSplineSet
EndChar

StartChar: braceleft
Encoding: 123 123 159
Width: 350
Flags: HW
LayerCount: 2
Back
SplineSet
325 222 m 1
 296 222 l 1
 246 222 225 250 225 310 c 2
 225 490 l 2
 225 560 170 610 105 610 c 2
 45 610 l 9
 45 565 l 1
 90 565 l 2
 130 565 155 535 155 480 c 2
 155 305 l 2
 155 260 185 215 225 200 c 1
 185 185 155 140 155 95 c 2
 155 -80 l 2
 155 -135 130 -165 90 -165 c 2
 45 -165 l 1
 45 -210 l 17
 100 -210 l 2
 160 -210 225 -160 225 -90 c 2
 225 90 l 2
 225 150 246 178 296 178 c 1
 325 178 l 1
 325 222 l 1
EndSplineSet
Fore
Refer: 158 125 N -1 0 0 -1 350 400 2
EndChar

StartChar: asciitilde
Encoding: 126 126 161
Width: 400
Flags: HW
LayerCount: 2
Back
SplineSet
30 190 m 17
 50 220 85 245 115 245 c 3
 145 245 170 230 200 215 c 0
 230 200 255 185 285 185 c 3
 315 185 350 210 370 240 c 1033
EndSplineSet
Fore
SplineSet
380 210 m 17
 353 180 308 154 278 154 c 3
 248 154 222 169 190 185 c 0
 160 200 135 215 115 215 c 3
 92 215 67 202 45 180 c 9
 20 210 l 17
 47 240 92 266 122 266 c 3
 152 266 178 251 210 235 c 0
 240 220 265 205 285 205 c 3
 308 205 333 218 355 240 c 9
 380 210 l 17
EndSplineSet
EndChar

StartChar: eth
Encoding: 240 240 163
Width: 700
Flags: HW
LayerCount: 2
Fore
SplineSet
100 500 m 1
 600 500 l 1
 600 0 l 1
 100 0 l 1
 100 500 l 1
EndSplineSet
EndChar

StartChar: oslash
Encoding: 248 248 164
Width: 380
Flags: HW
LayerCount: 2
Back
SplineSet
27 16 m 1
 392 412 l 1
 420 384 l 1
 55 -12 l 1
 27 16 l 1
EndSplineSet
Refer: 2 111 N 1 0 0 1 0 0 2
Fore
SplineSet
7 16 m 1
 340 412 l 1
 370 384 l 1
 37 -12 l 1
 7 16 l 1
EndSplineSet
Refer: 2 111 N 1 0 0 1 0 0 2
EndChar

StartChar: divide
Encoding: 247 247 165
Width: 400
Flags: HW
LayerCount: 2
Back
SplineSet
156 75 m 0
 156 100 176 120 201 120 c 0
 226 120 246 100 246 75 c 0
 246 50 226 30 201 30 c 0
 176 30 156 50 156 75 c 0
156 335 m 0
 156 360 176 380 201 380 c 0
 226 380 246 360 246 335 c 0
 246 310 226 290 201 290 c 0
 176 290 156 310 156 335 c 0
225 380 m 1
 225 30 l 1
 175 30 l 1
 175 380 l 1
 225 380 l 1
25 230 m 1
 375 230 l 1
 375 180 l 1
 25 180 l 1
 25 230 l 1
EndSplineSet
Fore
SplineSet
157 75 m 0
 157 99 177 119 201 119 c 0
 225 119 245 99 245 75 c 0
 245 51 225 31 201 31 c 0
 177 31 157 51 157 75 c 0
157 335 m 0
 157 359 177 379 201 379 c 0
 225 379 245 359 245 335 c 0
 245 311 225 291 201 291 c 0
 177 291 157 311 157 335 c 0
25 230 m 1
 375 230 l 1
 375 180 l 1
 25 180 l 1
 25 230 l 1
EndSplineSet
EndChar

StartChar: logicalnot
Encoding: 172 172 166
Width: 400
Flags: HW
LayerCount: 2
Back
SplineSet
225 380 m 1
 225 30 l 1
 175 30 l 1
 175 380 l 1
 225 380 l 1
25 230 m 1
 375 230 l 1
 375 180 l 1
 25 180 l 1
 25 230 l 1
EndSplineSet
Fore
SplineSet
345 280 m 1
 345 105 l 1
 295 105 l 1
 295 250 l 1
 345 280 l 1
30 280 m 1
 345 280 l 1
 315 230 l 1
 30 230 l 1
 30 280 l 1
EndSplineSet
EndChar

StartChar: gravecomb.cap
Encoding: 65536 -1 167
Width: 0
GlyphClass: 4
Flags: HW
AnchorPoint: "accent_above" 45 455 mark 0
AnchorPoint: "accent_above_cap" 35 650 mark 0
LayerCount: 2
Back
SplineSet
0 800 m 1
 60 615 l 1
 25 615 l 1
 -72 785 l 1
 0 800 l 1
EndSplineSet
Fore
SplineSet
3 775 m 1
 60 650 l 1
 20 650 l 1
 -65 755 l 1
 3 775 l 1
EndSplineSet
EndChar

StartChar: acutecomb.cap
Encoding: 65537 -1 168
Width: 0
GlyphClass: 4
Flags: HW
AnchorPoint: "accent_above_cap" -35 650 mark 0
LayerCount: 2
Back
SplineSet
20 810 m 1
 95 795 l 1
 -35 625 l 1
 -70 625 l 1
 20 810 l 1
EndSplineSet
Fore
SplineSet
35 775 m 1
 110 755 l 1
 -35 650 l 1
 -75 650 l 1
 35 775 l 1
EndSplineSet
EndChar

StartChar: uni0302.cap
Encoding: 65538 -1 169
Width: 0
GlyphClass: 4
Flags: HW
AnchorPoint: "accent_above_cap" 0 650 mark 0
LayerCount: 2
Back
SplineSet
100 500 m 5
 600 500 l 5
 600 0 l 5
 100 0 l 5
 100 500 l 5
20 770 m 5
 125 650 l 5
 87 650 l 5
 0 710 l 5
 -87 650 l 5
 -125 650 l 5
 -20 770 l 5
 20 770 l 5
EndSplineSet
Fore
SplineSet
50 770 m 1
 125 650 l 1
 89 650 l 1
 20 709 l 1
 -85 650 l 1
 -125 650 l 1
 10 770 l 1
 50 770 l 1
EndSplineSet
EndChar

StartChar: tildecomb.cap
Encoding: 65539 -1 170
Width: 0
GlyphClass: 4
Flags: HW
AnchorPoint: "accent_above" 0 455 mark 0
AnchorPoint: "accent_above_cap" 0 650 mark 0
LayerCount: 2
Back
SplineSet
158 741 m 1
 108 683 92 666 72 666 c 0
 59 666 47 667 21 675 c 2
 -62 698 l 1
 -111 654 l 1
 -138 678 l 1
 -88 736 -72 753 -52 753 c 0
 -39 753 -27 752 -1 744 c 2
 82 721 l 1
 131 765 l 1
 158 741 l 1
-271 725 m 17
 -303 684 -342 641 -372 641 c 3
 -396 641 -421 652 -457 663 c 0
 -475 668 -498 676 -516 676 c 3
 -536 676 -557 658 -577 636 c 9
 -607 660 l 17
 -575 701 -536 744 -506 744 c 3
 -482 744 -457 733 -421 722 c 0
 -403 717 -380 709 -362 709 c 3
 -342 709 -321 727 -301 749 c 9
 -271 725 l 17
-299 563 m 17
 -326 525 -358 485 -383 485 c 3
 -403 485 -424 495 -454 505 c 0
 -469 510 -488 517 -503 517 c 3
 -520 517 -537 500 -554 480 c 9
 -579 502 l 17
 -552 540 -520 580 -495 580 c 3
 -475 580 -454 570 -424 560 c 0
 -409 555 -390 548 -375 548 c 3
 -358 548 -341 565 -324 585 c 9
 -299 563 l 17
EndSplineSet
Fore
SplineSet
158 741 m 1
 108 683 90 666 70 666 c 0
 58 666 47 668 22 675 c 2
 -64 699 l 1
 -111 654 l 1
 -138 678 l 1
 -88 736 -70 753 -50 753 c 0
 -38 753 -27 751 -2 744 c 2
 84 720 l 1
 131 765 l 1
 158 741 l 1
EndSplineSet
EndChar

StartChar: macroncomb.cap
Encoding: 65540 -1 171
Width: 0
GlyphClass: 4
Flags: HW
AnchorPoint: "accent_above_cap" 0 650 mark 0
LayerCount: 2
Back
SplineSet
20 770 m 1
 125 650 l 1
 87 650 l 1
 0 710 l 1
 -87 650 l 1
 -125 650 l 1
 -20 770 l 1
 20 770 l 1
EndSplineSet
Fore
SplineSet
-130 735 m 1
 150 735 l 1
 150 680 l 1
 -130 680 l 1
 -130 735 l 1
EndSplineSet
EndChar

StartChar: brevecomb.cap
Encoding: 65541 -1 172
Width: 700
GlyphClass: 4
Flags: HW
LayerCount: 2
Fore
SplineSet
100 500 m 1
 600 500 l 1
 600 0 l 1
 100 0 l 1
 100 500 l 1
EndSplineSet
EndChar

StartChar: uni0307.cap
Encoding: 65542 -1 173
Width: 0
GlyphClass: 4
Flags: HW
AnchorPoint: "accent_above_cap" 0 650 mark 0
LayerCount: 2
Back
SplineSet
-45 540 m 0
 -45 565 -25 585 0 585 c 0
 25 585 45 565 45 540 c 0
 45 515 25 495 0 495 c 0
 -25 495 -45 515 -45 540 c 0
EndSplineSet
Fore
SplineSet
-36 701 m 0
 -36 730 -9 758 20 758 c 0
 41 758 56 741 56 719 c 0
 56 690 29 662 0 662 c 0
 -21 662 -36 679 -36 701 c 0
EndSplineSet
EndChar

StartChar: uni0308.cap
Encoding: 65543 -1 174
Width: 0
GlyphClass: 4
Flags: HW
AnchorPoint: "accent_above_cap" 0 650 mark 0
LayerCount: 2
Back
SplineSet
31 540 m 0
 31 564 51 584 75 584 c 0
 99 584 119 564 119 540 c 0
 119 516 99 496 75 496 c 0
 51 496 31 516 31 540 c 0
-119 540 m 0
 -119 564 -99 584 -75 584 c 0
 -51 584 -31 564 -31 540 c 0
 -31 516 -51 496 -75 496 c 0
 -99 496 -119 516 -119 540 c 0
EndSplineSet
Fore
SplineSet
-120 702 m 0
 -120 730 -95 756 -67 756 c 0
 -48 756 -32 739 -32 718 c 0
 -32 690 -57 664 -85 664 c 0
 -104 664 -120 681 -120 702 c 0
52 702 m 0
 52 730 77 756 105 756 c 0
 124 756 140 739 140 718 c 0
 140 690 115 664 87 664 c 0
 68 664 52 681 52 702 c 0
EndSplineSet
EndChar

StartChar: uni030A.cap
Encoding: 65544 -1 175
Width: 0
GlyphClass: 4
Flags: HW
AnchorPoint: "accent_above_cap" 0 640 mark 0
LayerCount: 2
Back
SplineSet
-94 680 m 0
 -94 731 -51 773 2 773 c 0
 54 773 94 733 94 682 c 0
 94 631 51 589 -2 589 c 0
 -54 589 -94 629 -94 680 c 0
-44 687 m 0
 -44 647 -23 621 2 621 c 0
 27 621 44 642 44 675 c 0
 44 715 23 741 -2 741 c 0
 -27 741 -44 720 -44 687 c 0
EndSplineSet
Fore
SplineSet
-83 662 m 0
 -83 718 -35 773 28 773 c 0
 70 773 103 742 103 700 c 0
 103 644 55 589 -8 589 c 0
 -50 589 -83 620 -83 662 c 0
-35 670 m 0
 -35 642 -21 621 2 621 c 0
 32 621 55 654 55 692 c 0
 55 720 41 741 18 741 c 0
 -12 741 -35 708 -35 670 c 0
EndSplineSet
EndChar

StartChar: uni030b.cap
Encoding: 65545 -1 176
Width: 700
GlyphClass: 4
Flags: HW
LayerCount: 2
Fore
SplineSet
100 500 m 1
 600 500 l 1
 600 0 l 1
 100 0 l 1
 100 500 l 1
EndSplineSet
EndChar

StartChar: uni030C.cap
Encoding: 65546 -1 177
Width: 0
GlyphClass: 4
Flags: HW
AnchorPoint: "accent_above_cap" 0 650 mark 0
LayerCount: 2
Back
SplineSet
50 770 m 1
 125 650 l 1
 89 650 l 1
 20 709 l 1
 -85 650 l 1
 -125 650 l 1
 10 770 l 1
 50 770 l 1
EndSplineSet
Fore
Refer: 169 -1 N -1 0 0 -1 25 1420 2
EndChar

StartChar: uni0327.cap
Encoding: 65547 -1 178
Width: 0
GlyphClass: 4
Flags: HW
AnchorPoint: "accent_below_cap" 0 20 mark 0
LayerCount: 2
Back
SplineSet
-14 35 m 1
 27 35 l 25
 -13 -37 l 1
 31 -62 55 -90 55 -123 c 3
 55 -185 -9 -235 -108 -235 c 1
 -113 -199 l 1
 -51 -197 -14 -174 -14 -138 c 3
 -14 -98 -72 -95 -72 -77 c 3
 -72 -67 -67 -53 -51 -27 c 2
 -14 35 l 1
EndSplineSet
Fore
SplineSet
-18 20 m 1
 24 20 l 25
 -12 -45 l 1
 33 -69 55 -100 55 -133 c 3
 55 -197 -10 -245 -110 -245 c 1
 -115 -210 l 1
 -51 -208 -14 -186 -14 -148 c 3
 -14 -106 -72 -105 -72 -87 c 3
 -72 -77 -67 -63 -52 -38 c 2
 -18 20 l 1
EndSplineSet
EndChar

StartChar: uni0328.cap
Encoding: 65548 -1 179
Width: 700
GlyphClass: 4
Flags: HW
LayerCount: 2
Fore
SplineSet
100 500 m 1
 600 500 l 1
 600 0 l 1
 100 0 l 1
 100 500 l 1
EndSplineSet
EndChar

StartChar: NameMe.65549
Encoding: 65549 -1 180
Width: 240
Flags: HW
LayerCount: 2
Fore
SplineSet
62 45 m 0
 62 77 88 103 120 103 c 0
 152 103 178 77 178 45 c 0
 178 13 152 -13 120 -13 c 0
 88 -13 62 13 62 45 c 0
EndSplineSet
EndChar

StartChar: longs
Encoding: 383 383 181
Width: 245
Flags: HW
LayerCount: 2
Back
SplineSet
265 570 m 1
 240 570 229 594 204 594 c 1
 179 594 164 574 164 484 c 1
 164 0 l 1
 90 0 l 1
 90 460 l 1
 90 560 180 655 250 655 c 1
 290 655 310 635 310 615 c 1
 310 590 290 570 265 570 c 1
25 35 m 1
 245 35 l 1
 245 0 l 1
 25 0 l 1
 25 35 l 1
10 340 m 1
 10 370 l 1
 90 400 l 1
 120 390 l 1
 120 340 l 1
 10 340 l 1
EndSplineSet
Fore
SplineSet
110 -85 m 2
 94 -190 15 -260 -50 -260 c 1
 -80 -260 -100 -245 -100 -225 c 1
 -100 -201 -79 -180 -55 -180 c 1
 -30 -180 -26 -198 -4 -198 c 1
 16 -198 31 -170 42 -95 c 2
 124 455 l 2
 142 577 240 655 315 655 c 1
 340 655 360 640 360 620 c 1
 360 595 337 570 313 570 c 1
 286 570 279 592 255 592 c 1
 226 592 208 540 196 465 c 2
 110 -85 l 2
EndSplineSet
EndChar

StartChar: Aring
Encoding: 197 197 182
Width: 505
Flags: HW
LayerCount: 2
Back
SplineSet
80 10 m 1
 20 10 l 1
 255 600 l 1
 302 625 l 1
 265 498 l 1
 80 10 l 1
595 0 m 1
 370 0 l 1
 370 40 l 1
 595 40 l 1
 595 0 l 1
160 0 m 1
 -25 0 l 1
 -25 40 l 1
 160 40 l 1
 160 0 l 1
150 270 m 1
 375 270 l 1
 385 225 l 1
 140 225 l 1
 150 270 l 1
236 687 m 0
 236 647 257 621 282 621 c 0
 307 621 324 642 324 675 c 0
 324 715 303 741 278 741 c 0
 253 741 236 720 236 687 c 0
186 680 m 0
 186 731 229 773 282 773 c 0
 334 773 374 733 374 682 c 0
 374 631 331 589 278 589 c 0
 226 589 186 629 186 680 c 0
302 625 m 1
 545 10 l 1
 447 17 l 1
 255 518 l 1
 302 625 l 1
EndSplineSet
Fore
Refer: 175 -1 N 1 0 0 1 350 0 2
Refer: 39 65 N 1 0 0 1 0 0 3
EndChar

StartChar: Oslash
Encoding: 216 216 186
Width: 655
Flags: HW
LayerCount: 2
Back
SplineSet
60 15 m 1
 602 617 l 1
 632 587 l 1
 90 -15 l 1
 60 15 l 1
EndSplineSet
Refer: 18 79 N 1 0 0 1 0 0 2
Fore
SplineSet
30 17 m 1
 602 617 l 1
 632 585 l 1
 60 -15 l 1
 30 17 l 1
EndSplineSet
Refer: 18 79 N 1 0 0 1 0 0 2
EndChar

StartChar: currency
Encoding: 164 164 187
Width: 700
Flags: HW
LayerCount: 2
Fore
SplineSet
100 500 m 1
 600 500 l 1
 600 0 l 1
 100 0 l 1
 100 500 l 1
EndSplineSet
EndChar

StartChar: section
Encoding: 167 167 188
Width: 700
Flags: HW
LayerCount: 2
Fore
SplineSet
100 500 m 1
 600 500 l 1
 600 0 l 1
 100 0 l 1
 100 500 l 1
EndSplineSet
EndChar

StartChar: ordfeminine
Encoding: 170 170 189
Width: 700
Flags: HW
LayerCount: 2
Fore
SplineSet
100 500 m 1
 600 500 l 1
 600 0 l 1
 100 0 l 1
 100 500 l 1
EndSplineSet
EndChar

StartChar: registered
Encoding: 174 174 190
Width: 700
Flags: HW
LayerCount: 2
Fore
SplineSet
100 500 m 1
 600 500 l 1
 600 0 l 1
 100 0 l 1
 100 500 l 1
EndSplineSet
EndChar

StartChar: mu
Encoding: 181 181 191
Width: 700
Flags: HW
LayerCount: 2
Fore
SplineSet
100 500 m 1
 600 500 l 1
 600 0 l 1
 100 0 l 1
 100 500 l 1
EndSplineSet
EndChar

StartChar: paragraph
Encoding: 182 182 192
Width: 500
Flags: HW
LayerCount: 2
Back
SplineSet
155 -210 m 257
 480 -110 l 257
 480 -152 l 257
 155 -252 l 257
 155 -210 l 257
465 600 m 257
 465 560 l 257
 395 560 l 257
 395 -160 l 257
 350 -160 l 257
 350 560 l 257
 285 560 l 257
 285 -195 l 257
 240 -195 l 257
 240 205 l 257
 125 205 30 290 30 405 c 256
 30 515 125 600 240 600 c 257
 465 600 l 257
EndSplineSet
Fore
SplineSet
465 600 m 257
 465 560 l 257
 395 560 l 257
 395 -60 l 257
 395 -170 325 -240 215 -240 c 1
 205 -240 l 1
 195 -200 l 1
 215 -200 l 1
 300 -200 350 -149 350 -62 c 257
 350 560 l 257
 285 560 l 257
 285 -70 l 257
 240 -70 l 257
 240 205 l 257
 125 205 30 290 30 405 c 256
 30 515 125 600 240 600 c 257
 465 600 l 257
EndSplineSet
EndChar

StartChar: ordmasculine
Encoding: 186 186 193
Width: 700
Flags: HW
LayerCount: 2
Fore
SplineSet
100 500 m 1
 600 500 l 1
 600 0 l 1
 100 0 l 1
 100 500 l 1
EndSplineSet
EndChar

